font.ufo
<glyph name="exclam" format="2">
	<unicode hex="0021"/>
	<advance width="339"/>
	<outline>
		<contour>
			<point x="169" y="-12" type="curve" smooth="yes"/>
			<point x="224" y="-12"/>
			<point x="264" y="28"/>
			<point x="264" y="83" type="curve" smooth="yes"/>
			<point x="264" y="137"/>
			<point x="224" y="177"/>
			<point x="169" y="177" type="curve" smooth="yes"/>
			<point x="115" y="177"/>
			<point x="75" y="137"/>
			<point x="75" y="83" type="curve" smooth="yes"/>
			<point x="75" y="28"/>
			<point x="115" y="-12"/>
		</contour>
		<contour>
			<point x="169" y="670" type="curve" smooth="yes"/>
			<point x="107" y="670"/>
			<point x="69" y="635"/>
			<point x="69" y="570" type="curve" smooth="yes"/>
			<point x="69" y="515"/>
			<point x="82" y="462"/>
			<point x="112" y="346" type="curve" smooth="yes"/>
			<point x="139" y="248" type="line"/>
			<point x="199" y="248" type="line"/>
			<point x="225" y="346" type="line" smooth="yes"/>
			<point x="255" y="462"/>
			<point x="269" y="515"/>
			<point x="269" y="570" type="curve" smooth="yes"/>
			<point x="269" y="635"/>
			<point x="232" y="670"/>
		</contour>
	</outline>
</glyph>
<glyph name="dollar" format="2">
	<unicode hex="0024"/>
	<advance width="581"/>
	<outline>
		<contour>
			<point x="254" y="46" type="curve" smooth="yes"/>
			<point x="206" y="46"/>
			<point x="166" y="54"/>
			<point x="131" y="62" type="curve"/>
			<point x="201" y="32" type="line"/>
			<point x="185" y="126" type="line" smooth="yes"/>
			<point x="179" y="164"/>
			<point x="156" y="183"/>
			<point x="118" y="183" type="curve" smooth="yes"/>
			<point x="79" y="183"/>
			<point x="63" y="159"/>
			<point x="58" y="121" type="curve"/>
			<point x="79" y="38"/>
			<point x="155" y="-12"/>
			<point x="281" y="-12" type="curve" smooth="yes"/>
			<point x="425" y="-12"/>
			<point x="529" y="60"/>
			<point x="529" y="184" type="curve" smooth="yes"/>
			<point x="529" y="296"/>
			<point x="447" y="345"/>
			<point x="318" y="385" type="curve" smooth="yes"/>
			<point x="297" y="392" type="line" smooth="yes"/>
			<point x="225" y="415"/>
			<point x="188" y="442"/>
			<point x="188" y="496" type="curve" smooth="yes"/>
			<point x="188" y="550"/>
			<point x="225" y="588"/>
			<point x="305" y="588" type="curve" smooth="yes"/>
			<point x="351" y="588"/>
			<point x="396" y="580"/>
			<point x="432" y="572" type="curve"/>
			<point x="361" y="607" type="line"/>
			<point x="377" y="513" type="line" smooth="yes"/>
			<point x="384" y="475"/>
			<point x="406" y="456"/>
			<point x="445" y="456" type="curve" smooth="yes"/>
			<point x="484" y="456"/>
			<point x="500" y="481"/>
			<point x="505" y="519" type="curve"/>
			<point x="483" y="601"/>
			<point x="409" y="646"/>
			<point x="289" y="646" type="curve" smooth="yes"/>
			<point x="160" y="646"/>
			<point x="61" y="583"/>
			<point x="61" y="463" type="curve" smooth="yes"/>
			<point x="61" y="353"/>
			<point x="143" y="302"/>
			<point x="272" y="262" type="curve" smooth="yes"/>
			<point x="293" y="255" type="line" smooth="yes"/>
			<point x="368" y="231"/>
			<point x="402" y="205"/>
			<point x="402" y="150" type="curve" smooth="yes"/>
			<point x="402" y="90"/>
			<point x="358" y="46"/>
		</contour>
		<contour>
			<point x="323" y="318" type="line"/>
			<point x="323" y="746" type="line"/>
			<point x="260" y="746" type="line"/>
			<point x="272" y="318" type="line"/>
		</contour>
		<contour>
			<point x="258" y="-112" type="line"/>
			<point x="320" y="-112" type="line"/>
			<point x="309" y="315" type="line"/>
			<point x="258" y="315" type="line"/>
		</contour>
	</outline>
</glyph>
<glyph name="quotesingle" format="2">
	<unicode hex="0027"/>
	<advance width="234"/>
	<outline>
		<contour>
			<point x="117" y="733" type="curve" smooth="yes"/>
			<point x="68" y="733"/>
			<point x="36" y="704"/>
			<point x="36" y="650" type="curve" smooth="yes"/>
			<point x="36" y="599"/>
			<point x="48" y="544"/>
			<point x="62" y="481" type="curve" smooth="yes"/>
			<point x="81" y="395" type="line"/>
			<point x="153" y="395" type="line"/>
			<point x="172" y="481" type="line" smooth="yes"/>
			<point x="186" y="544"/>
			<point x="198" y="599"/>
			<point x="198" y="650" type="curve" smooth="yes"/>
			<point x="198" y="704"/>
			<point x="166" y="733"/>
		</contour>
	</outline>
</glyph>
<glyph name="plus" format="2">
	<unicode hex="002B"/>
	<advance width="582"/>
	<outline>
		<contour>
			<point x="240" y="70" type="line"/>
			<point x="342" y="70" type="line"/>
			<point x="342" y="568" type="line"/>
			<point x="240" y="568" type="line"/>
		</contour>
		<contour>
			<point x="534" y="271" type="line"/>
			<point x="534" y="367" type="line"/>
			<point x="48" y="367" type="line"/>
			<point x="48" y="271" type="line"/>
		</contour>
	</outline>
</glyph>
<glyph name="comma" format="2">
	<unicode hex="002C"/>
	<advance width="324"/>
	<outline>
		<contour>
			<point x="257" y="61" type="curve" smooth="yes"/>
			<point x="257" y="93"/>
			<point x="253" y="130"/>
			<point x="242" y="160" type="curve"/>
			<point x="227" y="168"/>
			<point x="198" y="176"/>
			<point x="169" y="176" type="curve" smooth="yes"/>
			<point x="108" y="176"/>
			<point x="68" y="138"/>
			<point x="68" y="83" type="curve" smooth="yes"/>
			<point x="68" y="30"/>
			<point x="105" y="4"/>
			<point x="147" y="-16" type="curve" smooth="yes"/>
			<point x="194" y="-37" type="line"/>
			<point x="162" y="-13" type="line"/>
			<point x="137" y="-77"/>
			<point x="96" y="-121"/>
			<point x="25" y="-160" type="curve"/>
			<point x="57" y="-210" type="line"/>
			<point x="166" y="-159"/>
			<point x="257" y="-90"/>
		</contour>
	</outline>
</glyph>
<glyph name="zero" format="2">
	<unicode hex="0030"/>
	<advance width="595"/>
	<outline>
		<contour>
			<point x="298" y="-15" type="curve" smooth="yes"/>
			<point x="454" y="-15"/>
			<point x="571" y="95"/>
			<point x="571" y="321" type="curve" smooth="yes"/>
			<point x="571" y="546"/>
			<point x="454" y="649"/>
			<point x="298" y="649" type="curve" smooth="yes"/>
			<point x="141" y="649"/>
			<point x="25" y="538"/>
			<point x="25" y="313" type="curve" smooth="yes"/>
			<point x="25" y="87"/>
			<point x="141" y="-15"/>
		</contour>
		<contour>
			<point x="298" y="55" type="curve" smooth="yes"/>
			<point x="224" y="55"/>
			<point x="203" y="122"/>
			<point x="203" y="317" type="curve" smooth="yes"/>
			<point x="203" y="512"/>
			<point x="224" y="579"/>
			<point x="298" y="579" type="curve" smooth="yes"/>
			<point x="371" y="579"/>
			<point x="392" y="512"/>
			<point x="392" y="317" type="curve" smooth="yes"/>
			<point x="392" y="122"/>
			<point x="371" y="55"/>
		</contour>
	</outline>
</glyph>
<glyph name="B" format="2">
	<unicode hex="0042"/>
	<advance width="721"/>
	<outline>
		<contour>
			<point x="29" y="0" type="line"/>
			<point x="157" y="0" type="line"/>
			<point x="157" y="75" type="line"/>
			<point x="141" y="75" type="line"/>
			<point x="29" y="75" type="line"/>
		</contour>
		<contour>
			<point x="113" y="0" type="curve"/>
			<point x="298" y="0" type="line"/>
			<point x="298" y="98"/>
			<point x="298" y="195"/>
			<point x="298" y="292" type="curve" smooth="yes"/>
			<point x="298" y="366" type="line" smooth="yes"/>
			<point x="298" y="463"/>
			<point x="298" y="560"/>
			<point x="298" y="657" type="curve"/>
			<point x="113" y="657" type="line"/>
			<point x="113" y="560"/>
			<point x="113" y="463"/>
			<point x="113" y="366" type="curve" smooth="yes"/>
			<point x="113" y="292" type="line" smooth="yes"/>
			<point x="113" y="195"/>
			<point x="113" y="98"/>
		</contour>
		<contour>
			<point x="254" y="0" type="line"/>
			<point x="350" y="0" type="line" smooth="yes"/>
			<point x="574" y="0"/>
			<point x="683" y="68"/>
			<point x="683" y="189" type="curve" smooth="yes"/>
			<point x="683" y="296"/>
			<point x="587" y="337"/>
			<point x="422" y="337" type="curve"/>
			<point x="422" y="360" type="line"/>
			<point x="556" y="360"/>
			<point x="647" y="408"/>
			<point x="647" y="505" type="curve" smooth="yes"/>
			<point x="647" y="605"/>
			<point x="542" y="657"/>
			<point x="355" y="657" type="curve" smooth="yes"/>
			<point x="254" y="657" type="line"/>
			<point x="254" y="585" type="line"/>
			<point x="345" y="585" type="line" smooth="yes"/>
			<point x="424" y="585"/>
			<point x="463" y="548"/>
			<point x="463" y="482" type="curve" smooth="yes"/>
			<point x="463" y="416"/>
			<point x="424" y="374"/>
			<point x="339" y="374" type="curve" smooth="yes"/>
			<point x="237" y="374" type="line"/>
			<point x="237" y="305" type="line"/>
			<point x="347" y="305" type="line" smooth="yes"/>
			<point x="450" y="305"/>
			<point x="495" y="264"/>
			<point x="495" y="189" type="curve" smooth="yes"/>
			<point x="495" y="114"/>
			<point x="450" y="72"/>
			<point x="339" y="72" type="curve" smooth="yes"/>
			<point x="254" y="72" type="line"/>
		</contour>
		<contour>
			<point x="29" y="582" type="line"/>
			<point x="141" y="582" type="line"/>
			<point x="157" y="582" type="line"/>
			<point x="157" y="657" type="line"/>
			<point x="29" y="657" type="line"/>
		</contour>
	</outline>
	<anchor name="aboveUC" x="332" y="677"/>
	<anchor name="belowLC" x="362" y="-20"/>
</glyph>
<glyph name="C" format="2">
	<unicode hex="0043"/>
	<advance width="706"/>
	<outline>
		<contour>
			<point x="424" y="-16" type="curve" smooth="yes"/>
			<point x="536" y="-16"/>
			<point x="610" y="8"/>
			<point x="658" y="31" type="curve"/>
			<point x="665" y="190" type="line"/>
			<point x="584" y="190" type="line"/>
			<point x="538" y="44" type="line"/>
			<point x="616" y="44" type="line"/>
			<point x="616" y="108" type="line"/>
			<point x="569" y="78"/>
			<point x="520" y="59"/>
			<point x="454" y="59" type="curve" smooth="yes"/>
			<point x="325" y="59"/>
			<point x="236" y="151"/>
			<point x="236" y="330" type="curve" smooth="yes"/>
			<point x="236" y="510"/>
			<point x="333" y="598"/>
			<point x="452" y="598" type="curve" smooth="yes"/>
			<point x="518" y="598"/>
			<point x="565" y="580"/>
			<point x="609" y="549" type="curve"/>
			<point x="609" y="613" type="line"/>
			<point x="532" y="613" type="line"/>
			<point x="578" y="469" type="line"/>
			<point x="659" y="469" type="line"/>
			<point x="652" y="626" type="line"/>
			<point x="612" y="649"/>
			<point x="534" y="673"/>
			<point x="430" y="673" type="curve" smooth="yes"/>
			<point x="223" y="673"/>
			<point x="45" y="564"/>
			<point x="45" y="326" type="curve" smooth="yes"/>
			<point x="45" y="88"/>
			<point x="215" y="-16"/>
		</contour>
	</outline>
	<anchor name="aboveUC" x="438" y="677"/>
	<anchor name="baseLC" x="430" y="0"/>
	<anchor name="belowLC" x="433" y="-20"/>
</glyph>
<glyph name="F" format="2">
	<unicode hex="0046"/>
	<advance width="636"/>
	<outline>
		<contour>
			<point x="30" y="0" type="line"/>
			<point x="399" y="0" type="line"/>
			<point x="399" y="75" type="line"/>
			<point x="267" y="75" type="line"/>
			<point x="147" y="75" type="line"/>
			<point x="30" y="75" type="line"/>
		</contour>
		<contour>
			<point x="115" y="0" type="curve"/>
			<point x="299" y="0" type="line"/>
			<point x="299" y="98"/>
			<point x="299" y="195"/>
			<point x="299" y="292" type="curve" smooth="yes"/>
			<point x="299" y="366" type="line" smooth="yes"/>
			<point x="299" y="463"/>
			<point x="299" y="560"/>
			<point x="299" y="657" type="curve"/>
			<point x="115" y="657" type="line"/>
			<point x="115" y="560"/>
			<point x="115" y="463"/>
			<point x="115" y="366" type="curve" smooth="yes"/>
			<point x="115" y="292" type="line" smooth="yes"/>
			<point x="115" y="195"/>
			<point x="115" y="98"/>
		</contour>
		<contour>
			<point x="204" y="294" type="line"/>
			<point x="448" y="294" type="line"/>
			<point x="448" y="368" type="line"/>
			<point x="204" y="368" type="line"/>
		</contour>
		<contour>
			<point x="420" y="223" type="line"/>
			<point x="494" y="223" type="line"/>
			<point x="494" y="439" type="line"/>
			<point x="420" y="439" type="line"/>
			<point x="403" y="346" type="line"/>
			<point x="403" y="316" type="line"/>
		</contour>
		<contour>
			<point x="30" y="582" type="line"/>
			<point x="147" y="582" type="line"/>
			<point x="163" y="582" type="line"/>
			<point x="163" y="657" type="line"/>
			<point x="30" y="657" type="line"/>
		</contour>
		<contour>
			<point x="520" y="482" type="line"/>
			<point x="598" y="482" type="line"/>
			<point x="590" y="657" type="line"/>
			<point x="225" y="657" type="line"/>
			<point x="225" y="585" type="line"/>
			<point x="528" y="585" type="line"/>
			<point x="480" y="630" type="line"/>
		</contour>
	</outline>
	<anchor name="aboveUC" x="349" y="677"/>
	<anchor name="belowLC" x="212" y="-20"/>
</glyph>
<glyph name="J" format="2">
	<unicode hex="004A"/>
	<advance width="422"/>
	<outline>
		<contour>
			<point x="55" y="-148" type="curve" smooth="yes"/>
			<point x="142" y="-148"/>
			<point x="198" y="-117"/>
			<point x="240" y="-68" type="curve" smooth="yes"/>
			<point x="280" y="-19"/>
			<point x="314" y="31"/>
			<point x="314" y="192" type="curve" smooth="yes"/>
			<point x="314" y="364" type="line" smooth="yes"/>
			<point x="314" y="465"/>
			<point x="314" y="557"/>
			<point x="314" y="657" type="curve"/>
			<point x="129" y="657" type="line"/>
			<point x="129" y="472"/>
			<point x="129" y="303"/>
			<point x="129" y="141" type="curve" smooth="yes"/>
			<point x="129" y="1"/>
			<point x="136" y="-41"/>
			<point x="134" y="-102" type="curve"/>
			<point x="149" y="-93" type="line"/>
			<point x="93" y="-93" type="line"/>
			<point x="125" y="-106" type="line"/>
			<point x="103" y="-74" type="line" smooth="yes"/>
			<point x="74" y="-30"/>
			<point x="54" y="-19"/>
			<point x="13" y="-19" type="curve" smooth="yes"/>
			<point x="-28" y="-19"/>
			<point x="-54" y="-44"/>
			<point x="-59" y="-83" type="curve"/>
			<point x="-53" y="-126"/>
			<point x="-7" y="-148"/>
		</contour>
		<contour>
			<point x="35" y="582" type="line"/>
			<point x="173" y="582" type="line"/>
			<point x="270" y="582" type="line"/>
			<point x="398" y="582" type="line"/>
			<point x="398" y="657" type="line"/>
			<point x="35" y="657" type="line"/>
		</contour>
	</outline>
	<anchor name="aboveUC" x="222" y="677"/>
	<anchor name="belowLC" x="147" y="-158"/>
</glyph>
<glyph name="L" format="2">
	<unicode hex="004C"/>
	<advance width="648"/>
	<outline>
		<contour>
			<point x="30" y="0" type="line"/>
			<point x="163" y="0" type="line"/>
			<point x="163" y="75" type="line"/>
			<point x="147" y="75" type="line"/>
			<point x="30" y="75" type="line"/>
		</contour>
		<contour>
			<point x="115" y="0" type="curve"/>
			<point x="299" y="0" type="line"/>
			<point x="299" y="98"/>
			<point x="299" y="195"/>
			<point x="299" y="292" type="curve" smooth="yes"/>
			<point x="299" y="366" type="line" smooth="yes"/>
			<point x="299" y="463"/>
			<point x="299" y="560"/>
			<point x="299" y="657" type="curve"/>
			<point x="115" y="657" type="line"/>
			<point x="115" y="560"/>
			<point x="115" y="463"/>
			<point x="115" y="366" type="curve" smooth="yes"/>
			<point x="115" y="292" type="line" smooth="yes"/>
			<point x="115" y="195"/>
			<point x="115" y="98"/>
		</contour>
		<contour>
			<point x="225" y="0" type="line"/>
			<point x="603" y="0" type="line"/>
			<point x="611" y="214" type="line"/>
			<point x="533" y="214" type="line"/>
			<point x="493" y="27" type="line"/>
			<point x="535" y="72" type="line"/>
			<point x="225" y="72" type="line"/>
		</contour>
		<contour>
			<point x="30" y="582" type="line"/>
			<point x="147" y="582" type="line"/>
			<point x="267" y="582" type="line"/>
			<point x="399" y="582" type="line"/>
			<point x="399" y="657" type="line"/>
			<point x="30" y="657" type="line"/>
		</contour>
	</outline>
	<anchor name="aboveUC" x="213" y="677"/>
	<anchor name="belowLC" x="331" y="-20"/>
</glyph>
<glyph name="O" format="2">
	<unicode hex="004F"/>
	<advance width="791"/>
	<outline>
		<contour>
			<point x="395" y="-16" type="curve" smooth="yes"/>
			<point x="581" y="-16"/>
			<point x="745" y="103"/>
			<point x="745" y="332" type="curve" smooth="yes"/>
			<point x="745" y="560"/>
			<point x="581" y="673"/>
			<point x="395" y="673" type="curve" smooth="yes"/>
			<point x="209" y="673"/>
			<point x="45" y="555"/>
			<point x="45" y="326" type="curve" smooth="yes"/>
			<point x="45" y="97"/>
			<point x="209" y="-16"/>
		</contour>
		<contour>
			<point x="395" y="59" type="curve" smooth="yes"/>
			<point x="287" y="59"/>
			<point x="236" y="169"/>
			<point x="236" y="330" type="curve" smooth="yes"/>
			<point x="236" y="492"/>
			<point x="287" y="598"/>
			<point x="395" y="598" type="curve" smooth="yes"/>
			<point x="504" y="598"/>
			<point x="554" y="489"/>
			<point x="554" y="328" type="curve" smooth="yes"/>
			<point x="554" y="166"/>
			<point x="504" y="59"/>
		</contour>
	</outline>
	<anchor name="aboveUC" x="396" y="677"/>
	<anchor name="belowLC" x="396" y="-20"/>
	<anchor name="hornLC" x="608" y="553"/>
	<anchor name="ogonek" x="497" y="0"/>
</glyph>
<glyph name="Q" format="2">
	<unicode hex="0051"/>
	<advance width="791"/>
	<outline>
		<contour>
			<point x="525" y="-214" type="curve" smooth="yes"/>
			<point x="616" y="-214"/>
			<point x="666" y="-193"/>
			<point x="694" y="-177" type="curve"/>
			<point x="670" y="-111" type="line"/>
			<point x="654" y="-117"/>
			<point x="626" y="-125"/>
			<point x="592" y="-125" type="curve" smooth="yes"/>
			<point x="504" y="-125"/>
			<point x="473" y="-70"/>
			<point x="478" y="32" type="curve"/>
			<point x="312" y="32" type="line"/>
			<point x="311" y="15" type="line" smooth="yes"/>
			<point x="304" y="-144"/>
			<point x="392" y="-214"/>
		</contour>
		<component base="O"/>
	</outline>
	<anchor name="aboveUC" x="396" y="677"/>
</glyph>
<glyph name="W" format="2">
	<unicode hex="0057"/>
	<advance width="1071"/>
	<outline>
		<contour>
			<point x="245" y="0" type="line"/>
			<point x="399" y="0" type="line"/>
			<point x="487" y="303" type="line"/>
			<point x="534" y="524" type="line"/>
			<point x="544" y="524" type="line"/>
			<point x="658" y="0" type="line"/>
			<point x="810" y="0" type="line"/>
			<point x="1014" y="657" type="line"/>
			<point x="928" y="657" type="line"/>
			<point x="854" y="373" type="line"/>
			<point x="794" y="89" type="line"/>
			<point x="783" y="89" type="line"/>
			<point x="648" y="657" type="line"/>
			<point x="522" y="657" type="line"/>
			<point x="427" y="335" type="line"/>
			<point x="378" y="87" type="line"/>
			<point x="367" y="87" type="line"/>
			<point x="243" y="657" type="line"/>
			<point x="56" y="657" type="line"/>
		</contour>
		<contour>
			<point x="12" y="582" type="line"/>
			<point x="109" y="582" type="line"/>
			<point x="233" y="582" type="line"/>
			<point x="341" y="582" type="line"/>
			<point x="341" y="657" type="line"/>
			<point x="12" y="657" type="line"/>
		</contour>
		<contour>
			<point x="427" y="582" type="line"/>
			<point x="539" y="582" type="line"/>
			<point x="655" y="582" type="line"/>
			<point x="750" y="582" type="line"/>
			<point x="750" y="657" type="line"/>
			<point x="427" y="657" type="line"/>
		</contour>
		<contour>
			<point x="829" y="582" type="line"/>
			<point x="936" y="582" type="line"/>
			<point x="963" y="582" type="line"/>
			<point x="1059" y="582" type="line"/>
			<point x="1059" y="657" type="line"/>
			<point x="829" y="657" type="line"/>
		</contour>
	</outline>
	<anchor name="aboveUC" x="581" y="677"/>
	<anchor name="belowLC" x="535" y="-20"/>
</glyph>
<glyph name="Y" format="2">
	<unicode hex="0059"/>
	<advance width="708"/>
	<outline>
		<contour>
			<point x="169" y="0" type="line"/>
			<point x="540" y="0" type="line"/>
			<point x="540" y="75" type="line"/>
			<point x="403" y="75" type="line"/>
			<point x="305" y="75" type="line"/>
			<point x="169" y="75" type="line"/>
		</contour>
		<contour>
			<point x="262" y="0" type="curve"/>
			<point x="446" y="0" type="line"/>
			<point x="446" y="103"/>
			<point x="446" y="206"/>
			<point x="446" y="308" type="curve"/>
			<point x="262" y="308" type="line"/>
			<point x="262" y="206"/>
			<point x="262" y="103"/>
		</contour>
		<contour>
			<point x="277" y="207" type="line"/>
			<point x="432" y="207" type="line"/>
			<point x="667" y="657" type="line"/>
			<point x="573" y="657" type="line"/>
			<point x="490" y="479" type="line"/>
			<point x="425" y="300" type="line"/>
			<point x="413" y="300" type="line"/>
			<point x="253" y="657" type="line"/>
			<point x="41" y="657" type="line"/>
		</contour>
		<contour>
			<point x="12" y="582" type="line"/>
			<point x="122" y="582" type="line"/>
			<point x="250" y="582" type="line"/>
			<point x="373" y="582" type="line"/>
			<point x="373" y="657" type="line"/>
			<point x="12" y="657" type="line"/>
		</contour>
		<contour>
			<point x="453" y="582" type="line"/>
			<point x="563" y="582" type="line"/>
			<point x="596" y="582" type="line"/>
			<point x="696" y="582" type="line"/>
			<point x="696" y="657" type="line"/>
			<point x="453" y="657" type="line"/>
		</contour>
	</outline>
	<anchor name="aboveUC" x="418" y="677"/>
	<anchor name="belowLC" x="353" y="-20"/>
</glyph>
<glyph name="bracketleft" format="2">
	<unicode hex="005B"/>
	<advance width="388"/>
	<outline>
		<contour>
			<point x="105" y="-160" type="curve"/>
			<point x="236" y="-160" type="line"/>
			<point x="236" y="-54"/>
			<point x="236" y="52"/>
			<point x="236" y="158" type="curve" smooth="yes"/>
			<point x="236" y="398" type="line" smooth="yes"/>
			<point x="236" y="504"/>
			<point x="236" y="610"/>
			<point x="236" y="716" type="curve"/>
			<point x="105" y="716" type="line"/>
			<point x="105" y="610"/>
			<point x="105" y="504"/>
			<point x="105" y="398" type="curve" smooth="yes"/>
			<point x="105" y="158" type="line" smooth="yes"/>
			<point x="105" y="52"/>
			<point x="105" y="-54"/>
		</contour>
		<contour>
			<point x="167" y="-160" type="line"/>
			<point x="340" y="-160" type="line"/>
			<point x="340" y="-79" type="line"/>
			<point x="189" y="-79" type="line"/>
			<point x="167" y="-79" type="line"/>
		</contour>
		<contour>
			<point x="167" y="635" type="line"/>
			<point x="189" y="635" type="line"/>
			<point x="340" y="635" type="line"/>
			<point x="340" y="716" type="line"/>
			<point x="167" y="716" type="line"/>
		</contour>
	</outline>
</glyph>
<glyph name="b" format="2">
	<unicode hex="0062"/>
	<advance width="677"/>
	<outline>
		<contour>
			<point x="31" y="0" type="line"/>
			<point x="247" y="-7" type="line"/>
			<point x="264" y="100" type="line"/>
			<point x="270" y="100" type="line"/>
			<point x="270" y="406" type="line"/>
			<point x="263" y="406" type="line"/>
			<point x="270" y="581" type="line"/>
			<point x="270" y="716" type="line"/>
			<point x="213" y="716" type="line"/>
			<point x="26" y="683" type="line"/>
			<point x="26" y="627" type="line"/>
			<point x="98" y="607" type="line"/>
			<point x="98" y="220" type="line" smooth="yes"/>
			<point x="98" y="174"/>
			<point x="98" y="127"/>
			<point x="98" y="80" type="curve"/>
			<point x="31" y="64" type="line"/>
		</contour>
		<contour>
			<point x="440" y="-15" type="curve" smooth="yes"/>
			<point x="554" y="-15"/>
			<point x="637" y="84"/>
			<point x="637" y="256" type="curve" smooth="yes"/>
			<point x="637" y="428"/>
			<point x="554" y="528"/>
			<point x="440" y="528" type="curve" smooth="yes"/>
			<point x="359" y="528"/>
			<point x="325" y="490"/>
			<point x="297" y="422" type="curve"/>
			<point x="238" y="422" type="line"/>
			<point x="238" y="353" type="line"/>
			<point x="277" y="391"/>
			<point x="311" y="411"/>
			<point x="354" y="411" type="curve" smooth="yes"/>
			<point x="420" y="411"/>
			<point x="460" y="365"/>
			<point x="460" y="252" type="curve" smooth="yes"/>
			<point x="460" y="139"/>
			<point x="420" y="93"/>
			<point x="354" y="93" type="curve" smooth="yes"/>
			<point x="311" y="93"/>
			<point x="276" y="113"/>
			<point x="238" y="151" type="curve"/>
			<point x="238" y="82" type="line"/>
			<point x="297" y="82" type="line"/>
			<point x="320" y="33"/>
			<point x="352" y="-15"/>
		</contour>
	</outline>
	<anchor name="aboveLC" x="182" y="726"/>
	<anchor name="belowLC" x="330" y="-20"/>
</glyph>
<glyph name="d" format="2">
	<unicode hex="0064"/>
	<advance width="674"/>
	<outline>
		<contour>
			<point x="237" y="-15" type="curve" smooth="yes"/>
			<point x="325" y="-15"/>
			<point x="357" y="41"/>
			<point x="380" y="93" type="curve"/>
			<point x="439" y="93" type="line"/>
			<point x="439" y="158" type="line"/>
			<point x="404" y="121"/>
			<point x="367" y="100"/>
			<point x="323" y="100" type="curve" smooth="yes"/>
			<point x="257" y="100"/>
			<point x="217" y="145"/>
			<point x="217" y="259" type="curve" smooth="yes"/>
			<point x="217" y="372"/>
			<point x="257" y="418"/>
			<point x="323" y="418" type="curve" smooth="yes"/>
			<point x="370" y="418"/>
			<point x="407" y="396"/>
			<point x="439" y="360" type="curve"/>
			<point x="439" y="428" type="line"/>
			<point x="380" y="428" type="line"/>
			<point x="357" y="478"/>
			<point x="325" y="528"/>
			<point x="237" y="528" type="curve" smooth="yes"/>
			<point x="123" y="528"/>
			<point x="40" y="427"/>
			<point x="40" y="255" type="curve" smooth="yes"/>
			<point x="40" y="83"/>
			<point x="123" y="-15"/>
		</contour>
		<contour>
			<point x="430" y="-7" type="line"/>
			<point x="646" y="0" type="line"/>
			<point x="646" y="64" type="line"/>
			<point x="579" y="80" type="line"/>
			<point x="579" y="581" type="line"/>
			<point x="579" y="716" type="line"/>
			<point x="522" y="716" type="line"/>
			<point x="334" y="683" type="line"/>
			<point x="334" y="627" type="line"/>
			<point x="407" y="607" type="line"/>
			<point x="414" y="406" type="line"/>
			<point x="407" y="406" type="line"/>
			<point x="407" y="103" type="line"/>
			<point x="413" y="103" type="line"/>
		</contour>
	</outline>
	<anchor name="aboveLC" x="489" y="726"/>
	<anchor name="belowLC" x="358" y="-20"/>
</glyph>
<glyph name="e" format="2">
	<unicode hex="0065"/>
	<advance width="573"/>
	<outline>
		<contour>
			<point x="317" y="-15" type="curve" smooth="yes"/>
			<point x="434" y="-15"/>
			<point x="500" y="37"/>
			<point x="543" y="105" type="curve"/>
			<point x="494" y="143" type="line"/>
			<point x="463" y="106"/>
			<point x="426" y="85"/>
			<point x="365" y="85" type="curve" smooth="yes"/>
			<point x="276" y="85"/>
			<point x="213" y="148"/>
			<point x="213" y="276" type="curve" smooth="yes"/>
			<point x="213" y="414"/>
			<point x="243" y="464"/>
			<point x="308" y="464" type="curve" smooth="yes"/>
			<point x="358" y="464"/>
			<point x="387" y="423"/>
			<point x="387" y="362" type="curve" smooth="yes"/>
			<point x="387" y="335"/>
			<point x="386" y="322"/>
			<point x="384" y="295" type="curve" smooth="yes"/>
			<point x="181" y="295" type="line"/>
			<point x="181" y="240" type="line"/>
			<point x="531" y="240" type="line"/>
			<point x="535" y="262"/>
			<point x="538" y="284"/>
			<point x="538" y="314" type="curve" smooth="yes"/>
			<point x="538" y="447"/>
			<point x="448" y="528"/>
			<point x="309" y="528" type="curve" smooth="yes"/>
			<point x="151" y="528"/>
			<point x="40" y="420"/>
			<point x="40" y="253" type="curve" smooth="yes"/>
			<point x="40" y="86"/>
			<point x="147" y="-15"/>
		</contour>
	</outline>
	<anchor name="aboveLC" x="310" y="534"/>
	<anchor name="belowLC" x="316" y="-20"/>
	<anchor name="ogonek" x="398" y="0"/>
</glyph>
<glyph name="h" format="2">
	<unicode hex="0068"/>
	<advance width="703"/>
	<outline>
		<contour>
			<point x="31" y="0" type="line"/>
			<point x="326" y="0" type="line"/>
			<point x="326" y="71" type="line"/>
			<point x="227" y="71" type="line"/>
			<point x="141" y="71" type="line"/>
			<point x="31" y="71" type="line"/>
		</contour>
		<contour>
			<point x="98" y="0" type="curve"/>
			<point x="270" y="0" type="line"/>
			<point x="270" y="73"/>
			<point x="270" y="147"/>
			<point x="270" y="220" type="curve" smooth="yes"/>
			<point x="270" y="397" type="line"/>
			<point x="268" y="397" type="line"/>
			<point x="270" y="581" type="line"/>
			<point x="270" y="716" type="line"/>
			<point x="213" y="716" type="line"/>
			<point x="26" y="683" type="line"/>
			<point x="26" y="627" type="line"/>
			<point x="98" y="607" type="line"/>
			<point x="98" y="220" type="line" smooth="yes"/>
			<point x="98" y="147"/>
			<point x="98" y="73"/>
		</contour>
		<contour>
			<point x="388" y="0" type="line"/>
			<point x="681" y="0" type="line"/>
			<point x="681" y="71" type="line"/>
			<point x="571" y="71" type="line"/>
			<point x="485" y="71" type="line"/>
			<point x="388" y="71" type="line"/>
		</contour>
		<contour>
			<point x="442" y="0" type="curve"/>
			<point x="614" y="0" type="line"/>
			<point x="614" y="74"/>
			<point x="614" y="147"/>
			<point x="614" y="221" type="curve" smooth="yes"/>
			<point x="614" y="352" type="line" smooth="yes"/>
			<point x="614" y="466"/>
			<point x="560" y="528"/>
			<point x="458" y="528" type="curve" smooth="yes"/>
			<point x="370" y="528"/>
			<point x="328" y="469"/>
			<point x="303" y="419" type="curve"/>
			<point x="243" y="419" type="line"/>
			<point x="243" y="354" type="line"/>
			<point x="288" y="385"/>
			<point x="328" y="402"/>
			<point x="370" y="402" type="curve" smooth="yes"/>
			<point x="420" y="402"/>
			<point x="442" y="379"/>
			<point x="442" y="322" type="curve" smooth="yes"/>
			<point x="442" y="221" type="line" smooth="yes"/>
			<point x="442" y="147"/>
			<point x="442" y="74"/>
		</contour>
	</outline>
	<anchor name="aboveLC" x="181" y="726"/>
	<anchor name="belowLC" x="357" y="-20"/>
</glyph>
<glyph name="l" format="2">
	<unicode hex="006C"/>
	<advance width="368"/>
	<outline>
		<contour>
			<point x="31" y="0" type="line"/>
			<point x="337" y="0" type="line"/>
			<point x="337" y="71" type="line"/>
			<point x="227" y="71" type="line"/>
			<point x="141" y="71" type="line"/>
			<point x="31" y="71" type="line"/>
		</contour>
		<contour>
			<point x="98" y="0" type="curve"/>
			<point x="270" y="0" type="line"/>
			<point x="270" y="73"/>
			<point x="270" y="147"/>
			<point x="270" y="220" type="curve" smooth="yes"/>
			<point x="270" y="581" type="line"/>
			<point x="270" y="716" type="line"/>
			<point x="213" y="716" type="line"/>
			<point x="26" y="683" type="line"/>
			<point x="26" y="627" type="line"/>
			<point x="98" y="607" type="line"/>
			<point x="98" y="220" type="line" smooth="yes"/>
			<point x="98" y="147"/>
			<point x="98" y="73"/>
		</contour>
	</outline>
	<anchor name="aboveLC" x="183" y="726"/>
	<anchor name="belowLC" x="185" y="-20"/>
</glyph>
<glyph name="m" format="2">
	<unicode hex="006D"/>
	<advance width="1031"/>
	<outline>
		<contour>
			<point x="36" y="0" type="line"/>
			<point x="327" y="0" type="line"/>
			<point x="327" y="71" type="line"/>
			<point x="232" y="71" type="line"/>
			<point x="146" y="71" type="line"/>
			<point x="36" y="71" type="line"/>
		</contour>
		<contour>
			<point x="103" y="0" type="curve"/>
			<point x="275" y="0" type="line"/>
			<point x="275" y="73"/>
			<point x="275" y="147"/>
			<point x="275" y="220" type="curve" smooth="yes"/>
			<point x="275" y="411" type="line"/>
			<point x="261" y="411" type="line"/>
			<point x="245" y="514" type="line"/>
			<point x="194" y="514" type="line"/>
			<point x="32" y="460" type="line"/>
			<point x="32" y="393" type="line"/>
			<point x="103" y="393" type="line"/>
			<point x="103" y="354"/>
			<point x="103" y="315"/>
			<point x="103" y="276" type="curve" smooth="yes"/>
			<point x="103" y="220" type="line" smooth="yes"/>
			<point x="103" y="147"/>
			<point x="103" y="73"/>
		</contour>
		<contour>
			<point x="384" y="0" type="line"/>
			<point x="661" y="0" type="line"/>
			<point x="661" y="71" type="line"/>
			<point x="565" y="71" type="line"/>
			<point x="479" y="71" type="line"/>
			<point x="384" y="71" type="line"/>
		</contour>
		<contour>
			<point x="436" y="0" type="curve"/>
			<point x="608" y="0" type="line"/>
			<point x="608" y="73"/>
			<point x="608" y="147"/>
			<point x="608" y="220" type="curve" smooth="yes"/>
			<point x="608" y="355" type="line" smooth="yes"/>
			<point x="608" y="468"/>
			<point x="554" y="528"/>
			<point x="455" y="528" type="curve" smooth="yes"/>
			<point x="368" y="528"/>
			<point x="325" y="469"/>
			<point x="293" y="419" type="curve"/>
			<point x="242" y="419" type="line"/>
			<point x="242" y="354" type="line"/>
			<point x="287" y="385"/>
			<point x="326" y="402"/>
			<point x="366" y="402" type="curve" smooth="yes"/>
			<point x="414" y="402"/>
			<point x="436" y="379"/>
			<point x="436" y="322" type="curve" smooth="yes"/>
			<point x="436" y="221" type="line" smooth="yes"/>
			<point x="436" y="147"/>
			<point x="436" y="74"/>
		</contour>
		<contour>
			<point x="717" y="0" type="line"/>
			<point x="1008" y="0" type="line"/>
			<point x="1008" y="71" type="line"/>
			<point x="898" y="71" type="line"/>
			<point x="812" y="71" type="line"/>
			<point x="717" y="71" type="line"/>
		</contour>
		<contour>
			<point x="769" y="0" type="curve"/>
			<point x="941" y="0" type="line"/>
			<point x="941" y="73"/>
			<point x="941" y="147"/>
			<point x="941" y="220" type="curve" smooth="yes"/>
			<point x="941" y="355" type="line" smooth="yes"/>
			<point x="941" y="468"/>
			<point x="887" y="528"/>
			<point x="788" y="528" type="curve" smooth="yes"/>
			<point x="701" y="528"/>
			<point x="658" y="469"/>
			<point x="626" y="419" type="curve"/>
			<point x="575" y="419" type="line"/>
			<point x="575" y="354" type="line"/>
			<point x="620" y="385"/>
			<point x="659" y="402"/>
			<point x="699" y="402" type="curve" smooth="yes"/>
			<point x="747" y="402"/>
			<point x="769" y="379"/>
			<point x="769" y="322" type="curve" smooth="yes"/>
			<point x="769" y="220" type="line" smooth="yes"/>
			<point x="769" y="147"/>
			<point x="769" y="73"/>
		</contour>
	</outline>
	<anchor name="aboveLC" x="526" y="534"/>
	<anchor name="belowLC" x="530" y="-20"/>
</glyph>
<glyph name="o" format="2">
	<unicode hex="006F"/>
	<advance width="639"/>
	<outline>
		<contour>
			<point x="320" y="-15" type="curve" smooth="yes"/>
			<point x="468" y="-15"/>
			<point x="600" y="79"/>
			<point x="600" y="259" type="curve" smooth="yes"/>
			<point x="600" y="440"/>
			<point x="468" y="528"/>
			<point x="320" y="528" type="curve" smooth="yes"/>
			<point x="171" y="528"/>
			<point x="40" y="436"/>
			<point x="40" y="255" type="curve" smooth="yes"/>
			<point x="40" y="73"/>
			<point x="171" y="-15"/>
		</contour>
		<contour>
			<point x="320" y="56" type="curve" smooth="yes"/>
			<point x="256" y="56"/>
			<point x="219" y="111"/>
			<point x="219" y="259" type="curve" smooth="yes"/>
			<point x="219" y="405"/>
			<point x="256" y="457"/>
			<point x="320" y="457" type="curve" smooth="yes"/>
			<point x="383" y="457"/>
			<point x="421" y="403"/>
			<point x="421" y="255" type="curve" smooth="yes"/>
			<point x="421" y="105"/>
			<point x="383" y="56"/>
		</contour>
	</outline>
	<anchor name="aboveLC" x="320" y="534"/>
	<anchor name="belowLC" x="320" y="-20"/>
	<anchor name="hornLC" x="479" y="427"/>
	<anchor name="ogonek" x="409" y="0"/>
</glyph>
<glyph name="t" format="2">
	<unicode hex="0074"/>
	<advance width="400"/>
	<outline>
		<contour>
			<point x="172" y="425" type="line"/>
			<point x="368" y="425" type="line"/>
			<point x="368" y="502" type="line"/>
			<point x="172" y="502" type="line"/>
		</contour>
		<contour>
			<point x="242" y="-14" type="curve" smooth="yes"/>
			<point x="323" y="-14"/>
			<point x="370" y="22"/>
			<point x="386" y="34" type="curve"/>
			<point x="363" y="98" type="line"/>
			<point x="354" y="95"/>
			<point x="339" y="89"/>
			<point x="317" y="89" type="curve" smooth="yes"/>
			<point x="277" y="89"/>
			<point x="256" y="108"/>
			<point x="256" y="154" type="curve" smooth="yes"/>
			<point x="256" y="477" type="line"/>
			<point x="248" y="477" type="line"/>
			<point x="264" y="651" type="line"/>
			<point x="160" y="651" type="line"/>
			<point x="86" y="473" type="line"/>
			<point x="132" y="506" type="line"/>
			<point x="14" y="490" type="line"/>
			<point x="14" y="425" type="line"/>
			<point x="83" y="425" type="line"/>
			<point x="83" y="240" type="line" smooth="yes"/>
			<point x="83" y="209"/>
			<point x="83" y="177"/>
			<point x="83" y="146" type="curve" smooth="yes"/>
			<point x="83" y="33"/>
			<point x="145" y="-14"/>
		</contour>
	</outline>
	<anchor name="aboveLC" x="205" y="642"/>
	<anchor name="baseLC" x="232" y="0"/>
	<anchor name="belowLC" x="231" y="-20"/>
</glyph>
<glyph name="v" format="2">
	<unicode hex="0076"/>
	<advance width="641"/>
	<outline>
		<contour>
			<point x="254" y="0" type="line"/>
			<point x="379" y="0" type="line"/>
			<point x="588" y="514" type="line"/>
			<point x="492" y="514" type="line"/>
			<point x="418" y="304" type="line"/>
			<point x="374" y="106" type="line"/>
			<point x="366" y="106" type="line"/>
			<point x="242" y="514" type="line"/>
			<point x="55" y="514" type="line"/>
		</contour>
		<contour>
			<point x="21" y="446" type="line"/>
			<point x="115" y="433" type="line"/>
			<point x="238" y="433" type="line"/>
			<point x="336" y="446" type="line"/>
			<point x="336" y="514" type="line"/>
			<point x="21" y="514" type="line"/>
		</contour>
		<contour>
			<point x="398" y="446" type="line"/>
			<point x="497" y="433" type="line"/>
			<point x="526" y="433" type="line"/>
			<point x="620" y="446" type="line"/>
			<point x="620" y="514" type="line"/>
			<point x="398" y="514" type="line"/>
		</contour>
	</outline>
	<anchor name="aboveLC" x="344" y="534"/>
	<anchor name="belowLC" x="320" y="-20"/>
</glyph>
<glyph name="y" format="2">
	<unicode hex="0079"/>
	<advance width="652"/>
	<outline>
		<contour>
			<point x="146" y="-233" type="curve" smooth="yes"/>
			<point x="287" y="-233"/>
			<point x="353" y="-143"/>
			<point x="402" y="-12" type="curve" smooth="yes"/>
			<point x="600" y="514" type="line"/>
			<point x="506" y="514" type="line"/>
			<point x="379" y="84" type="line"/>
			<point x="336" y="-18" type="line" smooth="yes"/>
			<point x="304" y="-90"/>
			<point x="270" y="-144"/>
			<point x="237" y="-175" type="curve"/>
			<point x="186" y="-175" type="line"/>
			<point x="218" y="-191" type="line"/>
			<point x="194" y="-150" type="line" smooth="yes"/>
			<point x="175" y="-120"/>
			<point x="151" y="-90"/>
			<point x="98" y="-90" type="curve" smooth="yes"/>
			<point x="50" y="-90"/>
			<point x="21" y="-121"/>
			<point x="13" y="-159" type="curve"/>
			<point x="24" y="-196"/>
			<point x="69" y="-233"/>
		</contour>
		<contour>
			<point x="301" y="-103" type="line"/>
			<point x="414" y="96" type="line"/>
			<point x="356" y="96" type="line"/>
			<point x="242" y="514" type="line"/>
			<point x="55" y="514" type="line"/>
		</contour>
		<contour>
			<point x="21" y="446" type="line"/>
			<point x="124" y="433" type="line"/>
			<point x="237" y="433" type="line"/>
			<point x="341" y="446" type="line"/>
			<point x="341" y="514" type="line"/>
			<point x="21" y="514" type="line"/>
		</contour>
		<contour>
			<point x="408" y="446" type="line"/>
			<point x="507" y="433" type="line"/>
			<point x="533" y="433" type="line"/>
			<point x="630" y="446" type="line"/>
			<point x="630" y="514" type="line"/>
			<point x="408" y="514" type="line"/>
		</contour>
	</outline>
	<anchor name="aboveLC" x="362" y="534"/>
	<anchor name="belowLC" x="224" y="-241"/>
</glyph>
<glyph name="braceleft" format="2">
	<unicode hex="007B"/>
	<advance width="406"/>
	<outline>
		<contour>
			<point x="70" y="245" type="line"/>
			<point x="144" y="229"/>
			<point x="165" y="208"/>
			<point x="165" y="164" type="curve" smooth="yes"/>
			<point x="165" y="109"/>
			<point x="114" y="40"/>
			<point x="114" y="-36" type="curve" smooth="yes"/>
			<point x="114" y="-120"/>
			<point x="179" y="-160"/>
			<point x="309" y="-160" type="curve" smooth="yes"/>
			<point x="352" y="-160" type="line"/>
			<point x="352" y="-97" type="line"/>
			<point x="331" y="-93" type="line" smooth="yes"/>
			<point x="278" y="-82"/>
			<point x="260" y="-58"/>
			<point x="260" y="-14" type="curve" smooth="yes"/>
			<point x="260" y="35"/>
			<point x="281" y="90"/>
			<point x="281" y="147" type="curve" smooth="yes"/>
			<point x="281" y="218"/>
			<point x="229" y="264"/>
			<point x="102" y="272" type="curve"/>
			<point x="102" y="284" type="line"/>
			<point x="229" y="292"/>
			<point x="281" y="338"/>
			<point x="281" y="409" type="curve" smooth="yes"/>
			<point x="281" y="466"/>
			<point x="260" y="521"/>
			<point x="260" y="570" type="curve" smooth="yes"/>
			<point x="260" y="614"/>
			<point x="278" y="638"/>
			<point x="331" y="649" type="curve" smooth="yes"/>
			<point x="352" y="653" type="line"/>
			<point x="352" y="716" type="line"/>
			<point x="309" y="716" type="line" smooth="yes"/>
			<point x="179" y="716"/>
			<point x="114" y="676"/>
			<point x="114" y="592" type="curve" smooth="yes"/>
			<point x="114" y="516"/>
			<point x="165" y="447"/>
			<point x="165" y="392" type="curve" smooth="yes"/>
			<point x="165" y="348"/>
			<point x="144" y="327"/>
			<point x="70" y="311" type="curve"/>
		</contour>
	</outline>
</glyph>
<glyph name="sterling" format="2">
	<unicode hex="00A3"/>
	<advance width="582"/>
	<outline>
		<contour>
			<point x="68" y="282" type="line"/>
			<point x="438" y="282" type="line"/>
			<point x="438" y="342" type="line"/>
			<point x="68" y="342" type="line"/>
		</contour>
		<contour>
			<point x="60" y="0" type="line"/>
			<point x="520" y="0" type="line"/>
			<point x="520" y="129" type="line"/>
			<point x="161" y="129" type="line"/>
			<point x="161" y="156" type="line"/>
			<point x="151" y="143" type="line"/>
			<point x="226" y="168"/>
			<point x="265" y="211"/>
			<point x="265" y="287" type="curve" smooth="yes"/>
			<point x="265" y="346"/>
			<point x="235" y="386"/>
			<point x="235" y="468" type="curve" smooth="yes"/>
			<point x="235" y="549"/>
			<point x="278" y="591"/>
			<point x="340" y="591" type="curve" smooth="yes"/>
			<point x="382" y="591"/>
			<point x="414" y="591"/>
			<point x="446" y="591" type="curve"/>
			<point x="365" y="613" type="line"/>
			<point x="384" y="533" type="line" smooth="yes"/>
			<point x="398" y="471"/>
			<point x="424" y="456"/>
			<point x="459" y="456" type="curve" smooth="yes"/>
			<point x="497" y="456"/>
			<point x="513" y="480"/>
			<point x="521" y="510" type="curve"/>
			<point x="502" y="587"/>
			<point x="441" y="646"/>
			<point x="309" y="646" type="curve" smooth="yes"/>
			<point x="172" y="646"/>
			<point x="90" y="565"/>
			<point x="90" y="468" type="curve" smooth="yes"/>
			<point x="90" y="357"/>
			<point x="161" y="335"/>
			<point x="161" y="257" type="curve" smooth="yes"/>
			<point x="161" y="200"/>
			<point x="132" y="159"/>
			<point x="60" y="113" type="curve"/>
		</contour>
	</outline>
</glyph>
<glyph name="section" format="2">
	<unicode hex="00A7"/>
	<advance width="541"/>
	<outline>
		<contour>
			<point x="255" y="-112" type="curve" smooth="yes"/>
			<point x="374" y="-112"/>
			<point x="465" y="-54"/>
			<point x="465" y="51" type="curve" smooth="yes"/>
			<point x="465" y="105"/>
			<point x="439" y="144"/>
			<point x="387" y="176" type="curve"/>
			<point x="380" y="180" type="line"/>
			<point x="351" y="197"/>
			<point x="314" y="211"/>
			<point x="271" y="224" type="curve" smooth="yes"/>
			<point x="172" y="254"/>
			<point x="150" y="286"/>
			<point x="150" y="328" type="curve" smooth="yes"/>
			<point x="150" y="365"/>
			<point x="165" y="391"/>
			<point x="178" y="404" type="curve"/>
			<point x="145" y="416" type="line"/>
			<point x="137" y="385" type="line"/>
			<point x="86" y="365"/>
			<point x="47" y="333"/>
			<point x="47" y="267" type="curve" smooth="yes"/>
			<point x="47" y="178"/>
			<point x="127" y="136"/>
			<point x="239" y="102" type="curve" smooth="yes"/>
			<point x="314" y="78"/>
			<point x="342" y="53"/>
			<point x="342" y="11" type="curve" smooth="yes"/>
			<point x="342" y="-31"/>
			<point x="313" y="-61"/>
			<point x="251" y="-61" type="curve" smooth="yes"/>
			<point x="216" y="-61"/>
			<point x="191" y="-57"/>
			<point x="175" y="-53" type="curve"/>
			<point x="215" y="-74" type="line"/>
			<point x="201" y="-16" type="line" smooth="yes"/>
			<point x="189" y="39"/>
			<point x="156" y="57"/>
			<point x="116" y="57" type="curve" smooth="yes"/>
			<point x="78" y="57"/>
			<point x="56" y="34"/>
			<point x="48" y="-2" type="curve"/>
			<point x="64" y="-66"/>
			<point x="136" y="-112"/>
		</contour>
		<contour>
			<point x="275" y="673" type="curve" smooth="yes"/>
			<point x="159" y="673"/>
			<point x="68" y="618"/>
			<point x="68" y="518" type="curve" smooth="yes"/>
			<point x="68" y="467"/>
			<point x="94" y="430"/>
			<point x="146" y="401" type="curve"/>
			<point x="154" y="396" type="line"/>
			<point x="182" y="380"/>
			<point x="219" y="366"/>
			<point x="263" y="353" type="curve" smooth="yes"/>
			<point x="361" y="324"/>
			<point x="383" y="292"/>
			<point x="383" y="249" type="curve" smooth="yes"/>
			<point x="383" y="213"/>
			<point x="369" y="186"/>
			<point x="355" y="174" type="curve"/>
			<point x="389" y="162" type="line"/>
			<point x="396" y="193" type="line"/>
			<point x="447" y="212"/>
			<point x="486" y="245"/>
			<point x="486" y="310" type="curve" smooth="yes"/>
			<point x="486" y="400"/>
			<point x="407" y="441"/>
			<point x="295" y="475" type="curve" smooth="yes"/>
			<point x="219" y="499"/>
			<point x="192" y="519"/>
			<point x="192" y="558" type="curve" smooth="yes"/>
			<point x="192" y="596"/>
			<point x="220" y="622"/>
			<point x="279" y="622" type="curve" smooth="yes"/>
			<point x="309" y="622"/>
			<point x="335" y="618"/>
			<point x="351" y="614" type="curve"/>
			<point x="310" y="635" type="line"/>
			<point x="324" y="577" type="line" smooth="yes"/>
			<point x="336" y="522"/>
			<point x="369" y="504"/>
			<point x="409" y="504" type="curve" smooth="yes"/>
			<point x="448" y="504"/>
			<point x="469" y="527"/>
			<point x="477" y="562" type="curve"/>
			<point x="461" y="626"/>
			<point x="389" y="673"/>
		</contour>
	</outline>
</glyph>
<glyph name="logicalnot" format="2">
	<unicode hex="00AC"/>
	<advance width="582"/>
	<outline>
		<contour>
			<point x="48" y="311" type="line"/>
			<point x="460" y="311" type="line"/>
			<point x="432" y="356" type="line"/>
			<point x="432" y="134" type="line"/>
			<point x="534" y="134" type="line"/>
			<point x="534" y="407" type="line"/>
			<point x="48" y="407" type="line"/>
		</contour>
	</outline>
</glyph>
<glyph name="three.sups" format="2">
	<unicode hex="00B3"/>
	<advance width="427"/>
	<outline>
		<contour>
			<point x="195" y="394" type="curve" smooth="yes"/>
			<point x="329" y="394"/>
			<point x="388" y="449"/>
			<point x="388" y="515" type="curve" smooth="yes"/>
			<point x="388" y="586"/>
			<point x="338" y="618"/>
			<point x="228" y="618" type="curve"/>
			<point x="228" y="634" type="line"/>
			<point x="321" y="634"/>
			<point x="376" y="674"/>
			<point x="376" y="734" type="curve" smooth="yes"/>
			<point x="376" y="795"/>
			<point x="323" y="839"/>
			<point x="209" y="839" type="curve" smooth="yes"/>
			<point x="117" y="839"/>
			<point x="69" y="802"/>
			<point x="58" y="739" type="curve"/>
			<point x="65" y="717"/>
			<point x="79" y="705"/>
			<point x="108" y="705" type="curve" smooth="yes"/>
			<point x="141" y="705"/>
			<point x="159" y="720"/>
			<point x="164" y="753" type="curve" smooth="yes"/>
			<point x="173" y="820" type="line"/>
			<point x="127" y="791" type="line"/>
			<point x="141" y="793"/>
			<point x="154" y="796"/>
			<point x="180" y="796" type="curve" smooth="yes"/>
			<point x="230" y="796"/>
			<point x="254" y="776"/>
			<point x="254" y="723" type="curve" smooth="yes"/>
			<point x="254" y="673"/>
			<point x="228" y="647"/>
			<point x="168" y="647" type="curve" smooth="yes"/>
			<point x="144" y="647" type="line"/>
			<point x="144" y="600" type="line"/>
			<point x="169" y="600" type="line" smooth="yes"/>
			<point x="234" y="600"/>
			<point x="262" y="570"/>
			<point x="262" y="521" type="curve" smooth="yes"/>
			<point x="262" y="470"/>
			<point x="234" y="439"/>
			<point x="166" y="439" type="curve" smooth="yes"/>
			<point x="143" y="439"/>
			<point x="124" y="442"/>
			<point x="111" y="444" type="curve"/>
			<point x="151" y="414" type="line"/>
			<point x="146" y="488" type="line" smooth="yes"/>
			<point x="142" y="528"/>
			<point x="117" y="543"/>
			<point x="87" y="543" type="curve" smooth="yes"/>
			<point x="61" y="543"/>
			<point x="44" y="527"/>
			<point x="38" y="496" type="curve"/>
			<point x="53" y="430"/>
			<point x="103" y="394"/>
		</contour>
	</outline>
</glyph>
<glyph name="AE" format="2">
	<unicode hex="00C6"/>
	<advance width="967"/>
	<outline>
		<contour>
			<point x="433" y="0" type="curve"/>
			<point x="617" y="0" type="line"/>
			<point x="617" y="98"/>
			<point x="617" y="195"/>
			<point x="617" y="292" type="curve" smooth="yes"/>
			<point x="617" y="366" type="line" smooth="yes"/>
			<point x="617" y="463"/>
			<point x="617" y="560"/>
			<point x="617" y="657" type="curve"/>
			<point x="433" y="657" type="line"/>
			<point x="433" y="292" type="line" smooth="yes"/>
			<point x="433" y="195"/>
			<point x="433" y="98"/>
		</contour>
		<contour>
			<point x="26" y="0" type="line"/>
			<point x="260" y="0" type="line"/>
			<point x="260" y="75" type="line"/>
			<point x="155" y="75" type="line"/>
			<point x="127" y="75" type="line"/>
			<point x="26" y="75" type="line"/>
		</contour>
		<contour>
			<point x="727" y="227" type="line"/>
			<point x="801" y="227" type="line"/>
			<point x="801" y="443" type="line"/>
			<point x="727" y="443" type="line"/>
			<point x="703" y="350" type="line"/>
			<point x="703" y="320" type="line"/>
		</contour>
		<contour>
			<point x="820" y="482" type="line"/>
			<point x="899" y="482" type="line"/>
			<point x="891" y="657" type="line"/>
			<point x="546" y="657" type="line"/>
			<point x="546" y="585" type="line"/>
			<point x="783" y="585" type="line"/>
		</contour>
		<contour>
			<point x="543" y="0" type="line"/>
			<point x="911" y="0" type="line"/>
			<point x="919" y="184" type="line"/>
			<point x="840" y="184" type="line"/>
			<point x="803" y="72" type="line"/>
			<point x="543" y="72" type="line"/>
		</contour>
		<contour>
			<point x="249" y="582" type="line"/>
			<point x="460" y="582" type="line"/>
			<point x="476" y="582" type="line"/>
			<point x="476" y="657" type="line"/>
			<point x="249" y="657" type="line"/>
		</contour>
		<contour>
			<point x="355" y="0" type="line"/>
			<point x="481" y="0" type="line"/>
			<point x="481" y="75" type="line"/>
			<point x="465" y="75" type="line"/>
			<point x="355" y="75" type="line"/>
		</contour>
		<contour>
			<point x="64" y="0" type="line"/>
			<point x="151" y="0" type="line"/>
			<point x="260" y="236" type="line"/>
			<point x="443" y="657" type="line"/>
			<point x="373" y="657" type="line"/>
		</contour>
		<contour>
			<point x="210" y="200" type="line"/>
			<point x="506" y="200" type="line"/>
			<point x="506" y="267" type="line"/>
			<point x="210" y="267" type="line"/>
		</contour>
		<contour>
			<point x="523" y="298" type="line"/>
			<point x="755" y="298" type="line"/>
			<point x="755" y="372" type="line"/>
			<point x="523" y="372" type="line"/>
		</contour>
	</outline>
	<anchor name="aboveUC" x="596" y="677"/>
</glyph>
<glyph name="multiply" format="2">
	<unicode hex="00D7"/>
	<advance width="581"/>
	<outline>
		<contour>
			<point x="456" y="88" type="line"/>
			<point x="526" y="159" type="line"/>
			<point x="125" y="560" type="line"/>
			<point x="54" y="490" type="line"/>
		</contour>
		<contour>
			<point x="525" y="491" type="line"/>
			<point x="457" y="559" type="line"/>
			<point x="55" y="158" type="line"/>
			<point x="124" y="89" type="line"/>
		</contour>
	</outline>
</glyph>
<glyph name="idieresis" format="2">
	<unicode hex="00EF"/>
	<advance width="371"/>
	<outline>
		<contour>
			<point x="86" y="588" type="curve" smooth="yes"/>
			<point x="134" y="588"/>
			<point x="161" y="624"/>
			<point x="161" y="670" type="curve" smooth="yes"/>
			<point x="161" y="716"/>
			<point x="134" y="753"/>
			<point x="86" y="753" type="curve" smooth="yes"/>
			<point x="37" y="753"/>
			<point x="10" y="716"/>
			<point x="10" y="670" type="curve" smooth="yes"/>
			<point x="10" y="624"/>
			<point x="37" y="588"/>
		</contour>
		<contour>
			<point x="286" y="588" type="curve" smooth="yes"/>
			<point x="335" y="588"/>
			<point x="361" y="624"/>
			<point x="361" y="670" type="curve" smooth="yes"/>
			<point x="361" y="716"/>
			<point x="335" y="753"/>
			<point x="286" y="753" type="curve" smooth="yes"/>
			<point x="237" y="753"/>
			<point x="210" y="716"/>
			<point x="210" y="670" type="curve" smooth="yes"/>
			<point x="210" y="624"/>
			<point x="237" y="588"/>
		</contour>
		<component base="dotlessi"/>
	</outline>
</glyph>
<glyph name="eth" format="2">
	<unicode hex="00F0"/>
	<advance width="626"/>
	<outline>
		<contour>
			<point x="309" y="-15" type="curve" smooth="yes"/>
			<point x="459" y="-15"/>
			<point x="587" y="83"/>
			<point x="587" y="299" type="curve" smooth="yes"/>
			<point x="587" y="538"/>
			<point x="407" y="667"/>
			<point x="170" y="728" type="curve"/>
			<point x="145" y="668" type="line"/>
			<point x="303" y="608"/>
			<point x="385" y="550"/>
			<point x="432" y="388" type="curve"/>
			<point x="403" y="388" type="line"/>
			<point x="387" y="434"/>
			<point x="352" y="480"/>
			<point x="261" y="480" type="curve" smooth="yes"/>
			<point x="137" y="480"/>
			<point x="40" y="392"/>
			<point x="40" y="231" type="curve" smooth="yes"/>
			<point x="40" y="71"/>
			<point x="159" y="-15"/>
		</contour>
		<contour>
			<point x="315" y="56" type="curve" smooth="yes"/>
			<point x="252" y="56"/>
			<point x="217" y="122"/>
			<point x="217" y="233" type="curve" smooth="yes"/>
			<point x="217" y="344"/>
			<point x="252" y="406"/>
			<point x="315" y="406" type="curve" smooth="yes"/>
			<point x="378" y="406"/>
			<point x="412" y="344"/>
			<point x="412" y="233" type="curve" smooth="yes"/>
			<point x="412" y="122"/>
			<point x="378" y="56"/>
		</contour>
		<contour>
			<point x="184" y="521" type="line"/>
			<point x="541" y="669" type="line"/>
			<point x="514" y="723" type="line"/>
			<point x="157" y="566" type="line"/>
		</contour>
	</outline>
</glyph>
<glyph name="aogonek" format="2">
	<unicode hex="0105"/>
	<advance width="609"/>
	<outline>
		<contour>
			<point x="179" y="-16" type="curve" smooth="yes"/>
			<point x="266" y="-16"/>
			<point x="303" y="34"/>
			<point x="327" y="76" type="curve"/>
			<point x="374" y="76" type="line"/>
			<point x="374" y="129" type="line"/>
			<point x="344" y="110"/>
			<point x="314" y="94"/>
			<point x="277" y="94" type="curve" smooth="yes"/>
			<point x="224" y="94"/>
			<point x="195" y="121"/>
			<point x="195" y="163" type="curve" smooth="yes"/>
			<point x="195" y="196"/>
			<point x="210" y="223"/>
			<point x="261" y="238" type="curve" smooth="yes"/>
			<point x="303" y="251"/>
			<point x="345" y="261"/>
			<point x="379" y="271" type="curve"/>
			<point x="379" y="319" type="line"/>
			<point x="330" y="307"/>
			<point x="281" y="296"/>
			<point x="232" y="284" type="curve" smooth="yes"/>
			<point x="93" y="253"/>
			<point x="39" y="200"/>
			<point x="39" y="117" type="curve" smooth="yes"/>
			<point x="39" y="38"/>
			<point x="96" y="-16"/>
		</contour>
		<contour>
			<point x="470" y="-230" type="curve" smooth="yes"/>
			<point x="535" y="-230"/>
			<point x="572" y="-204"/>
			<point x="590" y="-188" type="curve"/>
			<point x="570" y="-132" type="line"/>
			<point x="557" y="-137"/>
			<point x="545" y="-142"/>
			<point x="521" y="-142" type="curve" smooth="yes"/>
			<point x="482" y="-142"/>
			<point x="458" y="-120"/>
			<point x="458" y="-86" type="curve" smooth="yes"/>
			<point x="458" y="-47"/>
			<point x="488" y="-30"/>
			<point x="539" y="-6" type="curve" smooth="yes"/>
			<point x="574" y="10"/>
			<point x="591" y="21"/>
			<point x="607" y="40" type="curve"/>
			<point x="595" y="98" type="line"/>
			<point x="582" y="96"/>
			<point x="568" y="94"/>
			<point x="553" y="94" type="curve" smooth="yes"/>
			<point x="531" y="94"/>
			<point x="519" y="106"/>
			<point x="519" y="130" type="curve" smooth="yes"/>
			<point x="519" y="345" type="line" smooth="yes"/>
			<point x="519" y="470"/>
			<point x="439" y="528"/>
			<point x="293" y="528" type="curve" smooth="yes"/>
			<point x="162" y="528"/>
			<point x="70" y="474"/>
			<point x="55" y="379" type="curve"/>
			<point x="64" y="341"/>
			<point x="87" y="320"/>
			<point x="131" y="320" type="curve" smooth="yes"/>
			<point x="172" y="320"/>
			<point x="206" y="348"/>
			<point x="207" y="419" type="curve" smooth="yes"/>
			<point x="209" y="503" type="line"/>
			<point x="170" y="447" type="line"/>
			<point x="188" y="456"/>
			<point x="219" y="464"/>
			<point x="254" y="464" type="curve" smooth="yes"/>
			<point x="313" y="464"/>
			<point x="347" y="436"/>
			<point x="347" y="365" type="curve" smooth="yes"/>
			<point x="347" y="94" type="line"/>
			<point x="357" y="94" type="line" smooth="yes"/>
			<point x="369" y="46"/>
			<point x="404" y="19"/>
			<point x="461" y="8" type="curve" smooth="yes"/>
			<point x="461" y="-2"/>
			<point x="461" y="-11"/>
			<point x="461" y="-21" type="curve"/>
			<point x="471" y="-8" type="line"/>
			<point x="392" y="-32"/>
			<point x="348" y="-66"/>
			<point x="348" y="-127" type="curve" smooth="yes"/>
			<point x="348" y="-191"/>
			<point x="395" y="-230"/>
		</contour>
	</outline>
	<anchor name="aboveLC" x="301" y="534"/>
	<anchor name="belowLC" x="304" y="-20"/>
</glyph>
<glyph name="dotlessi" format="2">
	<unicode hex="0131"/>
	<advance width="371"/>
	<outline>
		<contour>
			<point x="34" y="0" type="line"/>
			<point x="340" y="0" type="line"/>
			<point x="340" y="71" type="line"/>
			<point x="230" y="71" type="line"/>
			<point x="144" y="71" type="line"/>
			<point x="34" y="71" type="line"/>
		</contour>
		<contour>
			<point x="101" y="0" type="curve"/>
			<point x="273" y="0" type="line"/>
			<point x="273" y="73"/>
			<point x="273" y="147"/>
			<point x="273" y="220" type="curve" smooth="yes"/>
			<point x="273" y="379" type="line"/>
			<point x="273" y="514" type="line"/>
			<point x="216" y="514" type="line"/>
			<point x="30" y="460" type="line"/>
			<point x="30" y="393" type="line"/>
			<point x="101" y="393" type="line"/>
			<point x="101" y="354"/>
			<point x="101" y="315"/>
			<point x="101" y="276" type="curve" smooth="yes"/>
			<point x="101" y="220" type="line" smooth="yes"/>
			<point x="101" y="147"/>
			<point x="101" y="73"/>
		</contour>
	</outline>
	<anchor name="aboveLC" x="189" y="534"/>
	<anchor name="belowLC" x="194" y="-20"/>
	<anchor name="ogonek" x="233" y="0"/>
</glyph>
<glyph name="lslash" format="2">
	<unicode hex="0142"/>
	<advance width="368"/>
	<outline>
		<contour>
			<point x="213" y="427" type="line"/>
			<point x="38" y="329" type="line"/>
			<point x="38" y="255" type="line"/>
			<point x="213" y="353" type="line"/>
		</contour>
		<contour>
			<point x="335" y="485" type="line"/>
			<point x="156" y="384" type="line"/>
			<point x="156" y="310" type="line"/>
			<point x="335" y="410" type="line"/>
		</contour>
		<component base="l"/>
	</outline>
</glyph>
<glyph name="Uogonek" format="2">
	<unicode hex="0172"/>
	<advance width="782"/>
	<outline>
		<contour>
			<point x="147" y="582" type="line"/>
			<point x="254" y="582" type="line"/>
			<point x="385" y="582" type="line"/>
			<point x="385" y="657" type="line"/>
			<point x="24" y="657" type="line"/>
			<point x="24" y="582" type="line"/>
		</contour>
		<contour>
			<point x="490" y="-230" type="curve" smooth="yes"/>
			<point x="551" y="-230"/>
			<point x="582" y="-207"/>
			<point x="601" y="-193" type="curve"/>
			<point x="583" y="-136" type="line"/>
			<point x="573" y="-139"/>
			<point x="561" y="-142"/>
			<point x="542" y="-142" type="curve" smooth="yes"/>
			<point x="503" y="-142"/>
			<point x="479" y="-120"/>
			<point x="479" y="-87" type="curve" smooth="yes"/>
			<point x="479" y="-48"/>
			<point x="497" y="-19"/>
			<point x="542" y="7" type="curve" smooth="yes"/>
			<point x="631" y="56"/>
			<point x="675" y="130"/>
			<point x="675" y="252" type="curve" smooth="yes"/>
			<point x="675" y="657" type="line"/>
			<point x="596" y="657" type="line"/>
			<point x="596" y="256" type="line" smooth="yes"/>
			<point x="596" y="122"/>
			<point x="539" y="68"/>
			<point x="444" y="68" type="curve" smooth="yes"/>
			<point x="349" y="68"/>
			<point x="293" y="122"/>
			<point x="293" y="256" type="curve" smooth="yes"/>
			<point x="293" y="366" type="line" smooth="yes"/>
			<point x="293" y="463"/>
			<point x="293" y="560"/>
			<point x="293" y="657" type="curve"/>
			<point x="108" y="657" type="line"/>
			<point x="108" y="560"/>
			<point x="108" y="463"/>
			<point x="108" y="366" type="curve" smooth="yes"/>
			<point x="108" y="248" type="line" smooth="yes"/>
			<point x="108" y="67"/>
			<point x="221" y="-11"/>
			<point x="380" y="-11" type="curve" smooth="yes"/>
			<point x="418" y="-11"/>
			<point x="447" y="-3"/>
			<point x="466" y="3" type="curve"/>
			<point x="472" y="-15" type="line"/>
			<point x="409" y="-36"/>
			<point x="368" y="-75"/>
			<point x="368" y="-131" type="curve" smooth="yes"/>
			<point x="368" y="-191"/>
			<point x="412" y="-230"/>
		</contour>
		<contour>
			<point x="623" y="582" type="line"/>
			<point x="648" y="582" type="line"/>
			<point x="758" y="582" type="line"/>
			<point x="758" y="657" type="line"/>
			<point x="504" y="657" type="line"/>
			<point x="504" y="582" type="line"/>
		</contour>
	</outline>
	<anchor name="aboveUC" x="443" y="677"/>
</glyph>
<glyph name="florin" format="2">
	<unicode hex="0192"/>
	<advance width="581"/>
	<outline>
		<contour>
			<point x="145" y="-103" type="curve" smooth="yes"/>
			<point x="201" y="-103"/>
			<point x="242" y="-84"/>
			<point x="273" y="-58" type="curve" smooth="yes"/>
			<point x="304" y="-32"/>
			<point x="351" y="17"/>
			<point x="362" y="173" type="curve" smooth="yes"/>
			<point x="378" y="415" type="line" smooth="yes"/>
			<point x="385" y="510"/>
			<point x="391" y="550"/>
			<point x="398" y="575" type="curve" smooth="yes"/>
			<point x="404" y="594"/>
			<point x="408" y="600"/>
			<point x="413" y="608" type="curve"/>
			<point x="491" y="608" type="line"/>
			<point x="435" y="620" type="line"/>
			<point x="447" y="564" type="line" smooth="yes"/>
			<point x="456" y="522"/>
			<point x="479" y="502"/>
			<point x="519" y="502" type="curve" smooth="yes"/>
			<point x="564" y="502"/>
			<point x="583" y="537"/>
			<point x="587" y="571" type="curve"/>
			<point x="568" y="611"/>
			<point x="527" y="646"/>
			<point x="438" y="646" type="curve" smooth="yes"/>
			<point x="382" y="646"/>
			<point x="340" y="628"/>
			<point x="309" y="601" type="curve" smooth="yes"/>
			<point x="278" y="575"/>
			<point x="233" y="526"/>
			<point x="221" y="370" type="curve" smooth="yes"/>
			<point x="203" y="128" type="line" smooth="yes"/>
			<point x="196" y="33"/>
			<point x="192" y="-12"/>
			<point x="186" y="-31" type="curve" smooth="yes"/>
			<point x="179" y="-49"/>
			<point x="174" y="-57"/>
			<point x="169" y="-65" type="curve" smooth="yes"/>
			<point x="91" y="-65" type="line"/>
			<point x="147" y="-77" type="line"/>
			<point x="136" y="-21" type="line" smooth="yes"/>
			<point x="127" y="21"/>
			<point x="104" y="41"/>
			<point x="64" y="41" type="curve" smooth="yes"/>
			<point x="18" y="41"/>
			<point x="0" y="6"/>
			<point x="-4" y="-28" type="curve"/>
			<point x="15" y="-68"/>
			<point x="56" y="-103"/>
		</contour>
		<contour>
			<point x="129" y="333" type="line"/>
			<point x="496" y="333" type="line"/>
			<point x="496" y="393" type="line"/>
			<point x="129" y="393" type="line"/>
		</contour>
	</outline>
</glyph>
<glyph name="Uhorn" format="2">
	<unicode hex="01AF"/>
	<advance width="782"/>
	<outline>
		<contour>
			<point x="394" y="-16" type="curve" smooth="yes"/>
			<point x="579" y="-16"/>
			<point x="675" y="78"/>
			<point x="675" y="252" type="curve" smooth="yes"/>
			<point x="675" y="657" type="line"/>
			<point x="596" y="657" type="line"/>
			<point x="596" y="256" type="line" smooth="yes"/>
			<point x="596" y="122"/>
			<point x="539" y="65"/>
			<point x="444" y="65" type="curve" smooth="yes"/>
			<point x="349" y="65"/>
			<point x="293" y="122"/>
			<point x="293" y="256" type="curve" smooth="yes"/>
			<point x="293" y="366" type="line" smooth="yes"/>
			<point x="293" y="463"/>
			<point x="293" y="560"/>
			<point x="293" y="657" type="curve"/>
			<point x="108" y="657" type="line"/>
			<point x="108" y="560"/>
			<point x="108" y="463"/>
			<point x="108" y="366" type="curve" smooth="yes"/>
			<point x="108" y="248" type="line" smooth="yes"/>
			<point x="108" y="65"/>
			<point x="221" y="-16"/>
		</contour>
		<contour>
			<point x="654" y="588" type="line"/>
			<point x="738" y="592"/>
			<point x="789" y="654"/>
			<point x="789" y="740" type="curve" smooth="yes"/>
			<point x="789" y="772"/>
			<point x="785" y="798"/>
			<point x="777" y="818" type="curve"/>
			<point x="768" y="821"/>
			<point x="756" y="825"/>
			<point x="735" y="825" type="curve" smooth="yes"/>
			<point x="694" y="825"/>
			<point x="665" y="802"/>
			<point x="665" y="765" type="curve" smooth="yes"/>
			<point x="665" y="726"/>
			<point x="695" y="716"/>
			<point x="695" y="688" type="curve" smooth="yes"/>
			<point x="695" y="667"/>
			<point x="675" y="657"/>
			<point x="634" y="657" type="curve"/>
		</contour>
		<contour>
			<point x="24" y="582" type="line"/>
			<point x="147" y="582" type="line"/>
			<point x="254" y="582" type="line"/>
			<point x="385" y="582" type="line"/>
			<point x="385" y="657" type="line"/>
			<point x="24" y="657" type="line"/>
		</contour>
		<contour>
			<point x="504" y="582" type="line"/>
			<point x="612" y="582" type="line"/>
			<point x="628" y="582" type="line"/>
			<point x="628" y="657" type="line"/>
			<point x="504" y="657" type="line"/>
		</contour>
	</outline>
	<anchor name="aboveUC" x="410" y="677"/>
	<anchor name="belowLC" x="391" y="-20"/>
</glyph>
<glyph name="alphalatin" format="2">
	<unicode hex="0251"/>
	<advance width="672"/>
	<outline>
		<contour>
			<point x="237" y="-15" type="curve" smooth="yes"/>
			<point x="325" y="-15"/>
			<point x="357" y="41"/>
			<point x="380" y="93" type="curve"/>
			<point x="439" y="93" type="line"/>
			<point x="439" y="158" type="line"/>
			<point x="404" y="121"/>
			<point x="367" y="100"/>
			<point x="323" y="100" type="curve" smooth="yes"/>
			<point x="257" y="100"/>
			<point x="217" y="145"/>
			<point x="217" y="259" type="curve" smooth="yes"/>
			<point x="217" y="372"/>
			<point x="257" y="418"/>
			<point x="323" y="418" type="curve" smooth="yes"/>
			<point x="370" y="418"/>
			<point x="407" y="396"/>
			<point x="439" y="360" type="curve"/>
			<point x="439" y="428" type="line"/>
			<point x="391" y="428" type="line"/>
			<point x="365" y="488"/>
			<point x="325" y="528"/>
			<point x="242" y="528" type="curve" smooth="yes"/>
			<point x="123" y="528"/>
			<point x="40" y="427"/>
			<point x="40" y="255" type="curve" smooth="yes"/>
			<point x="40" y="83"/>
			<point x="123" y="-15"/>
		</contour>
		<contour>
			<point x="407" y="103" type="line"/>
			<point x="413" y="103" type="line"/>
			<point x="427" y="25"/>
			<point x="469" y="-12"/>
			<point x="543" y="-12" type="curve" smooth="yes"/>
			<point x="595" y="-12"/>
			<point x="637" y="14"/>
			<point x="659" y="40" type="curve"/>
			<point x="647" y="98" type="line"/>
			<point x="641" y="96"/>
			<point x="633" y="94"/>
			<point x="623" y="94" type="curve" smooth="yes"/>
			<point x="595" y="94"/>
			<point x="579" y="107"/>
			<point x="579" y="139" type="curve" smooth="yes"/>
			<point x="579" y="389" type="line"/>
			<point x="579" y="519" type="line"/>
			<point x="504" y="519" type="line"/>
			<point x="414" y="414" type="line"/>
			<point x="407" y="414" type="line"/>
		</contour>
	</outline>
	<anchor name="aboveLC" x="354" y="534"/>
	<anchor name="belowLC" x="345" y="-20"/>
</glyph>
<glyph name="schwa" format="2">
	<unicode hex="0259"/>
	<advance width="583"/>
	<outline>
		<contour>
			<point x="280" y="-15" type="curve" smooth="yes"/>
			<point x="449" y="-15"/>
			<point x="547" y="92"/>
			<point x="547" y="253" type="curve" smooth="yes"/>
			<point x="547" y="432"/>
			<point x="440" y="528"/>
			<point x="282" y="528" type="curve" smooth="yes"/>
			<point x="165" y="528"/>
			<point x="100" y="476"/>
			<point x="59" y="406" type="curve"/>
			<point x="110" y="369" type="line"/>
			<point x="148" y="414"/>
			<point x="191" y="432"/>
			<point x="253" y="432" type="curve" smooth="yes"/>
			<point x="328" y="432"/>
			<point x="380" y="385"/>
			<point x="380" y="256" type="curve" smooth="yes"/>
			<point x="380" y="95"/>
			<point x="348" y="53"/>
			<point x="282" y="53" type="curve" smooth="yes"/>
			<point x="220" y="53"/>
			<point x="188" y="97"/>
			<point x="188" y="169" type="curve" smooth="yes"/>
			<point x="188" y="190"/>
			<point x="189" y="207"/>
			<point x="191" y="224" type="curve" smooth="yes"/>
			<point x="412" y="224" type="line"/>
			<point x="412" y="279" type="line"/>
			<point x="39" y="279" type="line"/>
			<point x="35" y="256"/>
			<point x="32" y="232"/>
			<point x="32" y="207" type="curve" smooth="yes"/>
			<point x="32" y="63"/>
			<point x="118" y="-15"/>
		</contour>
	</outline>
	<anchor name="aboveLC" x="287" y="534"/>
	<anchor name="belowLC" x="288" y="-20"/>
</glyph>
<glyph name="h.sups" format="2">
	<unicode hex="02B0"/>
	<advance width="499"/>
	<outline>
		<contour>
			<point x="72" y="418" type="line"/>
			<point x="197" y="418" type="line"/>
			<point x="197" y="685" type="line"/>
			<point x="195" y="685" type="line"/>
			<point x="197" y="897" type="line"/>
			<point x="156" y="897" type="line"/>
			<point x="24" y="874" type="line"/>
			<point x="24" y="835" type="line"/>
			<point x="72" y="821" type="line"/>
		</contour>
		<contour>
			<point x="308" y="418" type="line"/>
			<point x="434" y="418" type="line"/>
			<point x="434" y="655" type="line" smooth="yes"/>
			<point x="434" y="732"/>
			<point x="395" y="775"/>
			<point x="326" y="775" type="curve" smooth="yes"/>
			<point x="265" y="775"/>
			<point x="236" y="733"/>
			<point x="219" y="700" type="curve"/>
			<point x="177" y="700" type="line"/>
			<point x="177" y="654" type="line"/>
			<point x="207" y="673"/>
			<point x="233" y="683"/>
			<point x="261" y="683" type="curve" smooth="yes"/>
			<point x="293" y="683"/>
			<point x="308" y="669"/>
			<point x="308" y="634" type="curve" smooth="yes"/>
		</contour>
		<contour>
			<point x="27" y="418" type="line"/>
			<point x="233" y="418" type="line"/>
			<point x="233" y="469" type="line"/>
			<point x="166" y="469" type="line"/>
			<point x="103" y="469" type="line"/>
			<point x="27" y="469" type="line"/>
		</contour>
		<contour>
			<point x="273" y="418" type="line"/>
			<point x="478" y="418" type="line"/>
			<point x="478" y="469" type="line"/>
			<point x="402" y="469" type="line"/>
			<point x="339" y="469" type="line"/>
			<point x="273" y="469" type="line"/>
		</contour>
	</outline>
</glyph>
<glyph name="j.sups" format="2">
	<unicode hex="02B2"/>
	<advance width="251"/>
	<outline>
		<contour>
			<point x="41" y="262" type="curve" smooth="yes"/>
			<point x="93" y="262"/>
			<point x="131" y="285"/>
			<point x="153" y="318" type="curve" smooth="yes"/>
			<point x="177" y="353"/>
			<point x="188" y="396"/>
			<point x="188" y="483" type="curve" smooth="yes"/>
			<point x="188" y="765" type="line"/>
			<point x="148" y="765" type="line"/>
			<point x="16" y="726" type="line"/>
			<point x="16" y="679" type="line"/>
			<point x="63" y="679" type="line"/>
			<point x="63" y="529" type="line" smooth="yes"/>
			<point x="63" y="429"/>
			<point x="76" y="378"/>
			<point x="75" y="324" type="curve" smooth="yes"/>
			<point x="75" y="312"/>
			<point x="74" y="301"/>
			<point x="72" y="289" type="curve"/>
			<point x="87" y="301" type="line"/>
			<point x="40" y="301" type="line"/>
			<point x="60" y="291" type="line"/>
			<point x="54" y="317" type="line" smooth="yes"/>
			<point x="46" y="349"/>
			<point x="31" y="368"/>
			<point x="-1" y="368" type="curve" smooth="yes"/>
			<point x="-30" y="368"/>
			<point x="-48" y="349"/>
			<point x="-53" y="314" type="curve"/>
			<point x="-44" y="279"/>
			<point x="-15" y="262"/>
		</contour>
		<contour>
			<point x="124" y="805" type="curve" smooth="yes"/>
			<point x="162" y="805"/>
			<point x="188" y="831"/>
			<point x="188" y="867" type="curve" smooth="yes"/>
			<point x="188" y="902"/>
			<point x="162" y="928"/>
			<point x="124" y="928" type="curve" smooth="yes"/>
			<point x="87" y="928"/>
			<point x="60" y="902"/>
			<point x="60" y="867" type="curve" smooth="yes"/>
			<point x="60" y="831"/>
			<point x="87" y="805"/>
		</contour>
	</outline>
</glyph>
<glyph name="r.sups" format="2">
	<unicode hex="02B3"/>
	<advance width="381"/>
	<outline>
		<contour>
			<point x="74" y="405" type="line"/>
			<point x="199" y="405" type="line"/>
			<point x="199" y="663" type="line"/>
			<point x="188" y="663" type="line"/>
			<point x="179" y="751" type="line"/>
			<point x="142" y="751" type="line"/>
			<point x="27" y="712" type="line"/>
			<point x="27" y="666" type="line"/>
			<point x="74" y="666" type="line"/>
		</contour>
		<contour>
			<point x="179" y="591" type="line"/>
			<point x="196" y="635"/>
			<point x="229" y="665"/>
			<point x="277" y="676" type="curve"/>
			<point x="238" y="676" type="line"/>
			<point x="243" y="671" type="line" smooth="yes"/>
			<point x="257" y="650"/>
			<point x="277" y="639"/>
			<point x="301" y="639" type="curve" smooth="yes"/>
			<point x="337" y="639"/>
			<point x="360" y="665"/>
			<point x="365" y="702" type="curve"/>
			<point x="358" y="737"/>
			<point x="335" y="758"/>
			<point x="300" y="758" type="curve" smooth="yes"/>
			<point x="254" y="758"/>
			<point x="229" y="733"/>
			<point x="211" y="668" type="curve"/>
			<point x="179" y="668" type="line"/>
		</contour>
		<contour>
			<point x="30" y="405" type="line"/>
			<point x="258" y="405" type="line"/>
			<point x="258" y="455" type="line"/>
			<point x="168" y="455" type="line"/>
			<point x="105" y="455" type="line"/>
			<point x="30" y="455" type="line"/>
		</contour>
	</outline>
</glyph>
<glyph name="w.sups" format="2">
	<unicode hex="02B7"/>
	<advance width="643"/>
	<outline>
		<contour>
			<point x="160" y="418" type="line"/>
			<point x="253" y="418" type="line"/>
			<point x="308" y="588" type="line"/>
			<point x="322" y="681" type="line"/>
			<point x="328" y="681" type="line"/>
			<point x="399" y="418" type="line"/>
			<point x="484" y="418" type="line"/>
			<point x="610" y="765" type="line"/>
			<point x="543" y="765" type="line"/>
			<point x="505" y="619" type="line"/>
			<point x="484" y="492" type="line"/>
			<point x="476" y="492" type="line"/>
			<point x="397" y="765" type="line"/>
			<point x="313" y="765" type="line"/>
			<point x="262" y="604" type="line"/>
			<point x="245" y="492" type="line"/>
			<point x="238" y="492" type="line"/>
			<point x="167" y="765" type="line"/>
			<point x="42" y="765" type="line"/>
		</contour>
		<contour>
			<point x="22" y="718" type="line"/>
			<point x="92" y="708" type="line"/>
			<point x="153" y="708" type="line"/>
			<point x="223" y="718" type="line"/>
			<point x="223" y="765" type="line"/>
			<point x="22" y="765" type="line"/>
		</contour>
		<contour>
			<point x="257" y="718" type="line"/>
			<point x="332" y="710" type="line"/>
			<point x="393" y="710" type="line"/>
			<point x="453" y="718" type="line"/>
			<point x="453" y="765" type="line"/>
			<point x="257" y="765" type="line"/>
		</contour>
		<contour>
			<point x="487" y="718" type="line"/>
			<point x="548" y="708" type="line"/>
			<point x="569" y="708" type="line"/>
			<point x="626" y="718" type="line"/>
			<point x="626" y="765" type="line"/>
			<point x="487" y="765" type="line"/>
		</contour>
	</outline>
</glyph>
<glyph name="y.sups" format="2">
	<unicode hex="02B8"/>
	<advance width="461"/>
	<outline>
		<contour>
			<point x="110" y="248" type="curve" smooth="yes"/>
			<point x="208" y="248"/>
			<point x="253" y="313"/>
			<point x="286" y="397" type="curve" smooth="yes"/>
			<point x="421" y="751" type="line"/>
			<point x="355" y="751" type="line"/>
			<point x="270" y="467" type="line"/>
			<point x="240" y="393" type="line" smooth="yes"/>
			<point x="219" y="347"/>
			<point x="195" y="309"/>
			<point x="173" y="290" type="curve"/>
			<point x="138" y="290" type="line"/>
			<point x="160" y="277" type="line"/>
			<point x="144" y="307" type="line" smooth="yes"/>
			<point x="131" y="329"/>
			<point x="115" y="351"/>
			<point x="77" y="351" type="curve" smooth="yes"/>
			<point x="43" y="351"/>
			<point x="23" y="328"/>
			<point x="17" y="301" type="curve"/>
			<point x="25" y="274"/>
			<point x="56" y="248"/>
		</contour>
		<contour>
			<point x="22" y="704" type="line"/>
			<point x="92" y="694" type="line"/>
			<point x="176" y="694" type="line"/>
			<point x="246" y="704" type="line"/>
			<point x="246" y="751" type="line"/>
			<point x="22" y="751" type="line"/>
		</contour>
		<contour>
			<point x="289" y="704" type="line"/>
			<point x="356" y="694" type="line"/>
			<point x="372" y="694" type="line"/>
			<point x="440" y="704" type="line"/>
			<point x="440" y="751" type="line"/>
			<point x="289" y="751" type="line"/>
		</contour>
		<contour>
			<point x="214" y="332" type="line"/>
			<point x="296" y="476" type="line"/>
			<point x="254" y="476" type="line"/>
			<point x="180" y="751" type="line"/>
			<point x="43" y="751" type="line"/>
		</contour>
	</outline>
</glyph>
<glyph name="tildecmb" format="2">
	<unicode hex="0303"/>
	<outline>
		<contour>
			<point x="-195" y="593" type="curve"/>
			<point x="-122" y="579" type="line"/>
			<point x="-112" y="632"/>
			<point x="-96" y="646"/>
			<point x="-73" y="646" type="curve" smooth="yes"/>
			<point x="-49" y="646"/>
			<point x="-31" y="628"/>
			<point x="-7" y="612" type="curve" smooth="yes"/>
			<point x="26" y="592"/>
			<point x="47" y="578"/>
			<point x="86" y="578" type="curve" smooth="yes"/>
			<point x="145" y="578"/>
			<point x="189" y="613"/>
			<point x="195" y="733" type="curve"/>
			<point x="122" y="746" type="line"/>
			<point x="113" y="694"/>
			<point x="96" y="680"/>
			<point x="73" y="680" type="curve" smooth="yes"/>
			<point x="49" y="680"/>
			<point x="30" y="697"/>
			<point x="7" y="713" type="curve" smooth="yes"/>
			<point x="-22" y="733"/>
			<point x="-45" y="748"/>
			<point x="-81" y="748" type="curve" smooth="yes"/>
			<point x="-147" y="748"/>
			<point x="-190" y="711"/>
		</contour>
	</outline>
	<anchor name="_aboveLC" x="0" y="534"/>
	<anchor name="aboveLC" x="0" y="748"/>
</glyph>
<glyph name="dotaccentcmb" format="2">
	<unicode hex="0307"/>
	<outline>
		<contour>
			<point x="0" y="584" type="curve" smooth="yes"/>
			<point x="53" y="584"/>
			<point x="90" y="620"/>
			<point x="90" y="670" type="curve" smooth="yes"/>
			<point x="90" y="720"/>
			<point x="53" y="757"/>
			<point x="0" y="757" type="curve" smooth="yes"/>
			<point x="-53" y="757"/>
			<point x="-91" y="720"/>
			<point x="-91" y="670" type="curve" smooth="yes"/>
			<point x="-91" y="620"/>
			<point x="-53" y="584"/>
		</contour>
	</outline>
	<anchor name="_aboveLC" x="0" y="534"/>
	<anchor name="aboveLC" x="0" y="757"/>
</glyph>
<glyph name="caroncmb" format="2">
	<unicode hex="030C"/>
	<outline>
		<contour>
			<point x="-122" y="789" type="line"/>
			<point x="-165" y="754" type="line"/>
			<point x="-38" y="584" type="line"/>
			<point x="38" y="584" type="line"/>
			<point x="165" y="754" type="line"/>
			<point x="122" y="789" type="line"/>
			<point x="-48" y="649" type="line"/>
			<point x="48" y="649" type="line"/>
		</contour>
	</outline>
	<anchor name="_aboveLC" x="0" y="534"/>
	<anchor name="aboveLC" x="0" y="789"/>
</glyph>
<glyph name="commabelowcmb" format="2">
	<unicode hex="0326"/>
	<outline>
		<contour>
			<point x="71" y="-121" type="curve" smooth="yes"/>
			<point x="71" y="-93"/>
			<point x="66" y="-75"/>
			<point x="60" y="-63" type="curve"/>
			<point x="48" y="-52"/>
			<point x="28" y="-44"/>
			<point x="4" y="-44" type="curve" smooth="yes"/>
			<point x="-45" y="-44"/>
			<point x="-74" y="-73"/>
			<point x="-74" y="-115" type="curve" smooth="yes"/>
			<point x="-74" y="-154"/>
			<point x="-47" y="-182"/>
			<point x="8" y="-202" type="curve"/>
			<point x="6" y="-152" type="line"/>
			<point x="-13" y="-190"/>
			<point x="-32" y="-210"/>
			<point x="-79" y="-225" type="curve"/>
			<point x="-60" y="-272" type="line"/>
			<point x="23" y="-249"/>
			<point x="71" y="-202"/>
		</contour>
	</outline>
	<anchor name="_belowLC" x="0" y="-20"/>
	<anchor name="belowLC" x="1" y="-277"/>
</glyph>
<glyph name="ogonekcmb" format="2">
	<unicode hex="0328"/>
	<outline>
		<contour>
			<point x="-11" y="-230" type="curve" smooth="yes"/>
			<point x="50" y="-230"/>
			<point x="81" y="-207"/>
			<point x="100" y="-193" type="curve"/>
			<point x="82" y="-136" type="line"/>
			<point x="72" y="-139"/>
			<point x="60" y="-142"/>
			<point x="41" y="-142" type="curve" smooth="yes"/>
			<point x="2" y="-142"/>
			<point x="-22" y="-120"/>
			<point x="-22" y="-87" type="curve" smooth="yes"/>
			<point x="-22" y="-50"/>
			<point x="1" y="-22"/>
			<point x="43" y="9" type="curve"/>
			<point x="-24" y="9" type="line"/>
			<point x="-24" y="-26" type="line"/>
			<point x="-81" y="-36"/>
			<point x="-132" y="-63"/>
			<point x="-132" y="-131" type="curve" smooth="yes"/>
			<point x="-132" y="-191"/>
			<point x="-89" y="-230"/>
		</contour>
	</outline>
	<anchor name="_ogonek" x="0" y="0"/>
</glyph>
<glyph name="verticallinebelowcmb" format="2">
	<unicode hex="0329"/>
	<outline>
		<contour>
			<point x="-64" y="-268" type="line"/>
			<point x="64" y="-268" type="line"/>
			<point x="51" y="-66" type="line"/>
			<point x="-51" y="-66" type="line"/>
		</contour>
	</outline>
	<anchor name="_belowLC" x="0" y="-20"/>
	<anchor name="belowLC" x="0" y="-268"/>
</glyph>
<glyph name="Xi" format="2">
	<unicode hex="039E"/>
	<advance width="646"/>
	<outline>
		<contour>
			<point x="46" y="0" type="line"/>
			<point x="599" y="0" type="line"/>
			<point x="603" y="195" type="line"/>
			<point x="525" y="195" type="line"/>
			<point x="475" y="27" type="line"/>
			<point x="532" y="107" type="line"/>
			<point x="114" y="107" type="line"/>
			<point x="171" y="27" type="line"/>
			<point x="120" y="195" type="line"/>
			<point x="42" y="195" type="line"/>
		</contour>
		<contour>
			<point x="148" y="233" type="line"/>
			<point x="218" y="233" type="line"/>
			<point x="245" y="320" type="line"/>
			<point x="245" y="350" type="line"/>
			<point x="218" y="437" type="line"/>
			<point x="148" y="437" type="line"/>
		</contour>
		<contour>
			<point x="193" y="291" type="line"/>
			<point x="453" y="291" type="line"/>
			<point x="453" y="378" type="line"/>
			<point x="193" y="378" type="line"/>
		</contour>
		<contour>
			<point x="428" y="233" type="line"/>
			<point x="498" y="233" type="line"/>
			<point x="498" y="437" type="line"/>
			<point x="428" y="437" type="line"/>
			<point x="401" y="350" type="line"/>
			<point x="401" y="320" type="line"/>
		</contour>
		<contour>
			<point x="54" y="480" type="line"/>
			<point x="132" y="480" type="line"/>
			<point x="187" y="630" type="line"/>
			<point x="124" y="557" type="line"/>
			<point x="521" y="557" type="line"/>
			<point x="459" y="630" type="line"/>
			<point x="513" y="480" type="line"/>
			<point x="591" y="480" type="line"/>
			<point x="583" y="657" type="line"/>
			<point x="62" y="657" type="line"/>
		</contour>
	</outline>
</glyph>
<glyph name="Sigma" format="2">
	<unicode hex="03A3"/>
	<advance width="594"/>
	<outline>
		<contour>
			<point x="470" y="465" type="line"/>
			<point x="548" y="465" type="line"/>
			<point x="540" y="657" type="line"/>
			<point x="129" y="657" type="line"/>
			<point x="129" y="589" type="line"/>
			<point x="478" y="589" type="line"/>
			<point x="422" y="630" type="line"/>
		</contour>
		<contour>
			<point x="552" y="0" type="line"/>
			<point x="560" y="236" type="line"/>
			<point x="482" y="236" type="line"/>
			<point x="439" y="27" type="line"/>
			<point x="484" y="114" type="line"/>
			<point x="158" y="114" type="line"/>
			<point x="158" y="134" type="line"/>
			<point x="406" y="368" type="line"/>
			<point x="237" y="566" type="line"/>
			<point x="237" y="657" type="line"/>
			<point x="22" y="657" type="line"/>
			<point x="22" y="574" type="line"/>
			<point x="268" y="315" type="line"/>
			<point x="268" y="337" type="line"/>
			<point x="26" y="110" type="line"/>
			<point x="26" y="0" type="line"/>
		</contour>
	</outline>
</glyph>
<glyph name="Omega" format="2">
	<unicode hex="03A9"/>
	<unicode hex="2126"/>
	<advance width="810"/>
	<outline>
		<contour>
			<point x="46" y="0" type="line"/>
			<point x="355" y="0" type="line"/>
			<point x="355" y="171" type="line"/>
			<point x="282" y="223"/>
			<point x="246" y="277"/>
			<point x="246" y="414" type="curve" smooth="yes"/>
			<point x="246" y="522"/>
			<point x="301" y="604"/>
			<point x="405" y="604" type="curve" smooth="yes"/>
			<point x="509" y="604"/>
			<point x="564" y="522"/>
			<point x="564" y="414" type="curve" smooth="yes"/>
			<point x="564" y="277"/>
			<point x="528" y="223"/>
			<point x="455" y="171" type="curve"/>
			<point x="455" y="0" type="line"/>
			<point x="764" y="0" type="line"/>
			<point x="778" y="179" type="line"/>
			<point x="705" y="179" type="line"/>
			<point x="641" y="8" type="line"/>
			<point x="728" y="87" type="line"/>
			<point x="510" y="87" type="line"/>
			<point x="545" y="16" type="line"/>
			<point x="545" y="141" type="line"/>
			<point x="645" y="168"/>
			<point x="749" y="239"/>
			<point x="749" y="394" type="curve" smooth="yes"/>
			<point x="749" y="555"/>
			<point x="621" y="673"/>
			<point x="405" y="673" type="curve" smooth="yes"/>
			<point x="189" y="673"/>
			<point x="61" y="555"/>
			<point x="61" y="394" type="curve" smooth="yes"/>
			<point x="61" y="239"/>
			<point x="165" y="168"/>
			<point x="265" y="141" type="curve"/>
			<point x="265" y="16" type="line"/>
			<point x="300" y="87" type="line"/>
			<point x="82" y="87" type="line"/>
			<point x="169" y="8" type="line"/>
			<point x="105" y="179" type="line"/>
			<point x="32" y="179" type="line"/>
		</contour>
	</outline>
</glyph>
<glyph name="alpha" format="2">
	<unicode hex="03B1"/>
	<advance width="683"/>
	<outline>
		<contour>
			<point x="248" y="-15" type="curve" smooth="yes"/>
			<point x="360" y="-15"/>
			<point x="397" y="53"/>
			<point x="411" y="108" type="curve"/>
			<point x="441" y="108" type="line"/>
			<point x="449" y="27"/>
			<point x="499" y="-15"/>
			<point x="571" y="-15" type="curve" smooth="yes"/>
			<point x="624" y="-15"/>
			<point x="660" y="8"/>
			<point x="678" y="40" type="curve"/>
			<point x="658" y="93" type="line"/>
			<point x="651" y="90"/>
			<point x="643" y="85"/>
			<point x="627" y="85" type="curve" smooth="yes"/>
			<point x="595" y="85"/>
			<point x="576" y="104"/>
			<point x="575" y="147" type="curve" smooth="yes"/>
			<point x="573" y="202"/>
			<point x="583" y="350"/>
			<point x="602" y="490" type="curve"/>
			<point x="560" y="528" type="line"/>
			<point x="421" y="504" type="line"/>
			<point x="418" y="412" type="line"/>
			<point x="410" y="245" type="line"/>
			<point x="405" y="135"/>
			<point x="367" y="79"/>
			<point x="311" y="79" type="curve" smooth="yes"/>
			<point x="255" y="79"/>
			<point x="215" y="124"/>
			<point x="215" y="240" type="curve" smooth="yes"/>
			<point x="215" y="359"/>
			<point x="251" y="435"/>
			<point x="323" y="435" type="curve" smooth="yes"/>
			<point x="386" y="435"/>
			<point x="418" y="407"/>
			<point x="441" y="373" type="curve"/>
			<point x="439" y="444" type="line"/>
			<point x="382" y="444" type="line"/>
			<point x="364" y="488"/>
			<point x="334" y="528"/>
			<point x="253" y="528" type="curve" smooth="yes"/>
			<point x="120" y="528"/>
			<point x="41" y="407"/>
			<point x="41" y="235" type="curve" smooth="yes"/>
			<point x="41" y="68"/>
			<point x="128" y="-15"/>
		</contour>
	</outline>
	<anchor name="aboveLC" x="342" y="534"/>
	<anchor name="belowLC" x="358" y="-20"/>
</glyph>
<glyph name="gamma" format="2">
	<unicode hex="03B3"/>
	<advance width="605"/>
	<outline>
		<contour>
			<point x="205" y="-168" type="line"/>
			<point x="237" y="-195" type="line"/>
			<point x="409" y="-162" type="line"/>
			<point x="379" y="46" type="line"/>
			<point x="348" y="46" type="line"/>
			<point x="338" y="163"/>
			<point x="314" y="293"/>
			<point x="293" y="395" type="curve" smooth="yes"/>
			<point x="272" y="495"/>
			<point x="221" y="528"/>
			<point x="141" y="528" type="curve" smooth="yes"/>
			<point x="74" y="528"/>
			<point x="26" y="493"/>
			<point x="4" y="468" type="curve"/>
			<point x="28" y="412" type="line"/>
			<point x="35" y="416"/>
			<point x="45" y="420"/>
			<point x="59" y="420" type="curve" smooth="yes"/>
			<point x="89" y="420"/>
			<point x="103" y="409"/>
			<point x="132" y="328" type="curve" smooth="yes"/>
			<point x="166" y="229"/>
			<point x="204" y="106"/>
			<point x="236" y="-36" type="curve"/>
			<point x="237" y="38" type="line"/>
		</contour>
		<contour>
			<point x="376" y="-31" type="line"/>
			<point x="490" y="135"/>
			<point x="571" y="297"/>
			<point x="571" y="439" type="curve" smooth="yes"/>
			<point x="571" y="474"/>
			<point x="568" y="497"/>
			<point x="563" y="515" type="curve"/>
			<point x="552" y="522"/>
			<point x="535" y="528"/>
			<point x="512" y="528" type="curve" smooth="yes"/>
			<point x="451" y="528"/>
			<point x="414" y="490"/>
			<point x="414" y="427" type="curve" smooth="yes"/>
			<point x="414" y="369"/>
			<point x="438" y="329"/>
			<point x="492" y="233" type="curve"/>
			<point x="486" y="364" type="line"/>
			<point x="457" y="234"/>
			<point x="415" y="121"/>
			<point x="357" y="21" type="curve"/>
		</contour>
	</outline>
</glyph>
<glyph name="epsilon" format="2">
	<unicode hex="03B5"/>
	<advance width="525"/>
	<outline>
		<contour>
			<point x="252" y="-15" type="curve" smooth="yes"/>
			<point x="398" y="-15"/>
			<point x="456" y="39"/>
			<point x="502" y="92" type="curve"/>
			<point x="456" y="140" type="line"/>
			<point x="424" y="104"/>
			<point x="382" y="72"/>
			<point x="315" y="72" type="curve" smooth="yes"/>
			<point x="245" y="72"/>
			<point x="208" y="101"/>
			<point x="208" y="152" type="curve" smooth="yes"/>
			<point x="208" y="204"/>
			<point x="245" y="237"/>
			<point x="311" y="237" type="curve" smooth="yes"/>
			<point x="338" y="237"/>
			<point x="356" y="234"/>
			<point x="372" y="232" type="curve"/>
			<point x="372" y="308" type="line"/>
			<point x="353" y="306"/>
			<point x="334" y="303"/>
			<point x="304" y="303" type="curve" smooth="yes"/>
			<point x="240" y="303"/>
			<point x="205" y="335"/>
			<point x="205" y="388" type="curve" smooth="yes"/>
			<point x="205" y="441"/>
			<point x="238" y="476"/>
			<point x="312" y="476" type="curve" smooth="yes"/>
			<point x="358" y="476"/>
			<point x="392" y="468"/>
			<point x="417" y="460" type="curve"/>
			<point x="380" y="490" type="line"/>
			<point x="302" y="504" type="line"/>
			<point x="332" y="456" type="line" smooth="yes"/>
			<point x="363" y="404"/>
			<point x="388" y="388"/>
			<point x="427" y="388" type="curve" smooth="yes"/>
			<point x="466" y="388"/>
			<point x="489" y="415"/>
			<point x="493" y="458" type="curve"/>
			<point x="467" y="490"/>
			<point x="404" y="528"/>
			<point x="276" y="528" type="curve" smooth="yes"/>
			<point x="126" y="528"/>
			<point x="45" y="476"/>
			<point x="45" y="391" type="curve" smooth="yes"/>
			<point x="45" y="305"/>
			<point x="126" y="279"/>
			<point x="237" y="279" type="curve"/>
			<point x="237" y="257" type="line"/>
			<point x="105" y="255"/>
			<point x="29" y="220"/>
			<point x="29" y="131" type="curve" smooth="yes"/>
			<point x="29" y="42"/>
			<point x="113" y="-15"/>
		</contour>
	</outline>
	<anchor name="aboveLC" x="286" y="534"/>
	<anchor name="belowLC" x="272" y="-20"/>
</glyph>
<glyph name="eta" format="2">
	<unicode hex="03B7"/>
	<advance width="683"/>
	<outline>
		<contour>
			<point x="91" y="12" type="line"/>
			<point x="120" y="-15" type="line"/>
			<point x="279" y="11" type="line"/>
			<point x="271" y="394" type="line"/>
			<point x="257" y="394" type="line" smooth="yes"/>
			<point x="252" y="483"/>
			<point x="206" y="528"/>
			<point x="125" y="528" type="curve" smooth="yes"/>
			<point x="61" y="528"/>
			<point x="19" y="500"/>
			<point x="-5" y="473" type="curve"/>
			<point x="19" y="421" type="line"/>
			<point x="28" y="426"/>
			<point x="40" y="431"/>
			<point x="56" y="431" type="curve" smooth="yes"/>
			<point x="84" y="431"/>
			<point x="99" y="415"/>
			<point x="99" y="380" type="curve" smooth="yes"/>
			<point x="99" y="223" type="line"/>
		</contour>
		<contour>
			<point x="429" y="-168" type="line"/>
			<point x="459" y="-195" type="line"/>
			<point x="618" y="-162" type="line"/>
			<point x="610" y="355" type="line" smooth="yes"/>
			<point x="608" y="468"/>
			<point x="555" y="528"/>
			<point x="455" y="528" type="curve" smooth="yes"/>
			<point x="368" y="528"/>
			<point x="324" y="478"/>
			<point x="286" y="422" type="curve"/>
			<point x="241" y="422" type="line"/>
			<point x="241" y="357" type="line"/>
			<point x="285" y="388"/>
			<point x="326" y="405"/>
			<point x="366" y="405" type="curve" smooth="yes"/>
			<point x="415" y="405"/>
			<point x="437" y="381"/>
			<point x="437" y="325" type="curve" smooth="yes"/>
			<point x="437" y="73" type="line"/>
		</contour>
	</outline>
	<anchor name="aboveLC" x="349" y="534"/>
	<anchor name="belowLC" x="170" y="-20"/>
</glyph>
<glyph name="sigma" format="2">
	<unicode hex="03C3"/>
	<advance width="655"/>
	<outline>
		<contour>
			<point x="318" y="-15" type="curve" smooth="yes"/>
			<point x="472" y="-15"/>
			<point x="600" y="72"/>
			<point x="600" y="211" type="curve" smooth="yes"/>
			<point x="600" y="362"/>
			<point x="462" y="412"/>
			<point x="358" y="440" type="curve"/>
			<point x="318" y="428" type="line"/>
			<point x="375" y="404"/>
			<point x="422" y="346"/>
			<point x="422" y="236" type="curve" smooth="yes"/>
			<point x="422" y="109"/>
			<point x="385" y="56"/>
			<point x="321" y="56" type="curve" smooth="yes"/>
			<point x="257" y="56"/>
			<point x="217" y="110"/>
			<point x="217" y="230" type="curve" smooth="yes"/>
			<point x="217" y="333"/>
			<point x="275" y="401"/>
			<point x="366" y="421" type="curve"/>
			<point x="374" y="456" type="line"/>
			<point x="648" y="388" type="line"/>
			<point x="645" y="527" type="line"/>
			<point x="357" y="514" type="line" smooth="yes"/>
			<point x="160" y="504"/>
			<point x="37" y="404"/>
			<point x="40" y="229" type="curve" smooth="yes"/>
			<point x="42" y="71"/>
			<point x="157" y="-15"/>
		</contour>
	</outline>
</glyph>
<glyph name="upsilon" format="2">
	<unicode hex="03C5"/>
	<advance width="592"/>
	<outline>
		<contour>
			<point x="298" y="-15" type="curve" smooth="yes"/>
			<point x="441" y="-15"/>
			<point x="540" y="62"/>
			<point x="540" y="298" type="curve" smooth="yes"/>
			<point x="540" y="384"/>
			<point x="536" y="464"/>
			<point x="519" y="512" type="curve"/>
			<point x="503" y="523"/>
			<point x="488" y="528"/>
			<point x="464" y="528" type="curve" smooth="yes"/>
			<point x="403" y="528"/>
			<point x="374" y="489"/>
			<point x="374" y="434" type="curve" smooth="yes"/>
			<point x="374" y="365"/>
			<point x="407" y="327"/>
			<point x="479" y="230" type="curve"/>
			<point x="473" y="353" type="line"/>
			<point x="449" y="353" type="line"/>
			<point x="453" y="323"/>
			<point x="457" y="291"/>
			<point x="457" y="257" type="curve" smooth="yes"/>
			<point x="457" y="116"/>
			<point x="410" y="56"/>
			<point x="337" y="56" type="curve" smooth="yes"/>
			<point x="273" y="56"/>
			<point x="241" y="96"/>
			<point x="241" y="162" type="curve" smooth="yes"/>
			<point x="241" y="231"/>
			<point x="268" y="321"/>
			<point x="268" y="405" type="curve" smooth="yes"/>
			<point x="268" y="481"/>
			<point x="216" y="526"/>
			<point x="133" y="526" type="curve" smooth="yes"/>
			<point x="70" y="526"/>
			<point x="26" y="496"/>
			<point x="4" y="470" type="curve"/>
			<point x="28" y="418" type="line"/>
			<point x="37" y="423"/>
			<point x="47" y="428"/>
			<point x="63" y="428" type="curve" smooth="yes"/>
			<point x="91" y="428"/>
			<point x="107" y="412"/>
			<point x="107" y="375" type="curve" smooth="yes"/>
			<point x="107" y="329"/>
			<point x="87" y="245"/>
			<point x="87" y="173" type="curve" smooth="yes"/>
			<point x="87" y="50"/>
			<point x="166" y="-15"/>
		</contour>
	</outline>
	<anchor name="aboveLC" x="307" y="534"/>
</glyph>
<glyph name="phi" format="2">
	<unicode hex="03C6"/>
	<advance width="821"/>
	<outline>
		<contour>
			<point x="320" y="-168" type="line"/>
			<point x="349" y="-195" type="line"/>
			<point x="501" y="-169" type="line"/>
			<point x="474" y="28" type="line"/>
			<point x="454" y="658" type="line"/>
			<point x="366" y="658" type="line"/>
			<point x="347" y="28" type="line"/>
		</contour>
		<contour>
			<point x="383" y="-3" type="curve"/>
			<point x="383" y="59" type="line"/>
			<point x="265" y="59"/>
			<point x="211" y="127"/>
			<point x="211" y="257" type="curve" smooth="yes"/>
			<point x="211" y="387"/>
			<point x="265" y="455"/>
			<point x="383" y="455" type="curve"/>
			<point x="383" y="516" type="line"/>
			<point x="164" y="516"/>
			<point x="40" y="425"/>
			<point x="40" y="254" type="curve" smooth="yes"/>
			<point x="40" y="84"/>
			<point x="164" y="-3"/>
		</contour>
		<contour>
			<point x="438" y="-3" type="line"/>
			<point x="657" y="-3"/>
			<point x="781" y="89"/>
			<point x="781" y="259" type="curve" smooth="yes"/>
			<point x="781" y="430"/>
			<point x="657" y="516"/>
			<point x="438" y="516" type="curve"/>
			<point x="438" y="455" type="line"/>
			<point x="555" y="455"/>
			<point x="609" y="387"/>
			<point x="609" y="257" type="curve" smooth="yes"/>
			<point x="609" y="127"/>
			<point x="555" y="59"/>
			<point x="438" y="59" type="curve"/>
		</contour>
	</outline>
</glyph>
<glyph name="psi" format="2">
	<unicode hex="03C8"/>
	<advance width="805"/>
	<outline>
		<contour>
			<point x="384" y="-195" type="line"/>
			<point x="535" y="-169" type="line"/>
			<point x="508" y="28" type="line"/>
			<point x="489" y="658" type="line"/>
			<point x="400" y="658" type="line"/>
			<point x="381" y="28" type="line"/>
			<point x="354" y="-168" type="line"/>
		</contour>
		<contour>
			<point x="423" y="0" type="curve"/>
			<point x="423" y="64" type="line"/>
			<point x="300" y="64"/>
			<point x="249" y="112"/>
			<point x="249" y="203" type="curve" smooth="yes"/>
			<point x="249" y="264"/>
			<point x="268" y="341"/>
			<point x="268" y="408" type="curve" smooth="yes"/>
			<point x="268" y="484"/>
			<point x="216" y="528"/>
			<point x="133" y="528" type="curve" smooth="yes"/>
			<point x="70" y="528"/>
			<point x="26" y="499"/>
			<point x="4" y="473" type="curve"/>
			<point x="28" y="421" type="line"/>
			<point x="37" y="426"/>
			<point x="47" y="431"/>
			<point x="63" y="431" type="curve" smooth="yes"/>
			<point x="91" y="431"/>
			<point x="107" y="415"/>
			<point x="107" y="377" type="curve" smooth="yes"/>
			<point x="107" y="332"/>
			<point x="95" y="261"/>
			<point x="95" y="203" type="curve" smooth="yes"/>
			<point x="95" y="61"/>
			<point x="196" y="0"/>
		</contour>
		<contour>
			<point x="460" y="0" type="line"/>
			<point x="656" y="0"/>
			<point x="757" y="91"/>
			<point x="757" y="366" type="curve" smooth="yes"/>
			<point x="757" y="425"/>
			<point x="752" y="480"/>
			<point x="742" y="512" type="curve"/>
			<point x="729" y="522"/>
			<point x="709" y="528"/>
			<point x="685" y="528" type="curve" smooth="yes"/>
			<point x="633" y="528"/>
			<point x="597" y="494"/>
			<point x="597" y="432" type="curve" smooth="yes"/>
			<point x="597" y="375"/>
			<point x="622" y="335"/>
			<point x="686" y="229" type="curve"/>
			<point x="686" y="353" type="line"/>
			<point x="662" y="353" type="line"/>
			<point x="666" y="323"/>
			<point x="670" y="291"/>
			<point x="670" y="257" type="curve" smooth="yes"/>
			<point x="670" y="125"/>
			<point x="611" y="64"/>
			<point x="460" y="64" type="curve"/>
		</contour>
	</outline>
</glyph>
<glyph name="iotadieresis" format="2">
	<unicode hex="03CA"/>
	<advance width="348"/>
	<outline>
		<contour>
			<point x="78" y="588" type="curve" smooth="yes"/>
			<point x="124" y="588"/>
			<point x="161" y="624"/>
			<point x="161" y="670" type="curve" smooth="yes"/>
			<point x="161" y="716"/>
			<point x="124" y="753"/>
			<point x="78" y="753" type="curve" smooth="yes"/>
			<point x="33" y="753"/>
			<point x="-4" y="716"/>
			<point x="-4" y="670" type="curve" smooth="yes"/>
			<point x="-4" y="624"/>
			<point x="33" y="588"/>
		</contour>
		<contour>
			<point x="293" y="588" type="curve" smooth="yes"/>
			<point x="339" y="588"/>
			<point x="375" y="624"/>
			<point x="375" y="670" type="curve" smooth="yes"/>
			<point x="375" y="716"/>
			<point x="339" y="753"/>
			<point x="293" y="753" type="curve" smooth="yes"/>
			<point x="247" y="753"/>
			<point x="210" y="716"/>
			<point x="210" y="670" type="curve" smooth="yes"/>
			<point x="210" y="624"/>
			<point x="247" y="588"/>
		</contour>
		<component base="iota"/>
	</outline>
</glyph>
<glyph name="kai" format="2">
	<unicode hex="03D7"/>
	<advance width="705"/>
	<outline>
		<contour>
			<point x="172" y="-15" type="line"/>
			<point x="328" y="18" type="line"/>
			<point x="330" y="76"/>
			<point x="330" y="146"/>
			<point x="331" y="212" type="curve"/>
			<point x="313" y="212" type="line"/>
			<point x="322" y="274"/>
			<point x="331" y="342"/>
			<point x="331" y="405" type="curve" smooth="yes"/>
			<point x="331" y="487"/>
			<point x="283" y="528"/>
			<point x="198" y="528" type="curve" smooth="yes"/>
			<point x="132" y="528"/>
			<point x="89" y="499"/>
			<point x="66" y="473" type="curve"/>
			<point x="90" y="421" type="line"/>
			<point x="96" y="424"/>
			<point x="110" y="431"/>
			<point x="127" y="431" type="curve" smooth="yes"/>
			<point x="153" y="431"/>
			<point x="167" y="416"/>
			<point x="167" y="385" type="curve"/>
			<point x="167" y="207" type="line"/>
			<point x="142" y="12" type="line"/>
		</contour>
		<contour>
			<point x="320" y="114" type="line"/>
			<point x="344" y="179"/>
			<point x="380" y="241"/>
			<point x="413" y="286" type="curve"/>
			<point x="450" y="339"/>
			<point x="485" y="375"/>
			<point x="538" y="415" type="curve"/>
			<point x="452" y="373" type="line"/>
			<point x="560" y="373" type="line" smooth="yes"/>
			<point x="639" y="373"/>
			<point x="677" y="408"/>
			<point x="677" y="460" type="curve" smooth="yes"/>
			<point x="677" y="496"/>
			<point x="654" y="518"/>
			<point x="626" y="528" type="curve"/>
			<point x="576" y="523"/>
			<point x="530" y="500"/>
			<point x="485" y="456" type="curve" smooth="yes"/>
			<point x="435" y="406"/>
			<point x="375" y="315"/>
			<point x="344" y="231" type="curve"/>
			<point x="292" y="231" type="line"/>
		</contour>
		<contour>
			<point x="346" y="-224" type="curve" smooth="yes"/>
			<point x="509" y="-224"/>
			<point x="630" y="-131"/>
			<point x="688" y="84" type="curve"/>
			<point x="665" y="127" type="line"/>
			<point x="654" y="123"/>
			<point x="642" y="119"/>
			<point x="623" y="119" type="curve" smooth="yes"/>
			<point x="575" y="119"/>
			<point x="532" y="148"/>
			<point x="423" y="329" type="curve"/>
			<point x="393" y="300" type="line"/>
			<point x="452" y="43"/>
			<point x="494" y="-2"/>
			<point x="567" y="-2" type="curve" smooth="yes"/>
			<point x="601" y="-2"/>
			<point x="622" y="15"/>
			<point x="643" y="43" type="curve"/>
			<point x="608" y="54" type="line"/>
			<point x="630" y="11" type="line"/>
			<point x="558" y="-63"/>
			<point x="469" y="-103"/>
			<point x="348" y="-103" type="curve" smooth="yes"/>
			<point x="198" y="-103"/>
			<point x="102" y="-59"/>
			<point x="55" y="47" type="curve"/>
			<point x="6" y="33" type="line"/>
			<point x="23" y="-114"/>
			<point x="131" y="-224"/>
		</contour>
	</outline>
</glyph>
<glyph name="sampi" format="2">
	<unicode hex="03E1"/>
	<advance width="602"/>
	<outline>
		<contour>
			<point x="141" y="55" type="line"/>
			<point x="464" y="200" type="line"/>
			<point x="445" y="258" type="line"/>
			<point x="104" y="162" type="line"/>
		</contour>
		<contour>
			<point x="364" y="-160" type="curve"/>
			<point x="422" y="-181" type="line"/>
			<point x="479" y="-110"/>
			<point x="538" y="21"/>
			<point x="538" y="197" type="curve" smooth="yes"/>
			<point x="538" y="503"/>
			<point x="307" y="701"/>
			<point x="65" y="716" type="curve"/>
			<point x="44" y="665" type="line"/>
			<point x="258" y="565"/>
			<point x="404" y="358"/>
			<point x="404" y="99" type="curve" smooth="yes"/>
			<point x="404" y="-20"/>
			<point x="381" y="-113"/>
		</contour>
		<contour>
			<point x="66" y="274" type="line"/>
			<point x="395" y="413" type="line"/>
			<point x="378" y="472" type="line"/>
			<point x="34" y="381" type="line"/>
		</contour>
	</outline>
</glyph>
<glyph name="Tse" format="2">
	<unicode hex="0426"/>
	<advance width="835"/>
	<outline>
		<contour>
			<point x="113" y="0" type="curve"/>
			<point x="298" y="0" type="line"/>
			<point x="298" y="98"/>
			<point x="298" y="195"/>
			<point x="298" y="292" type="curve" smooth="yes"/>
			<point x="298" y="366" type="line" smooth="yes"/>
			<point x="298" y="463"/>
			<point x="298" y="560"/>
			<point x="298" y="657" type="curve"/>
			<point x="113" y="657" type="line"/>
			<point x="113" y="560"/>
			<point x="113" y="463"/>
			<point x="113" y="366" type="curve" smooth="yes"/>
			<point x="113" y="292" type="line" smooth="yes"/>
			<point x="113" y="195"/>
			<point x="113" y="98"/>
		</contour>
		<contour>
			<point x="525" y="0" type="curve"/>
			<point x="709" y="0" type="line"/>
			<point x="709" y="98"/>
			<point x="709" y="195"/>
			<point x="709" y="292" type="curve" smooth="yes"/>
			<point x="709" y="366" type="line" smooth="yes"/>
			<point x="709" y="463"/>
			<point x="709" y="560"/>
			<point x="709" y="657" type="curve"/>
			<point x="525" y="657" type="line"/>
			<point x="525" y="560"/>
			<point x="525" y="463"/>
			<point x="525" y="366" type="curve" smooth="yes"/>
			<point x="525" y="292" type="line" smooth="yes"/>
			<point x="525" y="195"/>
			<point x="525" y="98"/>
		</contour>
		<contour>
			<point x="216" y="0" type="line"/>
			<point x="750" y="0" type="line"/>
			<point x="699" y="46" type="line"/>
			<point x="736" y="-185" type="line"/>
			<point x="815" y="-185" type="line"/>
			<point x="818" y="75" type="line"/>
			<point x="216" y="75" type="line"/>
		</contour>
		<contour>
			<point x="29" y="582" type="line"/>
			<point x="157" y="582" type="line"/>
			<point x="254" y="582" type="line"/>
			<point x="371" y="582" type="line"/>
			<point x="371" y="657" type="line"/>
			<point x="29" y="657" type="line"/>
		</contour>
		<contour>
			<point x="452" y="582" type="line"/>
			<point x="568" y="582" type="line"/>
			<point x="666" y="582" type="line"/>
			<point x="793" y="582" type="line"/>
			<point x="793" y="657" type="line"/>
			<point x="452" y="657" type="line"/>
		</contour>
		<contour>
			<point x="29" y="0" type="line"/>
			<point x="173" y="0" type="line"/>
			<point x="173" y="75" type="line"/>
			<point x="157" y="75" type="line"/>
			<point x="29" y="75" type="line"/>
		</contour>
	</outline>
	<anchor name="aboveUC" x="399" y="677"/>
</glyph>
<glyph name="Che" format="2">
	<unicode hex="0427"/>
	<advance width="757"/>
	<outline>
		<contour>
			<point x="141" y="582" type="line"/>
			<point x="238" y="582" type="line"/>
			<point x="344" y="582" type="line"/>
			<point x="344" y="657" type="line"/>
			<point x="21" y="657" type="line"/>
			<point x="21" y="582" type="line"/>
		</contour>
		<contour>
			<point x="320" y="252" type="curve" smooth="yes"/>
			<point x="408" y="252"/>
			<point x="471" y="270"/>
			<point x="508" y="283" type="curve"/>
			<point x="508" y="349" type="line"/>
			<point x="479" y="336"/>
			<point x="441" y="325"/>
			<point x="394" y="325" type="curve" smooth="yes"/>
			<point x="313" y="325"/>
			<point x="282" y="360"/>
			<point x="282" y="433" type="curve" smooth="yes"/>
			<point x="282" y="508"/>
			<point x="282" y="583"/>
			<point x="282" y="657" type="curve"/>
			<point x="95" y="657" type="line"/>
			<point x="95" y="578"/>
			<point x="95" y="499"/>
			<point x="95" y="420" type="curve" smooth="yes"/>
			<point x="95" y="301"/>
			<point x="168" y="252"/>
		</contour>
		<contour>
			<point x="357" y="0" type="line"/>
			<point x="725" y="0" type="line"/>
			<point x="725" y="75" type="line"/>
			<point x="598" y="75" type="line"/>
			<point x="500" y="75" type="line"/>
			<point x="357" y="75" type="line"/>
		</contour>
		<contour>
			<point x="457" y="0" type="curve"/>
			<point x="641" y="0" type="line"/>
			<point x="641" y="98"/>
			<point x="641" y="195"/>
			<point x="641" y="292" type="curve" smooth="yes"/>
			<point x="641" y="366" type="line" smooth="yes"/>
			<point x="641" y="463"/>
			<point x="641" y="560"/>
			<point x="641" y="657" type="curve"/>
			<point x="457" y="657" type="line"/>
			<point x="457" y="560"/>
			<point x="457" y="463"/>
			<point x="457" y="366" type="curve" smooth="yes"/>
			<point x="457" y="292" type="line" smooth="yes"/>
			<point x="457" y="195"/>
			<point x="457" y="98"/>
		</contour>
		<contour>
			<point x="500" y="582" type="line"/>
			<point x="598" y="582" type="line"/>
			<point x="725" y="582" type="line"/>
			<point x="725" y="657" type="line"/>
			<point x="395" y="657" type="line"/>
			<point x="395" y="582" type="line"/>
		</contour>
	</outline>
	<anchor name="aboveUC" x="370" y="677"/>
</glyph>
<glyph name="Shcha" format="2">
	<unicode hex="0429"/>
	<advance width="1169"/>
	<outline>
		<contour>
			<point x="113" y="0" type="curve"/>
			<point x="298" y="0" type="line"/>
			<point x="298" y="98"/>
			<point x="298" y="195"/>
			<point x="298" y="292" type="curve" smooth="yes"/>
			<point x="298" y="366" type="line" smooth="yes"/>
			<point x="298" y="463"/>
			<point x="298" y="560"/>
			<point x="298" y="657" type="curve"/>
			<point x="113" y="657" type="line"/>
			<point x="113" y="560"/>
			<point x="113" y="463"/>
			<point x="113" y="366" type="curve" smooth="yes"/>
			<point x="113" y="292" type="line" smooth="yes"/>
			<point x="113" y="195"/>
			<point x="113" y="98"/>
		</contour>
		<contour>
			<point x="486" y="0" type="curve"/>
			<point x="670" y="0" type="line"/>
			<point x="670" y="98"/>
			<point x="670" y="195"/>
			<point x="670" y="292" type="curve" smooth="yes"/>
			<point x="670" y="366" type="line" smooth="yes"/>
			<point x="670" y="463"/>
			<point x="670" y="560"/>
			<point x="670" y="657" type="curve"/>
			<point x="486" y="657" type="line"/>
			<point x="486" y="560"/>
			<point x="486" y="463"/>
			<point x="486" y="366" type="curve" smooth="yes"/>
			<point x="486" y="292" type="line" smooth="yes"/>
			<point x="486" y="195"/>
			<point x="486" y="98"/>
		</contour>
		<contour>
			<point x="858" y="0" type="curve"/>
			<point x="1043" y="0" type="line"/>
			<point x="1043" y="98"/>
			<point x="1043" y="195"/>
			<point x="1043" y="292" type="curve" smooth="yes"/>
			<point x="1043" y="366" type="line" smooth="yes"/>
			<point x="1043" y="463"/>
			<point x="1043" y="560"/>
			<point x="1043" y="657" type="curve"/>
			<point x="858" y="657" type="line"/>
			<point x="858" y="560"/>
			<point x="858" y="463"/>
			<point x="858" y="366" type="curve" smooth="yes"/>
			<point x="858" y="292" type="line" smooth="yes"/>
			<point x="858" y="195"/>
			<point x="858" y="98"/>
		</contour>
		<contour>
			<point x="254" y="0" type="line"/>
			<point x="1083" y="0" type="line"/>
			<point x="1032" y="46" type="line"/>
			<point x="1070" y="-185" type="line"/>
			<point x="1148" y="-185" type="line"/>
			<point x="1151" y="75" type="line"/>
			<point x="254" y="75" type="line"/>
		</contour>
		<contour>
			<point x="29" y="582" type="line"/>
			<point x="157" y="582" type="line"/>
			<point x="254" y="582" type="line"/>
			<point x="363" y="582" type="line"/>
			<point x="363" y="657" type="line"/>
			<point x="29" y="657" type="line"/>
		</contour>
		<contour>
			<point x="421" y="582" type="line"/>
			<point x="529" y="582" type="line"/>
			<point x="627" y="582" type="line"/>
			<point x="735" y="582" type="line"/>
			<point x="735" y="657" type="line"/>
			<point x="421" y="657" type="line"/>
		</contour>
		<contour>
			<point x="793" y="582" type="line"/>
			<point x="902" y="582" type="line"/>
			<point x="999" y="582" type="line"/>
			<point x="1127" y="582" type="line"/>
			<point x="1127" y="657" type="line"/>
			<point x="793" y="657" type="line"/>
		</contour>
		<contour>
			<point x="29" y="0" type="line"/>
			<point x="173" y="0" type="line"/>
			<point x="173" y="75" type="line"/>
			<point x="157" y="75" type="line"/>
			<point x="29" y="75" type="line"/>
		</contour>
	</outline>
</glyph>
<glyph name="Ecyr" format="2">
	<unicode hex="042D"/>
	<advance width="686"/>
	<outline>
		<contour>
			<point x="49" y="22" type="line"/>
			<point x="86" y="3"/>
			<point x="160" y="-16"/>
			<point x="256" y="-16" type="curve" smooth="yes"/>
			<point x="469" y="-16"/>
			<point x="641" y="93"/>
			<point x="641" y="332" type="curve" smooth="yes"/>
			<point x="641" y="570"/>
			<point x="483" y="673"/>
			<point x="273" y="673" type="curve" smooth="yes"/>
			<point x="171" y="673"/>
			<point x="103" y="654"/>
			<point x="59" y="636" type="curve"/>
			<point x="55" y="471" type="line"/>
			<point x="136" y="471" type="line"/>
			<point x="179" y="622" type="line"/>
			<point x="101" y="622" type="line"/>
			<point x="101" y="558" type="line"/>
			<point x="145" y="584"/>
			<point x="190" y="598"/>
			<point x="248" y="598" type="curve" smooth="yes"/>
			<point x="389" y="598"/>
			<point x="450" y="541"/>
			<point x="450" y="328" type="curve" smooth="yes"/>
			<point x="450" y="120"/>
			<point x="379" y="59"/>
			<point x="239" y="59" type="curve" smooth="yes"/>
			<point x="179" y="59"/>
			<point x="133" y="74"/>
			<point x="92" y="99" type="curve"/>
			<point x="92" y="35" type="line"/>
			<point x="169" y="35" type="line"/>
			<point x="126" y="186" type="line"/>
			<point x="45" y="186" type="line"/>
		</contour>
		<contour>
			<point x="197" y="227" type="line"/>
			<point x="271" y="227" type="line"/>
			<point x="295" y="320" type="line"/>
			<point x="295" y="350" type="line"/>
			<point x="271" y="443" type="line"/>
			<point x="197" y="443" type="line"/>
		</contour>
		<contour>
			<point x="243" y="298" type="line"/>
			<point x="480" y="298" type="line"/>
			<point x="480" y="372" type="line"/>
			<point x="243" y="372" type="line"/>
		</contour>
	</outline>
	<anchor name="aboveUC" x="293" y="677"/>
</glyph>
<glyph name="be" format="2">
	<unicode hex="0431"/>
	<advance width="626"/>
	<outline>
		<contour>
			<point x="321" y="-12" type="curve" smooth="yes"/>
			<point x="482" y="-12"/>
			<point x="586" y="85"/>
			<point x="586" y="240" type="curve" smooth="yes"/>
			<point x="586" y="395"/>
			<point x="493" y="480"/>
			<point x="342" y="480" type="curve" smooth="yes"/>
			<point x="201" y="480"/>
			<point x="138" y="386"/>
			<point x="123" y="307" type="curve"/>
			<point x="94" y="307" type="line"/>
			<point x="99" y="436"/>
			<point x="133" y="488"/>
			<point x="173" y="520" type="curve" smooth="yes"/>
			<point x="213" y="552"/>
			<point x="264" y="560"/>
			<point x="352" y="568" type="curve" smooth="yes"/>
			<point x="440" y="576"/>
			<point x="477" y="582"/>
			<point x="507" y="590" type="curve" smooth="yes"/>
			<point x="545" y="600"/>
			<point x="559" y="632"/>
			<point x="562" y="762" type="curve"/>
			<point x="506" y="762" type="line"/>
			<point x="487" y="711" type="line"/>
			<point x="469" y="706"/>
			<point x="438" y="700"/>
			<point x="350" y="692" type="curve" smooth="yes"/>
			<point x="262" y="684"/>
			<point x="190" y="668"/>
			<point x="144" y="636" type="curve" smooth="yes"/>
			<point x="99" y="604"/>
			<point x="40" y="528"/>
			<point x="40" y="326" type="curve" smooth="yes"/>
			<point x="40" y="80"/>
			<point x="165" y="-12"/>
		</contour>
		<contour>
			<point x="321" y="56" type="curve" smooth="yes"/>
			<point x="261" y="56"/>
			<point x="219" y="126"/>
			<point x="219" y="239" type="curve" smooth="yes"/>
			<point x="219" y="352"/>
			<point x="253" y="409"/>
			<point x="317" y="409" type="curve" smooth="yes"/>
			<point x="381" y="409"/>
			<point x="415" y="344"/>
			<point x="415" y="231" type="curve" smooth="yes"/>
			<point x="415" y="118"/>
			<point x="381" y="56"/>
		</contour>
	</outline>
</glyph>
<glyph name="icyr" format="2">
	<unicode hex="0438"/>
	<advance width="740"/>
	<outline>
		<contour>
			<point x="29" y="0" type="line"/>
			<point x="335" y="0" type="line"/>
			<point x="335" y="71" type="line"/>
			<point x="225" y="71" type="line"/>
			<point x="139" y="71" type="line"/>
			<point x="29" y="71" type="line"/>
		</contour>
		<contour>
			<point x="399" y="0" type="line"/>
			<point x="706" y="0" type="line"/>
			<point x="706" y="71" type="line"/>
			<point x="595" y="71" type="line"/>
			<point x="510" y="71" type="line"/>
			<point x="399" y="71" type="line"/>
		</contour>
		<contour>
			<point x="96" y="0" type="curve"/>
			<point x="257" y="0" type="line"/>
			<point x="268" y="514" type="line"/>
			<point x="96" y="514" type="line"/>
			<point x="96" y="439"/>
			<point x="96" y="364"/>
			<point x="96" y="289" type="curve" smooth="yes"/>
			<point x="96" y="225" type="line" smooth="yes"/>
			<point x="96" y="150"/>
			<point x="96" y="75"/>
		</contour>
		<contour>
			<point x="248" y="84" type="line"/>
			<point x="350" y="190" type="line"/>
			<point x="452" y="315" type="line"/>
			<point x="487" y="315" type="line"/>
			<point x="487" y="429" type="line"/>
			<point x="385" y="324" type="line"/>
			<point x="283" y="198" type="line"/>
			<point x="248" y="198" type="line"/>
		</contour>
		<contour>
			<point x="466" y="0" type="line"/>
			<point x="639" y="0" type="line"/>
			<point x="639" y="75"/>
			<point x="639" y="150"/>
			<point x="639" y="225" type="curve" smooth="yes"/>
			<point x="639" y="289" type="line" smooth="yes"/>
			<point x="639" y="364"/>
			<point x="639" y="439"/>
			<point x="639" y="514" type="curve"/>
			<point x="477" y="514" type="line"/>
		</contour>
		<contour>
			<point x="29" y="442" type="line"/>
			<point x="139" y="442" type="line"/>
			<point x="225" y="442" type="line"/>
			<point x="335" y="442" type="line"/>
			<point x="335" y="514" type="line"/>
			<point x="29" y="514" type="line"/>
		</contour>
		<contour>
			<point x="399" y="442" type="line"/>
			<point x="510" y="442" type="line"/>
			<point x="595" y="442" type="line"/>
			<point x="706" y="442" type="line"/>
			<point x="706" y="514" type="line"/>
			<point x="399" y="514" type="line"/>
		</contour>
	</outline>
	<anchor name="aboveLC" x="374" y="534"/>
</glyph>
<glyph name="ka" format="2">
	<unicode hex="043A"/>
	<advance width="670"/>
	<outline>
		<contour>
			<point x="29" y="0" type="line"/>
			<point x="332" y="0" type="line"/>
			<point x="332" y="71" type="line"/>
			<point x="225" y="71" type="line"/>
			<point x="139" y="71" type="line"/>
			<point x="29" y="71" type="line"/>
		</contour>
		<contour>
			<point x="29" y="442" type="line"/>
			<point x="139" y="442" type="line"/>
			<point x="225" y="442" type="line"/>
			<point x="335" y="442" type="line"/>
			<point x="335" y="514" type="line"/>
			<point x="29" y="514" type="line"/>
		</contour>
		<contour>
			<point x="96" y="0" type="curve"/>
			<point x="268" y="0" type="line"/>
			<point x="268" y="75"/>
			<point x="268" y="150"/>
			<point x="268" y="225" type="curve" smooth="yes"/>
			<point x="268" y="289" type="line" smooth="yes"/>
			<point x="268" y="364"/>
			<point x="268" y="439"/>
			<point x="268" y="514" type="curve"/>
			<point x="96" y="514" type="line"/>
			<point x="96" y="439"/>
			<point x="96" y="364"/>
			<point x="96" y="289" type="curve" smooth="yes"/>
			<point x="96" y="225" type="line" smooth="yes"/>
			<point x="96" y="150"/>
			<point x="96" y="75"/>
		</contour>
		<contour>
			<point x="404" y="80" type="line" smooth="yes"/>
			<point x="417" y="13"/>
			<point x="463" y="-14"/>
			<point x="546" y="-14" type="curve" smooth="yes"/>
			<point x="584" y="-14"/>
			<point x="625" y="-4"/>
			<point x="646" y="0" type="curve"/>
			<point x="646" y="67" type="line"/>
			<point x="478" y="75" type="line"/>
			<point x="597" y="12" type="line"/>
			<point x="560" y="156" type="line" smooth="yes"/>
			<point x="541" y="234"/>
			<point x="483" y="259"/>
			<point x="342" y="259" type="curve"/>
			<point x="342" y="274" type="line"/>
			<point x="414" y="282"/>
			<point x="446" y="306"/>
			<point x="471" y="357" type="curve" smooth="yes"/>
			<point x="496" y="409"/>
			<point x="512" y="433"/>
			<point x="534" y="457" type="curve"/>
			<point x="454" y="424" type="line"/>
			<point x="478" y="395"/>
			<point x="510" y="374"/>
			<point x="554" y="374" type="curve" smooth="yes"/>
			<point x="604" y="374"/>
			<point x="637" y="406"/>
			<point x="637" y="452" type="curve" smooth="yes"/>
			<point x="637" y="496"/>
			<point x="603" y="518"/>
			<point x="569" y="528" type="curve"/>
			<point x="495" y="521"/>
			<point x="447" y="492"/>
			<point x="415" y="400" type="curve" smooth="yes"/>
			<point x="389" y="324"/>
			<point x="363" y="298"/>
			<point x="308" y="298" type="curve" smooth="yes"/>
			<point x="252" y="298" type="line"/>
			<point x="252" y="232" type="line"/>
			<point x="312" y="232" type="line" smooth="yes"/>
			<point x="357" y="232"/>
			<point x="376" y="216"/>
			<point x="386" y="169" type="curve" smooth="yes"/>
		</contour>
	</outline>
	<anchor name="aboveLC" x="353" y="534"/>
</glyph>
<glyph name="em" format="2">
	<unicode hex="043C"/>
	<advance width="834"/>
	<outline>
		<contour>
			<point x="339" y="57" type="line"/>
			<point x="424" y="57" type="line"/>
			<point x="560" y="436" type="line"/>
			<point x="619" y="436" type="line"/>
			<point x="619" y="514" type="line"/>
			<point x="517" y="514" type="line"/>
			<point x="430" y="238" type="line"/>
			<point x="409" y="238" type="line"/>
			<point x="322" y="514" type="line"/>
			<point x="144" y="514" type="line"/>
			<point x="144" y="434" type="line"/>
			<point x="203" y="434" type="line"/>
		</contour>
		<contour>
			<point x="571" y="0" type="line"/>
			<point x="737" y="0" type="line"/>
			<point x="737" y="75"/>
			<point x="737" y="151"/>
			<point x="737" y="226" type="curve" smooth="yes"/>
			<point x="737" y="288" type="line" smooth="yes"/>
			<point x="737" y="363"/>
			<point x="737" y="439"/>
			<point x="737" y="514" type="curve"/>
			<point x="593" y="514" type="line"/>
			<point x="571" y="226" type="line"/>
		</contour>
		<contour>
			<point x="29" y="0" type="line"/>
			<point x="255" y="0" type="line"/>
			<point x="255" y="71" type="line"/>
			<point x="164" y="71" type="line"/>
			<point x="129" y="71" type="line"/>
			<point x="29" y="71" type="line"/>
		</contour>
		<contour>
			<point x="509" y="0" type="line"/>
			<point x="805" y="0" type="line"/>
			<point x="805" y="71" type="line"/>
			<point x="694" y="71" type="line"/>
			<point x="611" y="71" type="line"/>
			<point x="509" y="71" type="line"/>
		</contour>
		<contour>
			<point x="29" y="442" type="line"/>
			<point x="113" y="442" type="line"/>
			<point x="129" y="442" type="line"/>
			<point x="129" y="514" type="line"/>
			<point x="29" y="514" type="line"/>
		</contour>
		<contour>
			<point x="97" y="0" type="line"/>
			<point x="192" y="0" type="line"/>
			<point x="192" y="226" type="line"/>
			<point x="171" y="514" type="line"/>
			<point x="97" y="514" type="line"/>
		</contour>
		<contour>
			<point x="705" y="442" type="line"/>
			<point x="721" y="442" type="line"/>
			<point x="805" y="442" type="line"/>
			<point x="805" y="514" type="line"/>
			<point x="705" y="514" type="line"/>
		</contour>
	</outline>
</glyph>
<glyph name="che" format="2">
	<unicode hex="0447"/>
	<advance width="698"/>
	<outline>
		<contour>
			<point x="272" y="189" type="curve" smooth="yes"/>
			<point x="345" y="189"/>
			<point x="422" y="204"/>
			<point x="460" y="218" type="curve"/>
			<point x="460" y="272" type="line"/>
			<point x="438" y="265"/>
			<point x="401" y="258"/>
			<point x="347" y="258" type="curve" smooth="yes"/>
			<point x="284" y="258"/>
			<point x="258" y="276"/>
			<point x="258" y="338" type="curve" smooth="yes"/>
			<point x="258" y="396"/>
			<point x="258" y="455"/>
			<point x="258" y="514" type="curve"/>
			<point x="85" y="514" type="line"/>
			<point x="85" y="454"/>
			<point x="85" y="394"/>
			<point x="85" y="334" type="curve" smooth="yes"/>
			<point x="85" y="225"/>
			<point x="133" y="189"/>
		</contour>
		<contour>
			<point x="430" y="0" type="curve"/>
			<point x="603" y="0" type="line"/>
			<point x="603" y="75"/>
			<point x="603" y="150"/>
			<point x="603" y="225" type="curve" smooth="yes"/>
			<point x="603" y="289" type="line" smooth="yes"/>
			<point x="603" y="364"/>
			<point x="603" y="439"/>
			<point x="603" y="514" type="curve"/>
			<point x="430" y="514" type="line"/>
			<point x="430" y="439"/>
			<point x="430" y="364"/>
			<point x="430" y="289" type="curve" smooth="yes"/>
			<point x="430" y="225" type="line" smooth="yes"/>
			<point x="430" y="150"/>
			<point x="430" y="75"/>
		</contour>
		<contour>
			<point x="24" y="442" type="line"/>
			<point x="129" y="442" type="line"/>
			<point x="214" y="442" type="line"/>
			<point x="319" y="442" type="line"/>
			<point x="319" y="514" type="line"/>
			<point x="24" y="514" type="line"/>
		</contour>
		<contour>
			<point x="347" y="0" type="line"/>
			<point x="670" y="0" type="line"/>
			<point x="670" y="71" type="line"/>
			<point x="559" y="71" type="line"/>
			<point x="473" y="71" type="line"/>
			<point x="347" y="71" type="line"/>
		</contour>
		<contour>
			<point x="369" y="442" type="line"/>
			<point x="473" y="442" type="line"/>
			<point x="559" y="442" type="line"/>
			<point x="670" y="442" type="line"/>
			<point x="670" y="514" type="line"/>
			<point x="369" y="514" type="line"/>
		</contour>
	</outline>
	<anchor name="aboveLC" x="342" y="534"/>
</glyph>
<glyph name="shcha" format="2">
	<unicode hex="0449"/>
	<advance width="1058"/>
	<outline>
		<contour>
			<point x="101" y="0" type="curve"/>
			<point x="274" y="0" type="line"/>
			<point x="274" y="75"/>
			<point x="274" y="150"/>
			<point x="274" y="225" type="curve" smooth="yes"/>
			<point x="274" y="289" type="line" smooth="yes"/>
			<point x="274" y="364"/>
			<point x="274" y="439"/>
			<point x="274" y="514" type="curve"/>
			<point x="101" y="514" type="line"/>
			<point x="101" y="439"/>
			<point x="101" y="364"/>
			<point x="101" y="289" type="curve" smooth="yes"/>
			<point x="101" y="225" type="line" smooth="yes"/>
			<point x="101" y="150"/>
			<point x="101" y="75"/>
		</contour>
		<contour>
			<point x="437" y="0" type="curve"/>
			<point x="610" y="0" type="line"/>
			<point x="610" y="75"/>
			<point x="610" y="150"/>
			<point x="610" y="225" type="curve" smooth="yes"/>
			<point x="610" y="289" type="line" smooth="yes"/>
			<point x="610" y="364"/>
			<point x="610" y="439"/>
			<point x="610" y="514" type="curve"/>
			<point x="437" y="514" type="line"/>
			<point x="437" y="439"/>
			<point x="437" y="364"/>
			<point x="437" y="289" type="curve" smooth="yes"/>
			<point x="437" y="225" type="line" smooth="yes"/>
			<point x="437" y="150"/>
			<point x="437" y="75"/>
		</contour>
		<contour>
			<point x="773" y="0" type="curve"/>
			<point x="945" y="0" type="line"/>
			<point x="945" y="75"/>
			<point x="945" y="150"/>
			<point x="945" y="225" type="curve" smooth="yes"/>
			<point x="945" y="289" type="line" smooth="yes"/>
			<point x="945" y="364"/>
			<point x="945" y="439"/>
			<point x="945" y="514" type="curve"/>
			<point x="773" y="514" type="line"/>
			<point x="773" y="439"/>
			<point x="773" y="364"/>
			<point x="773" y="289" type="curve" smooth="yes"/>
			<point x="773" y="225" type="line" smooth="yes"/>
			<point x="773" y="150"/>
			<point x="773" y="75"/>
		</contour>
		<contour>
			<point x="959" y="-153" type="line"/>
			<point x="1034" y="-153" type="line"/>
			<point x="1037" y="71" type="line"/>
			<point x="258" y="71" type="line"/>
			<point x="258" y="0" type="line"/>
			<point x="978" y="0" type="line"/>
			<point x="921" y="52" type="line"/>
		</contour>
		<contour>
			<point x="29" y="442" type="line"/>
			<point x="145" y="442" type="line"/>
			<point x="230" y="442" type="line"/>
			<point x="325" y="442" type="line"/>
			<point x="325" y="514" type="line"/>
			<point x="29" y="514" type="line"/>
		</contour>
		<contour>
			<point x="386" y="442" type="line"/>
			<point x="480" y="442" type="line"/>
			<point x="566" y="442" type="line"/>
			<point x="661" y="442" type="line"/>
			<point x="661" y="514" type="line"/>
			<point x="386" y="514" type="line"/>
		</contour>
		<contour>
			<point x="722" y="442" type="line"/>
			<point x="816" y="442" type="line"/>
			<point x="902" y="442" type="line"/>
			<point x="1018" y="442" type="line"/>
			<point x="1018" y="514" type="line"/>
			<point x="722" y="514" type="line"/>
		</contour>
		<contour>
			<point x="29" y="0" type="line"/>
			<point x="161" y="0" type="line"/>
			<point x="161" y="71" type="line"/>
			<point x="145" y="71" type="line"/>
			<point x="29" y="71" type="line"/>
		</contour>
	</outline>
</glyph>
<glyph name="hard" format="2">
	<unicode hex="044A"/>
	<advance width="771"/>
	<outline>
		<contour>
			<point x="399" y="0" type="line"/>
			<point x="477" y="0" type="line" smooth="yes"/>
			<point x="653" y="0"/>
			<point x="741" y="57"/>
			<point x="741" y="167" type="curve" smooth="yes"/>
			<point x="741" y="278"/>
			<point x="653" y="327"/>
			<point x="501" y="327" type="curve" smooth="yes"/>
			<point x="433" y="327"/>
			<point x="388" y="316"/>
			<point x="361" y="306" type="curve"/>
			<point x="361" y="244" type="line"/>
			<point x="382" y="251"/>
			<point x="417" y="258"/>
			<point x="453" y="258" type="curve" smooth="yes"/>
			<point x="535" y="258"/>
			<point x="568" y="224"/>
			<point x="568" y="163" type="curve" smooth="yes"/>
			<point x="568" y="103"/>
			<point x="535" y="68"/>
			<point x="464" y="68" type="curve" smooth="yes"/>
			<point x="399" y="68" type="line"/>
		</contour>
		<contour>
			<point x="243" y="0" type="curve"/>
			<point x="415" y="0" type="line"/>
			<point x="415" y="75"/>
			<point x="415" y="150"/>
			<point x="415" y="225" type="curve" smooth="yes"/>
			<point x="415" y="289" type="line" smooth="yes"/>
			<point x="415" y="364"/>
			<point x="415" y="439"/>
			<point x="415" y="514" type="curve"/>
			<point x="243" y="514" type="line"/>
			<point x="243" y="439"/>
			<point x="243" y="364"/>
			<point x="243" y="289" type="curve" smooth="yes"/>
			<point x="243" y="225" type="line" smooth="yes"/>
			<point x="243" y="150"/>
			<point x="243" y="75"/>
		</contour>
		<contour>
			<point x="32" y="324" type="line"/>
			<point x="107" y="324" type="line"/>
			<point x="149" y="494" type="line"/>
			<point x="92" y="442" type="line"/>
			<point x="324" y="442" type="line"/>
			<point x="324" y="514" type="line"/>
			<point x="33" y="514" type="line"/>
		</contour>
		<contour>
			<point x="176" y="0" type="line"/>
			<point x="302" y="0" type="line"/>
			<point x="302" y="71" type="line"/>
			<point x="286" y="71" type="line"/>
			<point x="176" y="71" type="line"/>
		</contour>
		<contour>
			<point x="333" y="442" type="line"/>
			<point x="372" y="442" type="line"/>
			<point x="498" y="442" type="line"/>
			<point x="498" y="514" type="line"/>
			<point x="333" y="514" type="line"/>
		</contour>
	</outline>
	<anchor name="aboveLC" x="330" y="534"/>
</glyph>
<glyph name="ecyr" format="2">
	<unicode hex="044D"/>
	<advance width="579"/>
	<outline>
		<contour>
			<point x="246" y="-15" type="curve" smooth="yes"/>
			<point x="425" y="-15"/>
			<point x="539" y="101"/>
			<point x="539" y="266" type="curve" smooth="yes"/>
			<point x="539" y="427"/>
			<point x="429" y="528"/>
			<point x="248" y="528" type="curve" smooth="yes"/>
			<point x="169" y="528"/>
			<point x="105" y="513"/>
			<point x="65" y="492" type="curve"/>
			<point x="65" y="329" type="line"/>
			<point x="140" y="329" type="line"/>
			<point x="181" y="494" type="line"/>
			<point x="124" y="428" type="line"/>
			<point x="144" y="437"/>
			<point x="168" y="446"/>
			<point x="215" y="446" type="curve" smooth="yes"/>
			<point x="315" y="446"/>
			<point x="362" y="387"/>
			<point x="362" y="255" type="curve" smooth="yes"/>
			<point x="362" y="125"/>
			<point x="321" y="47"/>
			<point x="215" y="47" type="curve" smooth="yes"/>
			<point x="168" y="47"/>
			<point x="140" y="53"/>
			<point x="115" y="62" type="curve"/>
			<point x="199" y="6" type="line"/>
			<point x="183" y="101" type="line" smooth="yes"/>
			<point x="176" y="146"/>
			<point x="151" y="174"/>
			<point x="106" y="174" type="curve" smooth="yes"/>
			<point x="66" y="174"/>
			<point x="40" y="147"/>
			<point x="34" y="111" type="curve"/>
			<point x="56" y="31"/>
			<point x="112" y="-15"/>
		</contour>
		<contour>
			<point x="168" y="224" type="line"/>
			<point x="378" y="232" type="line"/>
			<point x="378" y="283" type="line"/>
			<point x="168" y="291" type="line"/>
		</contour>
	</outline>
	<anchor name="aboveLC" x="264" y="534"/>
</glyph>
<glyph name="Yat" format="2">
	<unicode hex="0462"/>
	<advance width="820"/>
	<outline>
		<contour>
			<point x="28" y="393" type="line"/>
			<point x="107" y="393" type="line"/>
			<point x="158" y="550" type="line"/>
			<point x="96" y="504" type="line"/>
			<point x="608" y="504" type="line"/>
			<point x="545" y="550" type="line"/>
			<point x="597" y="412" type="line"/>
			<point x="675" y="412" type="line"/>
			<point x="670" y="577" type="line"/>
			<point x="34" y="577" type="line"/>
		</contour>
		<contour>
			<point x="370" y="0" type="line"/>
			<point x="461" y="0" type="line" smooth="yes"/>
			<point x="678" y="0"/>
			<point x="780" y="72"/>
			<point x="780" y="192" type="curve" smooth="yes"/>
			<point x="780" y="308"/>
			<point x="678" y="371"/>
			<point x="485" y="371" type="curve" smooth="yes"/>
			<point x="434" y="371"/>
			<point x="387" y="363"/>
			<point x="361" y="355" type="curve"/>
			<point x="361" y="284" type="line"/>
			<point x="387" y="292"/>
			<point x="417" y="300"/>
			<point x="460" y="300" type="curve" smooth="yes"/>
			<point x="554" y="300"/>
			<point x="593" y="260"/>
			<point x="593" y="188" type="curve" smooth="yes"/>
			<point x="593" y="113"/>
			<point x="554" y="68"/>
			<point x="447" y="68" type="curve" smooth="yes"/>
			<point x="370" y="68" type="line"/>
		</contour>
		<contour>
			<point x="241" y="0" type="curve"/>
			<point x="425" y="0" type="line"/>
			<point x="425" y="98"/>
			<point x="425" y="195"/>
			<point x="425" y="304" type="curve" smooth="yes"/>
			<point x="425" y="374" type="line" smooth="yes"/>
			<point x="425" y="499"/>
			<point x="425" y="612"/>
			<point x="425" y="725" type="curve"/>
			<point x="241" y="725" type="line"/>
			<point x="241" y="612"/>
			<point x="241" y="499"/>
			<point x="241" y="386" type="curve" smooth="yes"/>
			<point x="241" y="292" type="line" smooth="yes"/>
			<point x="241" y="195"/>
			<point x="241" y="98"/>
		</contour>
		<contour>
			<point x="151" y="650" type="line"/>
			<point x="290" y="650" type="line"/>
			<point x="387" y="650" type="line"/>
			<point x="520" y="650" type="line"/>
			<point x="520" y="725" type="line"/>
			<point x="151" y="725" type="line"/>
		</contour>
		<contour>
			<point x="156" y="0" type="line"/>
			<point x="295" y="0" type="line"/>
			<point x="295" y="75" type="line"/>
			<point x="279" y="75" type="line"/>
			<point x="156" y="75" type="line"/>
		</contour>
	</outline>
	<anchor name="aboveUC" x="336" y="726"/>
</glyph>
<glyph name="yat" format="2">
	<unicode hex="0463"/>
	<advance width="771"/>
	<outline>
		<contour>
			<point x="32" y="345" type="line"/>
			<point x="107" y="345" type="line"/>
			<point x="149" y="510" type="line"/>
			<point x="92" y="458" type="line"/>
			<point x="591" y="458" type="line"/>
			<point x="534" y="510" type="line"/>
			<point x="576" y="369" type="line"/>
			<point x="651" y="369" type="line"/>
			<point x="650" y="529" type="line"/>
			<point x="33" y="529" type="line"/>
		</contour>
		<contour>
			<point x="176" y="0" type="line"/>
			<point x="302" y="0" type="line"/>
			<point x="302" y="71" type="line"/>
			<point x="286" y="71" type="line"/>
			<point x="176" y="71" type="line"/>
		</contour>
		<contour>
			<point x="243" y="0" type="curve"/>
			<point x="415" y="0" type="line"/>
			<point x="415" y="73"/>
			<point x="415" y="146"/>
			<point x="415" y="219" type="curve" smooth="yes"/>
			<point x="415" y="271" type="line"/>
			<point x="415" y="276" type="line"/>
			<point x="415" y="507" type="line"/>
			<point x="415" y="680" type="line"/>
			<point x="358" y="680" type="line"/>
			<point x="171" y="648" type="line"/>
			<point x="171" y="590" type="line"/>
			<point x="243" y="580" type="line"/>
			<point x="243" y="220" type="line" smooth="yes"/>
			<point x="243" y="147"/>
			<point x="243" y="73"/>
		</contour>
		<contour>
			<point x="399" y="0" type="line"/>
			<point x="477" y="0" type="line" smooth="yes"/>
			<point x="653" y="0"/>
			<point x="741" y="57"/>
			<point x="741" y="166" type="curve" smooth="yes"/>
			<point x="741" y="276"/>
			<point x="653" y="324"/>
			<point x="501" y="324" type="curve" smooth="yes"/>
			<point x="433" y="324"/>
			<point x="388" y="314"/>
			<point x="361" y="304" type="curve"/>
			<point x="361" y="241" type="line"/>
			<point x="382" y="248"/>
			<point x="417" y="256"/>
			<point x="453" y="256" type="curve" smooth="yes"/>
			<point x="535" y="256"/>
			<point x="568" y="222"/>
			<point x="568" y="162" type="curve" smooth="yes"/>
			<point x="568" y="102"/>
			<point x="535" y="68"/>
			<point x="464" y="68" type="curve" smooth="yes"/>
			<point x="399" y="68" type="line"/>
		</contour>
	</outline>
	<anchor name="aboveLC" x="332" y="680"/>
</glyph>
<glyph name="Fita" format="2">
	<unicode hex="0472"/>
	<advance width="791"/>
	<outline>
		<contour>
			<point x="603" y="301" type="line"/>
			<point x="603" y="376" type="line"/>
			<point x="188" y="376" type="line"/>
			<point x="188" y="301" type="line"/>
		</contour>
		<contour>
			<point x="214" y="330" type="curve" smooth="yes"/>
			<point x="214" y="492"/>
			<point x="268" y="598"/>
			<point x="395" y="598" type="curve" smooth="yes"/>
			<point x="522" y="598"/>
			<point x="576" y="489"/>
			<point x="576" y="328" type="curve" smooth="yes"/>
			<point x="576" y="166"/>
			<point x="522" y="59"/>
			<point x="395" y="59" type="curve" smooth="yes"/>
			<point x="268" y="59"/>
			<point x="214" y="169"/>
		</contour>
		<contour>
			<point x="395" y="673" type="curve" smooth="yes"/>
			<point x="209" y="673"/>
			<point x="45" y="555"/>
			<point x="45" y="326" type="curve" smooth="yes"/>
			<point x="45" y="97"/>
			<point x="209" y="-16"/>
			<point x="395" y="-16" type="curve" smooth="yes"/>
			<point x="581" y="-16"/>
			<point x="745" y="103"/>
			<point x="745" y="332" type="curve" smooth="yes"/>
			<point x="745" y="560"/>
			<point x="581" y="673"/>
		</contour>
	</outline>
	<anchor name="aboveUC" x="396" y="677"/>
</glyph>
<glyph name="izhitsa" format="2">
	<unicode hex="0475"/>
	<advance width="680"/>
	<outline>
		<contour>
			<point x="19" y="446" type="line"/>
			<point x="112" y="433" type="line"/>
			<point x="235" y="433" type="line"/>
			<point x="333" y="446" type="line"/>
			<point x="333" y="514" type="line"/>
			<point x="19" y="514" type="line"/>
		</contour>
		<contour>
			<point x="244" y="0" type="line"/>
			<point x="385" y="0" type="line"/>
			<point x="480" y="316" type="line" smooth="yes"/>
			<point x="493" y="358"/>
			<point x="506" y="394"/>
			<point x="517" y="425" type="curve"/>
			<point x="553" y="425" type="line"/>
			<point x="523" y="450" type="line"/>
			<point x="538" y="392"/>
			<point x="560" y="372"/>
			<point x="600" y="372" type="curve" smooth="yes"/>
			<point x="644" y="372"/>
			<point x="670" y="401"/>
			<point x="670" y="446" type="curve" smooth="yes"/>
			<point x="670" y="491"/>
			<point x="636" y="524"/>
			<point x="593" y="531" type="curve"/>
			<point x="553" y="526"/>
			<point x="520" y="511"/>
			<point x="491" y="476" type="curve" smooth="yes"/>
			<point x="455" y="436"/>
			<point x="432" y="390"/>
			<point x="413" y="311" type="curve" smooth="yes"/>
			<point x="368" y="127" type="line"/>
			<point x="340" y="127" type="line"/>
			<point x="240" y="514" type="line"/>
			<point x="53" y="514" type="line"/>
		</contour>
	</outline>
</glyph>
<glyph name="Zhedescender" format="2">
	<unicode hex="0496"/>
	<advance width="1092"/>
	<outline>
		<contour>
			<point x="903" y="0" type="line"/>
			<point x="1021" y="0" type="line"/>
			<point x="957" y="53" type="line"/>
			<point x="986" y="-189" type="line"/>
			<point x="1063" y="-189" type="line"/>
			<point x="1068" y="71" type="line"/>
			<point x="903" y="68" type="line"/>
		</contour>
		<component base="Zhe"/>
	</outline>
</glyph>
<glyph name="zhedescender" format="2">
	<unicode hex="0497"/>
	<advance width="945"/>
	<outline>
		<contour>
			<point x="873" y="0" type="line"/>
			<point x="808" y="53" type="line"/>
			<point x="850" y="-157" type="line"/>
			<point x="919" y="-157" type="line"/>
			<point x="923" y="67" type="line"/>
			<point x="753" y="75" type="line"/>
			<point x="785" y="0" type="line"/>
		</contour>
		<component base="zhe"/>
	</outline>
</glyph>
<glyph name="Kadescender" format="2">
	<unicode hex="049A"/>
	<advance width="762"/>
	<outline>
		<contour>
			<point x="582" y="0" type="line"/>
			<point x="700" y="0" type="line"/>
			<point x="636" y="53" type="line"/>
			<point x="665" y="-189" type="line"/>
			<point x="742" y="-189" type="line"/>
			<point x="746" y="71" type="line"/>
			<point x="582" y="68" type="line"/>
		</contour>
		<component base="Ka"/>
	</outline>
</glyph>
<glyph name="kadescender" format="2">
	<unicode hex="049B"/>
	<advance width="670"/>
	<outline>
		<contour>
			<point x="611" y="0" type="line"/>
			<point x="550" y="52" type="line"/>
			<point x="587" y="-153" type="line"/>
			<point x="662" y="-153" type="line"/>
			<point x="666" y="68" type="line"/>
			<point x="500" y="75" type="line"/>
			<point x="524" y="0" type="line"/>
		</contour>
		<component base="ka"/>
	</outline>
</glyph>
<glyph name="Kabashkir" format="2">
	<unicode hex="04A0"/>
	<advance width="908"/>
	<outline>
		<contour>
			<point x="771" y="-11" type="curve" smooth="yes"/>
			<point x="820" y="-11"/>
			<point x="860" y="-4"/>
			<point x="884" y="0" type="curve"/>
			<point x="884" y="71" type="line"/>
			<point x="717" y="85" type="line"/>
			<point x="808" y="24" type="line"/>
			<point x="771" y="193" type="line" smooth="yes"/>
			<point x="748" y="306"/>
			<point x="689" y="325"/>
			<point x="545" y="328" type="curve"/>
			<point x="545" y="348" type="line"/>
			<point x="603" y="364"/>
			<point x="627" y="388"/>
			<point x="654" y="449" type="curve" smooth="yes"/>
			<point x="676" y="497"/>
			<point x="694" y="536"/>
			<point x="733" y="582" type="curve"/>
			<point x="651" y="573" type="line"/>
			<point x="675" y="552"/>
			<point x="708" y="524"/>
			<point x="764" y="524" type="curve" smooth="yes"/>
			<point x="823" y="524"/>
			<point x="853" y="554"/>
			<point x="853" y="597" type="curve" smooth="yes"/>
			<point x="853" y="640"/>
			<point x="812" y="661"/>
			<point x="778" y="669" type="curve"/>
			<point x="688" y="660"/>
			<point x="637" y="615"/>
			<point x="594" y="490" type="curve" smooth="yes"/>
			<point x="562" y="398"/>
			<point x="529" y="367"/>
			<point x="470" y="367" type="curve" smooth="yes"/>
			<point x="358" y="367" type="line"/>
			<point x="358" y="301" type="line"/>
			<point x="482" y="301" type="line" smooth="yes"/>
			<point x="547" y="301"/>
			<point x="574" y="281"/>
			<point x="587" y="214" type="curve" smooth="yes"/>
			<point x="606" y="109" type="line" smooth="yes"/>
			<point x="620" y="24"/>
			<point x="671" y="-11"/>
		</contour>
		<contour>
			<point x="254" y="0" type="curve"/>
			<point x="439" y="0" type="line"/>
			<point x="439" y="98"/>
			<point x="439" y="195"/>
			<point x="439" y="292" type="curve" smooth="yes"/>
			<point x="439" y="366" type="line" smooth="yes"/>
			<point x="439" y="463"/>
			<point x="439" y="560"/>
			<point x="439" y="657" type="curve"/>
			<point x="254" y="657" type="line"/>
			<point x="254" y="560"/>
			<point x="254" y="463"/>
			<point x="254" y="366" type="curve" smooth="yes"/>
			<point x="254" y="292" type="line" smooth="yes"/>
			<point x="254" y="195"/>
			<point x="254" y="98"/>
		</contour>
		<contour>
			<point x="28" y="457" type="line"/>
			<point x="107" y="457" type="line"/>
			<point x="158" y="630" type="line"/>
			<point x="96" y="585" type="line"/>
			<point x="323" y="585" type="line"/>
			<point x="323" y="657" type="line"/>
			<point x="34" y="657" type="line"/>
		</contour>
		<contour>
			<point x="170" y="0" type="line"/>
			<point x="521" y="0" type="line"/>
			<point x="521" y="75" type="line"/>
			<point x="395" y="75" type="line"/>
			<point x="298" y="75" type="line"/>
			<point x="170" y="75" type="line"/>
		</contour>
		<contour>
			<point x="381" y="582" type="line"/>
			<point x="395" y="582" type="line"/>
			<point x="521" y="582" type="line"/>
			<point x="521" y="657" type="line"/>
			<point x="381" y="657" type="line"/>
		</contour>
	</outline>
</glyph>
<glyph name="Endescender" format="2">
	<unicode hex="04A2"/>
	<advance width="840"/>
	<outline>
		<contour>
			<point x="658" y="0" type="line"/>
			<point x="769" y="0" type="line"/>
			<point x="705" y="53" type="line"/>
			<point x="734" y="-189" type="line"/>
			<point x="811" y="-189" type="line"/>
			<point x="813" y="75" type="line"/>
			<point x="658" y="67" type="line"/>
		</contour>
		<component base="En"/>
	</outline>
</glyph>
<glyph name="ustraightstroke" format="2">
	<unicode hex="04B1"/>
	<advance width="641"/>
	<outline>
		<contour>
			<point x="109" y="0" type="line"/>
			<point x="533" y="0" type="line"/>
			<point x="533" y="58" type="line"/>
			<point x="108" y="58" type="line"/>
		</contour>
		<component base="ustraight"/>
	</outline>
	<anchor name="aboveLC" x="358" y="534"/>
</glyph>
<glyph name="hadescender" format="2">
	<unicode hex="04B3"/>
	<advance width="653"/>
	<outline>
		<contour>
			<point x="563" y="0" type="line"/>
			<point x="498" y="53" type="line"/>
			<point x="540" y="-157" type="line"/>
			<point x="608" y="-157" type="line"/>
			<point x="613" y="71" type="line"/>
			<point x="472" y="71" type="line"/>
			<point x="472" y="0" type="line"/>
		</contour>
		<component base="ha"/>
	</outline>
</glyph>
<glyph name="Chedescender" format="2">
	<unicode hex="04B6"/>
	<advance width="757"/>
	<outline>
		<contour>
			<point x="571" y="0" type="line"/>
			<point x="682" y="0" type="line"/>
			<point x="618" y="53" type="line"/>
			<point x="647" y="-189" type="line"/>
			<point x="724" y="-189" type="line"/>
			<point x="727" y="75" type="line"/>
			<point x="571" y="75" type="line"/>
		</contour>
		<component base="Che"/>
	</outline>
</glyph>
<glyph name="chedescender" format="2">
	<unicode hex="04B7"/>
	<advance width="698"/>
	<outline>
		<contour>
			<point x="622" y="0" type="line"/>
			<point x="557" y="53" type="line"/>
			<point x="599" y="-157" type="line"/>
			<point x="667" y="-157" type="line"/>
			<point x="673" y="71" type="line"/>
			<point x="531" y="71" type="line"/>
			<point x="531" y="0" type="line"/>
		</contour>
		<component base="che"/>
	</outline>
</glyph>
<glyph name="a.sups" format="2">
	<unicode hex="1D43"/>
	<advance width="436"/>
	<outline>
		<contour>
			<point x="342" y="408" type="curve" smooth="yes"/>
			<point x="379" y="408"/>
			<point x="412" y="428"/>
			<point x="428" y="448" type="curve"/>
			<point x="420" y="489" type="line"/>
			<point x="411" y="488"/>
			<point x="401" y="487"/>
			<point x="391" y="487" type="curve" smooth="yes"/>
			<point x="377" y="487"/>
			<point x="369" y="494"/>
			<point x="369" y="508" type="curve" smooth="yes"/>
			<point x="369" y="650" type="line" smooth="yes"/>
			<point x="369" y="734"/>
			<point x="314" y="775"/>
			<point x="210" y="775" type="curve" smooth="yes"/>
			<point x="119" y="775"/>
			<point x="55" y="740"/>
			<point x="45" y="674" type="curve"/>
			<point x="52" y="646"/>
			<point x="68" y="632"/>
			<point x="98" y="632" type="curve" smooth="yes"/>
			<point x="127" y="632"/>
			<point x="152" y="652"/>
			<point x="152" y="704" type="curve" smooth="yes"/>
			<point x="153" y="759" type="line"/>
			<point x="126" y="719" type="line"/>
			<point x="138" y="725"/>
			<point x="159" y="730"/>
			<point x="182" y="730" type="curve" smooth="yes"/>
			<point x="222" y="730"/>
			<point x="244" y="714"/>
			<point x="244" y="668" type="curve" smooth="yes"/>
			<point x="244" y="479" type="line"/>
			<point x="251" y="479" type="line" smooth="yes"/>
			<point x="261" y="434"/>
			<point x="288" y="408"/>
		</contour>
		<contour>
			<point x="129" y="407" type="curve" smooth="yes"/>
			<point x="189" y="407"/>
			<point x="214" y="440"/>
			<point x="231" y="468" type="curve" smooth="yes"/>
			<point x="264" y="468" type="line"/>
			<point x="264" y="502" type="line"/>
			<point x="245" y="494"/>
			<point x="225" y="488"/>
			<point x="202" y="488" type="curve" smooth="yes"/>
			<point x="165" y="488"/>
			<point x="146" y="505"/>
			<point x="146" y="532" type="curve" smooth="yes"/>
			<point x="146" y="551"/>
			<point x="156" y="570"/>
			<point x="188" y="579" type="curve" smooth="yes"/>
			<point x="216" y="587"/>
			<point x="244" y="593"/>
			<point x="266" y="599" type="curve"/>
			<point x="266" y="630" type="line"/>
			<point x="234" y="624"/>
			<point x="201" y="616"/>
			<point x="169" y="610" type="curve" smooth="yes"/>
			<point x="71" y="589"/>
			<point x="33" y="552"/>
			<point x="33" y="497" type="curve" smooth="yes"/>
			<point x="33" y="445"/>
			<point x="72" y="407"/>
		</contour>
	</outline>
</glyph>
<glyph name="b.sups" format="2">
	<unicode hex="1D47"/>
	<advance width="482"/>
	<outline>
		<contour>
			<point x="27" y="405" type="line"/>
			<point x="180" y="399" type="line"/>
			<point x="192" y="470" type="line"/>
			<point x="197" y="470" type="line"/>
			<point x="197" y="679" type="line"/>
			<point x="192" y="679" type="line"/>
			<point x="197" y="884" type="line"/>
			<point x="156" y="884" type="line"/>
			<point x="24" y="861" type="line"/>
			<point x="24" y="821" type="line"/>
			<point x="72" y="808" type="line"/>
			<point x="72" y="461" type="line"/>
			<point x="27" y="450" type="line"/>
		</contour>
		<contour>
			<point x="313" y="394" type="curve" smooth="yes"/>
			<point x="391" y="394"/>
			<point x="448" y="461"/>
			<point x="448" y="577" type="curve" smooth="yes"/>
			<point x="448" y="693"/>
			<point x="391" y="762"/>
			<point x="313" y="762" type="curve" smooth="yes"/>
			<point x="258" y="762"/>
			<point x="235" y="738"/>
			<point x="215" y="689" type="curve"/>
			<point x="175" y="689" type="line"/>
			<point x="175" y="647" type="line"/>
			<point x="200" y="665"/>
			<point x="222" y="675"/>
			<point x="250" y="675" type="curve" smooth="yes"/>
			<point x="293" y="675"/>
			<point x="319" y="647"/>
			<point x="319" y="574" type="curve" smooth="yes"/>
			<point x="319" y="502"/>
			<point x="293" y="474"/>
			<point x="250" y="474" type="curve" smooth="yes"/>
			<point x="222" y="474"/>
			<point x="199" y="483"/>
			<point x="175" y="501" type="curve"/>
			<point x="175" y="459" type="line"/>
			<point x="215" y="459" type="line"/>
			<point x="230" y="426"/>
			<point x="253" y="394"/>
		</contour>
	</outline>
</glyph>
<glyph name="d.sups" format="2">
	<unicode hex="1D48"/>
	<advance width="479"/>
	<outline>
		<contour>
			<point x="168" y="394" type="curve" smooth="yes"/>
			<point x="229" y="394"/>
			<point x="251" y="433"/>
			<point x="266" y="467" type="curve"/>
			<point x="306" y="467" type="line"/>
			<point x="306" y="507" type="line"/>
			<point x="284" y="489"/>
			<point x="260" y="478"/>
			<point x="232" y="478" type="curve" smooth="yes"/>
			<point x="188" y="478"/>
			<point x="162" y="507"/>
			<point x="162" y="579" type="curve" smooth="yes"/>
			<point x="162" y="651"/>
			<point x="188" y="680"/>
			<point x="232" y="680" type="curve" smooth="yes"/>
			<point x="262" y="680"/>
			<point x="287" y="668"/>
			<point x="306" y="652" type="curve"/>
			<point x="306" y="694" type="line"/>
			<point x="266" y="694" type="line"/>
			<point x="251" y="727"/>
			<point x="229" y="762"/>
			<point x="168" y="762" type="curve" smooth="yes"/>
			<point x="90" y="762"/>
			<point x="34" y="692"/>
			<point x="34" y="577" type="curve" smooth="yes"/>
			<point x="34" y="461"/>
			<point x="90" y="394"/>
		</contour>
		<contour>
			<point x="302" y="399" type="line"/>
			<point x="454" y="405" type="line"/>
			<point x="454" y="450" type="line"/>
			<point x="410" y="461" type="line"/>
			<point x="410" y="884" type="line"/>
			<point x="369" y="884" type="line"/>
			<point x="236" y="861" type="line"/>
			<point x="236" y="821" type="line"/>
			<point x="285" y="808" type="line"/>
			<point x="290" y="679" type="line"/>
			<point x="285" y="679" type="line"/>
			<point x="285" y="473" type="line"/>
			<point x="290" y="473" type="line"/>
		</contour>
	</outline>
</glyph>
<glyph name="k.sups" format="2">
	<unicode hex="1D4F"/>
	<advance width="488"/>
	<outline>
		<contour>
			<point x="72" y="418" type="line"/>
			<point x="197" y="418" type="line"/>
			<point x="197" y="897" type="line"/>
			<point x="156" y="897" type="line"/>
			<point x="24" y="874" type="line"/>
			<point x="24" y="835" type="line"/>
			<point x="72" y="821" type="line"/>
		</contour>
		<contour>
			<point x="27" y="418" type="line"/>
			<point x="237" y="418" type="line"/>
			<point x="237" y="469" type="line"/>
			<point x="166" y="469" type="line"/>
			<point x="103" y="469" type="line"/>
			<point x="27" y="469" type="line"/>
		</contour>
		<contour>
			<point x="317" y="418" type="line"/>
			<point x="469" y="418" type="line"/>
			<point x="469" y="468" type="line"/>
			<point x="431" y="468" type="line"/>
			<point x="316" y="680" type="line"/>
			<point x="235" y="602" type="line"/>
		</contour>
		<contour>
			<point x="262" y="718" type="line"/>
			<point x="347" y="708" type="line"/>
			<point x="367" y="708" type="line"/>
			<point x="458" y="718" type="line"/>
			<point x="458" y="765" type="line"/>
			<point x="262" y="765" type="line"/>
		</contour>
		<contour>
			<point x="147" y="514" type="line"/>
			<point x="454" y="755" type="line"/>
			<point x="369" y="755" type="line"/>
			<point x="210" y="608" type="line"/>
			<point x="147" y="608" type="line"/>
		</contour>
	</outline>
</glyph>
<glyph name="p.sups" format="2">
	<unicode hex="1D56"/>
	<advance width="482"/>
	<outline>
		<contour>
			<point x="313" y="408" type="curve" smooth="yes"/>
			<point x="391" y="408"/>
			<point x="448" y="475"/>
			<point x="448" y="590" type="curve" smooth="yes"/>
			<point x="448" y="708"/>
			<point x="391" y="775"/>
			<point x="313" y="775" type="curve" smooth="yes"/>
			<point x="253" y="775"/>
			<point x="231" y="737"/>
			<point x="215" y="703" type="curve"/>
			<point x="175" y="703" type="line"/>
			<point x="175" y="660" type="line"/>
			<point x="194" y="677"/>
			<point x="218" y="688"/>
			<point x="250" y="688" type="curve" smooth="yes"/>
			<point x="293" y="688"/>
			<point x="319" y="660"/>
			<point x="319" y="588" type="curve" smooth="yes"/>
			<point x="319" y="515"/>
			<point x="293" y="487"/>
			<point x="250" y="487" type="curve" smooth="yes"/>
			<point x="220" y="487"/>
			<point x="196" y="498"/>
			<point x="175" y="515" type="curve"/>
			<point x="175" y="473" type="line"/>
			<point x="215" y="473" type="line"/>
			<point x="230" y="440"/>
			<point x="253" y="408"/>
		</contour>
		<contour>
			<point x="72" y="270" type="line"/>
			<point x="197" y="270" type="line"/>
			<point x="191" y="483" type="line"/>
			<point x="197" y="483" type="line"/>
			<point x="197" y="695" type="line"/>
			<point x="193" y="695" type="line"/>
			<point x="180" y="765" type="line"/>
			<point x="144" y="765" type="line"/>
			<point x="25" y="726" type="line"/>
			<point x="25" y="679" type="line"/>
			<point x="72" y="679" type="line"/>
		</contour>
		<contour>
			<point x="27" y="270" type="line"/>
			<point x="256" y="270" type="line"/>
			<point x="256" y="320" type="line"/>
			<point x="166" y="320" type="line"/>
			<point x="103" y="320" type="line"/>
			<point x="27" y="320" type="line"/>
		</contour>
	</outline>
</glyph>
<glyph name="t.sups" format="2">
	<unicode hex="1D57"/>
	<advance width="291"/>
	<outline>
		<contour>
			<point x="172" y="395" type="curve" smooth="yes"/>
			<point x="231" y="395"/>
			<point x="263" y="420"/>
			<point x="274" y="428" type="curve"/>
			<point x="258" y="474" type="line"/>
			<point x="252" y="472"/>
			<point x="243" y="469"/>
			<point x="228" y="469" type="curve" smooth="yes"/>
			<point x="201" y="469"/>
			<point x="187" y="481"/>
			<point x="187" y="511" type="curve" smooth="yes"/>
			<point x="187" y="728" type="line"/>
			<point x="181" y="728" type="line"/>
			<point x="192" y="843" type="line"/>
			<point x="118" y="843" type="line"/>
			<point x="62" y="721" type="line"/>
			<point x="96" y="745" type="line"/>
			<point x="16" y="734" type="line"/>
			<point x="16" y="687" type="line"/>
			<point x="61" y="687" type="line"/>
			<point x="61" y="505" type="line" smooth="yes"/>
			<point x="61" y="426"/>
			<point x="104" y="395"/>
		</contour>
		<contour>
			<point x="126" y="687" type="line"/>
			<point x="261" y="687" type="line"/>
			<point x="261" y="742" type="line"/>
			<point x="126" y="742" type="line"/>
		</contour>
	</outline>
</glyph>
<glyph name="u.sups" format="2">
	<unicode hex="1D58"/>
	<advance width="498"/>
	<outline>
		<contour>
			<point x="173" y="394" type="curve" smooth="yes"/>
			<point x="235" y="394"/>
			<point x="264" y="431"/>
			<point x="290" y="469" type="curve"/>
			<point x="322" y="469" type="line"/>
			<point x="322" y="516" type="line"/>
			<point x="293" y="495"/>
			<point x="267" y="486"/>
			<point x="240" y="486" type="curve" smooth="yes"/>
			<point x="206" y="486"/>
			<point x="191" y="501"/>
			<point x="191" y="535" type="curve" smooth="yes"/>
			<point x="191" y="751" type="line"/>
			<point x="150" y="751" type="line"/>
			<point x="18" y="732" type="line"/>
			<point x="18" y="689" type="line"/>
			<point x="98" y="670" type="line"/>
			<point x="69" y="707" type="line"/>
			<point x="66" y="512" type="line" smooth="yes"/>
			<point x="65" y="435"/>
			<point x="104" y="394"/>
		</contour>
		<contour>
			<point x="322" y="397" type="line"/>
			<point x="475" y="405" type="line"/>
			<point x="475" y="449" type="line"/>
			<point x="428" y="460" type="line"/>
			<point x="428" y="751" type="line"/>
			<point x="387" y="751" type="line"/>
			<point x="255" y="732" type="line"/>
			<point x="255" y="689" type="line"/>
			<point x="303" y="678" type="line"/>
			<point x="303" y="474" type="line"/>
			<point x="313" y="474" type="line"/>
		</contour>
	</outline>
</glyph>
<glyph name="f.sups" format="2">
	<unicode hex="1DA0"/>
	<advance width="292"/>
	<outline>
		<contour>
			<point x="76" y="405" type="line"/>
			<point x="201" y="405" type="line"/>
			<point x="201" y="726" type="line"/>
			<point x="201" y="806"/>
			<point x="203" y="858"/>
			<point x="212" y="870" type="curve" smooth="yes"/>
			<point x="214" y="874"/>
			<point x="216" y="876"/>
			<point x="218" y="879" type="curve"/>
			<point x="195" y="863" type="line"/>
			<point x="238" y="863" type="line"/>
			<point x="218" y="885" type="line"/>
			<point x="241" y="828" type="line" smooth="yes"/>
			<point x="255" y="800"/>
			<point x="270" y="787"/>
			<point x="299" y="787" type="curve" smooth="yes"/>
			<point x="332" y="787"/>
			<point x="348" y="807"/>
			<point x="349" y="839" type="curve"/>
			<point x="337" y="877"/>
			<point x="304" y="892"/>
			<point x="244" y="892" type="curve" smooth="yes"/>
			<point x="197" y="892"/>
			<point x="163" y="875"/>
			<point x="137" y="855" type="curve" smooth="yes"/>
			<point x="105" y="832"/>
			<point x="87" y="800"/>
			<point x="76" y="719" type="curve"/>
			<point x="107" y="745" type="line"/>
			<point x="30" y="734" type="line"/>
			<point x="30" y="687" type="line"/>
			<point x="76" y="687" type="line"/>
		</contour>
		<contour>
			<point x="31" y="405" type="line"/>
			<point x="256" y="405" type="line"/>
			<point x="256" y="455" type="line"/>
			<point x="181" y="455" type="line"/>
			<point x="95" y="455" type="line"/>
			<point x="31" y="455" type="line"/>
		</contour>
		<contour>
			<point x="152" y="687" type="line"/>
			<point x="268" y="687" type="line"/>
			<point x="268" y="742" type="line"/>
			<point x="152" y="742" type="line"/>
		</contour>
	</outline>
</glyph>
<glyph name="z.sups" format="2">
	<unicode hex="1DBB"/>
	<advance width="393"/>
	<outline>
		<contour>
			<point x="26" y="405" type="line"/>
			<point x="359" y="405" type="line"/>
			<point x="365" y="525" type="line"/>
			<point x="308" y="525" type="line"/>
			<point x="281" y="418" type="line"/>
			<point x="301" y="450" type="line"/>
			<point x="169" y="450" type="line"/>
			<point x="169" y="461" type="line"/>
			<point x="358" y="707" type="line"/>
			<point x="358" y="751" type="line"/>
			<point x="39" y="751" type="line"/>
			<point x="33" y="636" type="line"/>
			<point x="90" y="636" type="line"/>
			<point x="117" y="738" type="line"/>
			<point x="97" y="705" type="line"/>
			<point x="214" y="705" type="line"/>
			<point x="214" y="695" type="line"/>
			<point x="26" y="449" type="line"/>
		</contour>
	</outline>
</glyph>
<glyph name="zero.sups" format="2">
	<unicode hex="2070"/>
	<advance width="427"/>
	<outline>
		<contour>
			<point x="214" y="394" type="curve" smooth="yes"/>
			<point x="321" y="394"/>
			<point x="404" y="465"/>
			<point x="404" y="620" type="curve" smooth="yes"/>
			<point x="404" y="773"/>
			<point x="321" y="839"/>
			<point x="214" y="839" type="curve" smooth="yes"/>
			<point x="106" y="839"/>
			<point x="23" y="768"/>
			<point x="23" y="614" type="curve" smooth="yes"/>
			<point x="23" y="460"/>
			<point x="106" y="394"/>
		</contour>
		<contour>
			<point x="214" y="444" type="curve" smooth="yes"/>
			<point x="165" y="444"/>
			<point x="152" y="482"/>
			<point x="152" y="617" type="curve" smooth="yes"/>
			<point x="152" y="752"/>
			<point x="165" y="790"/>
			<point x="214" y="790" type="curve" smooth="yes"/>
			<point x="261" y="790"/>
			<point x="275" y="752"/>
			<point x="275" y="617" type="curve" smooth="yes"/>
			<point x="275" y="482"/>
			<point x="261" y="444"/>
		</contour>
	</outline>
</glyph>
<glyph name="i.sups" format="2">
	<unicode hex="2071"/>
	<advance width="271"/>
	<outline>
		<contour>
			<point x="74" y="418" type="line"/>
			<point x="199" y="418" type="line"/>
			<point x="199" y="765" type="line"/>
			<point x="159" y="765" type="line"/>
			<point x="27" y="726" type="line"/>
			<point x="27" y="679" type="line"/>
			<point x="74" y="679" type="line"/>
		</contour>
		<contour>
			<point x="30" y="418" type="line"/>
			<point x="243" y="418" type="line"/>
			<point x="243" y="469" type="line"/>
			<point x="168" y="469" type="line"/>
			<point x="105" y="469" type="line"/>
			<point x="30" y="469" type="line"/>
		</contour>
		<contour>
			<point x="135" y="807" type="curve" smooth="yes"/>
			<point x="173" y="807"/>
			<point x="199" y="832"/>
			<point x="199" y="868" type="curve" smooth="yes"/>
			<point x="199" y="904"/>
			<point x="173" y="930"/>
			<point x="135" y="930" type="curve" smooth="yes"/>
			<point x="98" y="930"/>
			<point x="71" y="904"/>
			<point x="71" y="868" type="curve" smooth="yes"/>
			<point x="71" y="832"/>
			<point x="98" y="807"/>
		</contour>
	</outline>
</glyph>
<glyph name="four.sups" format="2">
	<unicode hex="2074"/>
	<advance width="427"/>
	<outline>
		<contour>
			<point x="211" y="411" type="line"/>
			<point x="334" y="411" type="line"/>
			<point x="334" y="842" type="line"/>
			<point x="223" y="842" type="line"/>
			<point x="20" y="563" type="line"/>
			<point x="20" y="498" type="line"/>
			<point x="406" y="498" type="line"/>
			<point x="406" y="575" type="line"/>
			<point x="90" y="575" type="line"/>
			<point x="90" y="607" type="line"/>
			<point x="75" y="563" type="line"/>
			<point x="212" y="753" type="line"/>
			<point x="180" y="740" type="line"/>
			<point x="214" y="740" type="line"/>
			<point x="214" y="542" type="line"/>
			<point x="211" y="527" type="line"/>
		</contour>
	</outline>
</glyph>
<glyph name="eight.sups" format="2">
	<unicode hex="2078"/>
	<advance width="427"/>
	<outline>
		<contour>
			<point x="204" y="394" type="curve" smooth="yes"/>
			<point x="338" y="394"/>
			<point x="405" y="445"/>
			<point x="405" y="520" type="curve" smooth="yes"/>
			<point x="405" y="590"/>
			<point x="345" y="629"/>
			<point x="258" y="664" type="curve" smooth="yes"/>
			<point x="187" y="692"/>
			<point x="159" y="709"/>
			<point x="159" y="745" type="curve" smooth="yes"/>
			<point x="159" y="775"/>
			<point x="180" y="793"/>
			<point x="215" y="793" type="curve" smooth="yes"/>
			<point x="252" y="793"/>
			<point x="275" y="776"/>
			<point x="275" y="737" type="curve" smooth="yes"/>
			<point x="275" y="701"/>
			<point x="253" y="678"/>
			<point x="234" y="654" type="curve"/>
			<point x="260" y="640" type="line"/>
			<point x="279" y="671" type="line"/>
			<point x="342" y="677"/>
			<point x="384" y="695"/>
			<point x="384" y="748" type="curve" smooth="yes"/>
			<point x="384" y="801"/>
			<point x="316" y="839"/>
			<point x="221" y="839" type="curve" smooth="yes"/>
			<point x="110" y="839"/>
			<point x="43" y="787"/>
			<point x="43" y="718" type="curve" smooth="yes"/>
			<point x="43" y="651"/>
			<point x="97" y="617"/>
			<point x="167" y="588" type="curve" smooth="yes"/>
			<point x="248" y="555"/>
			<point x="284" y="536"/>
			<point x="284" y="500" type="curve" smooth="yes"/>
			<point x="284" y="463"/>
			<point x="258" y="441"/>
			<point x="210" y="441" type="curve" smooth="yes"/>
			<point x="165" y="441"/>
			<point x="138" y="460"/>
			<point x="138" y="502" type="curve" smooth="yes"/>
			<point x="138" y="540"/>
			<point x="162" y="572"/>
			<point x="194" y="601" type="curve"/>
			<point x="160" y="609" type="line"/>
			<point x="142" y="582" type="line"/>
			<point x="61" y="576"/>
			<point x="24" y="544"/>
			<point x="24" y="495" type="curve" smooth="yes"/>
			<point x="24" y="437"/>
			<point x="85" y="394"/>
		</contour>
	</outline>
</glyph>
<glyph name="parenleft.sups" format="2">
	<unicode hex="207D"/>
	<advance width="306"/>
	<outline>
		<contour>
			<point x="175" y="605" type="curve" smooth="yes"/>
			<point x="175" y="710"/>
			<point x="203" y="786"/>
			<point x="268" y="869" type="curve"/>
			<point x="232" y="903" type="line"/>
			<point x="124" y="823"/>
			<point x="64" y="731"/>
			<point x="64" y="605" type="curve" smooth="yes"/>
			<point x="64" y="480"/>
			<point x="124" y="387"/>
			<point x="232" y="308" type="curve"/>
			<point x="268" y="341" type="line"/>
			<point x="203" y="424"/>
			<point x="175" y="501"/>
		</contour>
	</outline>
</glyph>
<glyph name="parenright.sups" format="2">
	<unicode hex="207E"/>
	<advance width="305"/>
	<outline>
		<contour>
			<point x="130" y="605" type="curve" smooth="yes"/>
			<point x="130" y="501"/>
			<point x="102" y="425"/>
			<point x="37" y="342" type="curve"/>
			<point x="74" y="308" type="line"/>
			<point x="181" y="387"/>
			<point x="241" y="480"/>
			<point x="241" y="605" type="curve" smooth="yes"/>
			<point x="241" y="731"/>
			<point x="181" y="824"/>
			<point x="74" y="902" type="curve"/>
			<point x="37" y="869" type="line"/>
			<point x="102" y="786"/>
			<point x="130" y="709"/>
		</contour>
	</outline>
</glyph>
<glyph name="n.sups" format="2">
	<unicode hex="207F"/>
	<advance width="504"/>
	<outline>
		<contour>
			<point x="76" y="405" type="line"/>
			<point x="201" y="405" type="line"/>
			<point x="201" y="682" type="line"/>
			<point x="191" y="682" type="line"/>
			<point x="180" y="751" type="line"/>
			<point x="144" y="751" type="line"/>
			<point x="29" y="712" type="line"/>
			<point x="29" y="666" type="line"/>
			<point x="76" y="666" type="line"/>
		</contour>
		<contour>
			<point x="312" y="405" type="line"/>
			<point x="437" y="405" type="line"/>
			<point x="437" y="644" type="line" smooth="yes"/>
			<point x="437" y="721"/>
			<point x="399" y="762"/>
			<point x="330" y="762" type="curve" smooth="yes"/>
			<point x="268" y="762"/>
			<point x="239" y="724"/>
			<point x="212" y="687" type="curve"/>
			<point x="181" y="687" type="line"/>
			<point x="181" y="640" type="line"/>
			<point x="211" y="660"/>
			<point x="236" y="669"/>
			<point x="264" y="669" type="curve" smooth="yes"/>
			<point x="297" y="669"/>
			<point x="312" y="655"/>
			<point x="312" y="621" type="curve" smooth="yes"/>
		</contour>
		<contour>
			<point x="31" y="405" type="line"/>
			<point x="236" y="405" type="line"/>
			<point x="236" y="455" type="line"/>
			<point x="170" y="455" type="line"/>
			<point x="107" y="455" type="line"/>
			<point x="31" y="455" type="line"/>
		</contour>
		<contour>
			<point x="277" y="405" type="line"/>
			<point x="482" y="405" type="line"/>
			<point x="482" y="455" type="line"/>
			<point x="407" y="455" type="line"/>
			<point x="343" y="455" type="line"/>
			<point x="277" y="455" type="line"/>
		</contour>
	</outline>
</glyph>
<glyph name="won" format="2">
	<unicode hex="20A9"/>
	<advance width="581"/>
	<outline>
		<contour>
			<point x="22" y="585" type="line"/>
			<point x="80" y="585" type="line"/>
			<point x="189" y="585" type="line"/>
			<point x="248" y="585" type="line"/>
			<point x="248" y="658" type="line"/>
			<point x="22" y="658" type="line"/>
		</contour>
		<contour>
			<point x="22" y="238" type="line"/>
			<point x="99" y="238" type="line"/>
			<point x="99" y="254" type="line"/>
			<point x="491" y="254" type="line"/>
			<point x="491" y="238" type="line"/>
			<point x="559" y="238" type="line"/>
			<point x="559" y="306" type="line"/>
			<point x="22" y="306" type="line"/>
		</contour>
		<contour>
			<point x="88" y="0" type="line"/>
			<point x="282" y="0" type="line"/>
			<point x="309" y="449" type="line"/>
			<point x="334" y="449" type="line"/>
			<point x="362" y="0" type="line"/>
			<point x="493" y="0" type="line"/>
			<point x="531" y="658" type="line"/>
			<point x="455" y="658" type="line"/>
			<point x="457" y="50" type="line"/>
			<point x="422" y="50" type="line"/>
			<point x="392" y="540" type="line"/>
			<point x="265" y="540" type="line"/>
			<point x="236" y="50" type="line"/>
			<point x="201" y="50" type="line"/>
			<point x="203" y="658" type="line"/>
			<point x="50" y="658" type="line"/>
		</contour>
		<contour>
			<point x="413" y="585" type="line"/>
			<point x="469" y="585" type="line"/>
			<point x="505" y="585" type="line"/>
			<point x="559" y="585" type="line"/>
			<point x="559" y="658" type="line"/>
			<point x="413" y="658" type="line"/>
		</contour>
	</outline>
</glyph>
<glyph name="dong" format="2">
	<unicode hex="20AB"/>
	<advance width="581"/>
	<outline>
		<contour>
			<point x="71" y="-27" type="line"/>
			<point x="536" y="-27" type="line"/>
			<point x="536" y="37" type="line"/>
			<point x="71" y="37" type="line"/>
		</contour>
		<contour>
			<point x="200" y="83" type="curve" smooth="yes"/>
			<point x="271" y="83"/>
			<point x="295" y="126"/>
			<point x="312" y="167" type="curve"/>
			<point x="363" y="167" type="line"/>
			<point x="363" y="217" type="line"/>
			<point x="334" y="191"/>
			<point x="305" y="179"/>
			<point x="274" y="179" type="curve" smooth="yes"/>
			<point x="222" y="179"/>
			<point x="192" y="200"/>
			<point x="192" y="277" type="curve" smooth="yes"/>
			<point x="192" y="354"/>
			<point x="222" y="388"/>
			<point x="274" y="388" type="curve" smooth="yes"/>
			<point x="308" y="388"/>
			<point x="337" y="376"/>
			<point x="363" y="351" type="curve"/>
			<point x="363" y="404" type="line"/>
			<point x="312" y="404" type="line"/>
			<point x="296" y="442"/>
			<point x="271" y="479"/>
			<point x="200" y="479" type="curve" smooth="yes"/>
			<point x="109" y="479"/>
			<point x="44" y="401"/>
			<point x="44" y="273" type="curve" smooth="yes"/>
			<point x="44" y="146"/>
			<point x="109" y="83"/>
		</contour>
		<contour>
			<point x="127" y="512" type="line"/>
			<point x="535" y="512" type="line"/>
			<point x="535" y="569" type="line"/>
			<point x="127" y="569" type="line"/>
		</contour>
		<contour>
			<point x="355" y="89" type="line"/>
			<point x="533" y="95" type="line"/>
			<point x="533" y="148" type="line"/>
			<point x="479" y="163" type="line"/>
			<point x="479" y="556" type="line"/>
			<point x="479" y="669" type="line"/>
			<point x="438" y="669" type="line"/>
			<point x="277" y="650" type="line"/>
			<point x="277" y="602" type="line"/>
			<point x="337" y="595" type="line"/>
			<point x="342" y="382" type="line"/>
			<point x="336" y="382" type="line"/>
			<point x="336" y="173" type="line"/>
			<point x="341" y="173" type="line"/>
		</contour>
	</outline>
</glyph>
<glyph name="Euro" format="2">
	<unicode hex="20AC"/>
	<advance width="581"/>
	<outline>
		<contour>
			<point x="345" y="-12" type="curve" smooth="yes"/>
			<point x="462" y="-12"/>
			<point x="529" y="30"/>
			<point x="551" y="113" type="curve"/>
			<point x="546" y="151"/>
			<point x="524" y="175"/>
			<point x="485" y="175" type="curve" smooth="yes"/>
			<point x="444" y="175"/>
			<point x="418" y="151"/>
			<point x="412" y="101" type="curve" smooth="yes"/>
			<point x="401" y="24" type="line"/>
			<point x="477" y="46" type="line"/>
			<point x="453" y="46"/>
			<point x="429" y="46"/>
			<point x="406" y="46" type="curve" smooth="yes"/>
			<point x="293" y="46"/>
			<point x="255" y="121"/>
			<point x="255" y="318" type="curve" smooth="yes"/>
			<point x="255" y="516"/>
			<point x="294" y="588"/>
			<point x="406" y="588" type="curve" smooth="yes"/>
			<point x="429" y="588"/>
			<point x="453" y="588"/>
			<point x="477" y="588" type="curve"/>
			<point x="401" y="609" type="line"/>
			<point x="412" y="533" type="line" smooth="yes"/>
			<point x="418" y="483"/>
			<point x="444" y="459"/>
			<point x="485" y="459" type="curve" smooth="yes"/>
			<point x="524" y="459"/>
			<point x="546" y="483"/>
			<point x="551" y="521" type="curve"/>
			<point x="529" y="604"/>
			<point x="462" y="646"/>
			<point x="348" y="646" type="curve" smooth="yes"/>
			<point x="192" y="646"/>
			<point x="78" y="532"/>
			<point x="78" y="314" type="curve" smooth="yes"/>
			<point x="78" y="97"/>
			<point x="191" y="-12"/>
		</contour>
		<contour>
			<point x="29" y="355" type="line"/>
			<point x="424" y="355" type="line"/>
			<point x="424" y="414" type="line"/>
			<point x="29" y="414" type="line"/>
		</contour>
		<contour>
			<point x="29" y="220" type="line"/>
			<point x="424" y="220" type="line"/>
			<point x="424" y="279" type="line"/>
			<point x="29" y="279" type="line"/>
		</contour>
	</outline>
</glyph>
<glyph name="tugrik" format="2">
	<unicode hex="20AE"/>
	<advance width="581"/>
	<outline>
		<contour>
			<point x="21" y="466" type="line"/>
			<point x="95" y="466" type="line"/>
			<point x="133" y="607" type="line"/>
			<point x="86" y="565" type="line"/>
			<point x="494" y="565" type="line"/>
			<point x="449" y="607" type="line"/>
			<point x="486" y="466" type="line"/>
			<point x="560" y="466" type="line"/>
			<point x="556" y="634" type="line"/>
			<point x="25" y="634" type="line"/>
		</contour>
		<contour>
			<point x="103" y="109" type="line"/>
			<point x="289" y="178" type="line"/>
			<point x="289" y="238" type="line"/>
			<point x="103" y="170" type="line"/>
		</contour>
		<contour>
			<point x="103" y="245" type="line"/>
			<point x="289" y="314" type="line"/>
			<point x="289" y="374" type="line"/>
			<point x="103" y="306" type="line"/>
		</contour>
		<contour>
			<point x="127" y="0" type="line"/>
			<point x="454" y="0" type="line"/>
			<point x="454" y="66" type="line"/>
			<point x="334" y="66" type="line"/>
			<point x="247" y="66" type="line"/>
			<point x="127" y="66" type="line"/>
		</contour>
		<contour>
			<point x="205" y="0" type="curve"/>
			<point x="376" y="0" type="line"/>
			<point x="376" y="82"/>
			<point x="376" y="165"/>
			<point x="376" y="236" type="curve" smooth="yes"/>
			<point x="376" y="372" type="line" smooth="yes"/>
			<point x="376" y="466"/>
			<point x="376" y="550"/>
			<point x="376" y="634" type="curve"/>
			<point x="205" y="634" type="line"/>
			<point x="205" y="550"/>
			<point x="205" y="466"/>
			<point x="205" y="324" type="curve" smooth="yes"/>
			<point x="205" y="193" type="line" smooth="yes"/>
			<point x="205" y="165"/>
			<point x="205" y="82"/>
		</contour>
		<contour>
			<point x="292" y="170" type="line"/>
			<point x="478" y="239" type="line"/>
			<point x="478" y="299" type="line"/>
			<point x="292" y="231" type="line"/>
		</contour>
		<contour>
			<point x="292" y="306" type="line"/>
			<point x="478" y="375" type="line"/>
			<point x="478" y="435" type="line"/>
			<point x="292" y="367" type="line"/>
		</contour>
	</outline>
</glyph>
<glyph name="arrowleft" format="2">
	<unicode hex="2190"/>
	<advance width="700"/>
	<outline>
		<contour>
			<point x="676" y="343" type="line"/>
			<point x="432" y="343" type="line"/>
			<point x="159" y="312" type="line"/>
			<point x="152" y="327" type="line"/>
			<point x="423" y="538" type="line"/>
			<point x="361" y="612" type="line"/>
			<point x="31" y="325" type="line"/>
			<point x="31" y="246" type="line"/>
			<point x="361" y="-41" type="line"/>
			<point x="424" y="34" type="line"/>
			<point x="152" y="244" type="line"/>
			<point x="159" y="259" type="line"/>
			<point x="432" y="228" type="line"/>
			<point x="676" y="228" type="line"/>
		</contour>
	</outline>
</glyph>
<glyph name="arrowup" format="2">
	<unicode hex="2191"/>
	<advance width="700"/>
	<outline>
		<contour>
			<point x="411" y="-36" type="line"/>
			<point x="411" y="207" type="line"/>
			<point x="380" y="480" type="line"/>
			<point x="395" y="487" type="line"/>
			<point x="605" y="216" type="line"/>
			<point x="680" y="278" type="line"/>
			<point x="393" y="608" type="line"/>
			<point x="314" y="608" type="line"/>
			<point x="27" y="278" type="line"/>
			<point x="102" y="215" type="line"/>
			<point x="312" y="487" type="line"/>
			<point x="327" y="480" type="line"/>
			<point x="296" y="207" type="line"/>
			<point x="296" y="-36" type="line"/>
		</contour>
	</outline>
</glyph>
<glyph name="arrowdown" format="2">
	<unicode hex="2193"/>
	<advance width="700"/>
	<outline>
		<contour>
			<point x="296" y="608" type="line"/>
			<point x="296" y="364" type="line"/>
			<point x="327" y="91" type="line"/>
			<point x="312" y="84" type="line"/>
			<point x="102" y="356" type="line"/>
			<point x="27" y="293" type="line"/>
			<point x="314" y="-36" type="line"/>
			<point x="393" y="-36" type="line"/>
			<point x="680" y="293" type="line"/>
			<point x="605" y="356" type="line"/>
			<point x="395" y="84" type="line"/>
			<point x="380" y="91" type="line"/>
			<point x="411" y="364" type="line"/>
			<point x="411" y="608" type="line"/>
		</contour>
	</outline>
</glyph>
<glyph name="arrowupleft" format="2">
	<unicode hex="2196"/>
	<advance width="700"/>
	<outline>
		<contour>
			<point x="629" y="106" type="line"/>
			<point x="488" y="249" type="line"/>
			<point x="227" y="470" type="line"/>
			<point x="234" y="488" type="line"/>
			<point x="569" y="382" type="line"/>
			<point x="590" y="511" type="line"/>
			<point x="149" y="536" type="line"/>
			<point x="103" y="490" type="line"/>
			<point x="128" y="50" type="line"/>
			<point x="258" y="69" type="line"/>
			<point x="151" y="405" type="line"/>
			<point x="169" y="413" type="line"/>
			<point x="391" y="152" type="line"/>
			<point x="533" y="10" type="line"/>
		</contour>
	</outline>
</glyph>
<glyph name="minus" format="2">
	<unicode hex="2212"/>
	<advance width="582"/>
	<outline>
		<contour>
			<point x="534" y="271" type="line"/>
			<point x="534" y="367" type="line"/>
			<point x="48" y="367" type="line"/>
			<point x="48" y="271" type="line"/>
		</contour>
	</outline>
</glyph>
<glyph name="triangleblackright" format="2">
	<unicode hex="25B6"/>
	<advance width="613"/>
	<outline>
		<contour>
			<point x="104" y="554" type="line"/>
			<point x="75" y="534" type="line"/>
			<point x="75" y="-2" type="line"/>
			<point x="104" y="-21" type="line"/>
			<point x="581" y="247" type="line"/>
			<point x="581" y="285" type="line"/>
		</contour>
	</outline>
</glyph>
<glyph name="trianglewhiteright" format="2">
	<unicode hex="25B7"/>
	<advance width="613"/>
	<outline>
		<contour>
			<point x="104" y="554" type="line"/>
			<point x="75" y="534" type="line"/>
			<point x="75" y="-2" type="line"/>
			<point x="104" y="-21" type="line"/>
			<point x="581" y="247" type="line"/>
			<point x="581" y="285" type="line"/>
		</contour>
		<contour>
			<point x="463" y="266" type="line"/>
			<point x="157" y="94" type="line"/>
			<point x="157" y="439" type="line"/>
		</contour>
	</outline>
</glyph>
<glyph name="check" format="2">
	<unicode hex="2713"/>
	<advance width="643"/>
	<outline>
		<contour>
			<point x="62" y="339" type="line"/>
			<point x="132" y="229"/>
			<point x="191" y="108"/>
			<point x="242" y="-7" type="curve"/>
			<point x="324" y="0" type="line"/>
			<point x="389" y="271"/>
			<point x="488" y="529"/>
			<point x="614" y="775" type="curve"/>
			<point x="539" y="813" type="line"/>
			<point x="397" y="549"/>
			<point x="329" y="337"/>
			<point x="307" y="108" type="curve"/>
			<point x="292" y="108" type="line"/>
			<point x="269" y="204"/>
			<point x="210" y="309"/>
			<point x="152" y="401" type="curve"/>
		</contour>
	</outline>
</glyph>
<glyph name="f_l" format="2">
	<unicode hex="FB02"/>
	<advance width="730"/>
	<outline>
		<contour>
			<point x="35" y="0" type="line"/>
			<point x="339" y="0" type="line"/>
			<point x="339" y="71" type="line"/>
			<point x="248" y="71" type="line"/>
			<point x="130" y="71" type="line"/>
			<point x="35" y="71" type="line"/>
		</contour>
		<contour>
			<point x="103" y="0" type="curve"/>
			<point x="275" y="0" type="line"/>
			<point x="275" y="73"/>
			<point x="275" y="147"/>
			<point x="275" y="220" type="curve" smooth="yes"/>
			<point x="275" y="477" type="line"/>
			<point x="275" y="552"/>
			<point x="280" y="593"/>
			<point x="288" y="628" type="curve" smooth="yes"/>
			<point x="293" y="650"/>
			<point x="299" y="666"/>
			<point x="317" y="701" type="curve"/>
			<point x="281" y="679" type="line"/>
			<point x="364" y="679" type="line"/>
			<point x="333" y="701" type="line"/>
			<point x="361" y="647" type="line" smooth="yes"/>
			<point x="385" y="603"/>
			<point x="408" y="580"/>
			<point x="454" y="580" type="curve" smooth="yes"/>
			<point x="503" y="580"/>
			<point x="524" y="618"/>
			<point x="528" y="653" type="curve"/>
			<point x="512" y="690"/>
			<point x="461" y="727"/>
			<point x="363" y="727" type="curve" smooth="yes"/>
			<point x="288" y="727"/>
			<point x="233" y="699"/>
			<point x="196" y="668" type="curve" smooth="yes"/>
			<point x="159" y="637"/>
			<point x="115" y="600"/>
			<point x="105" y="483" type="curve"/>
			<point x="146" y="506" type="line"/>
			<point x="34" y="490" type="line"/>
			<point x="34" y="424" type="line"/>
			<point x="103" y="424" type="line"/>
			<point x="103" y="220" type="line" smooth="yes"/>
			<point x="103" y="147"/>
			<point x="103" y="73"/>
		</contour>
		<contour>
			<point x="207" y="425" type="line"/>
			<point x="376" y="424" type="line"/>
			<point x="376" y="502" type="line"/>
			<point x="207" y="502" type="line"/>
		</contour>
		<contour>
			<point x="398" y="0" type="line"/>
			<point x="699" y="0" type="line"/>
			<point x="699" y="71" type="line"/>
			<point x="588" y="71" type="line"/>
			<point x="503" y="71" type="line"/>
			<point x="398" y="71" type="line"/>
		</contour>
		<contour>
			<point x="459" y="0" type="curve"/>
			<point x="632" y="0" type="line"/>
			<point x="632" y="73"/>
			<point x="632" y="147"/>
			<point x="632" y="220" type="curve" smooth="yes"/>
			<point x="632" y="590" type="line"/>
			<point x="632" y="716" type="line"/>
			<point x="575" y="716" type="line"/>
			<point x="459" y="677" type="line"/>
			<point x="459" y="220" type="line" smooth="yes"/>
			<point x="459" y="147"/>
			<point x="459" y="73"/>
		</contour>
	</outline>
</glyph>
<glyph name="commercemark" format="2">
	<unicode hex="1F16A"/>
	<advance width="877"/>
	<outline>
		<contour>
			<point x="724" y="324" type="curve" smooth="yes"/>
			<point x="782" y="324"/>
			<point x="818" y="337"/>
			<point x="845" y="350" type="curve"/>
			<point x="849" y="431" type="line"/>
			<point x="804" y="431" type="line"/>
			<point x="788" y="358" type="line"/>
			<point x="820" y="393" type="line"/>
			<point x="795" y="376"/>
			<point x="774" y="369"/>
			<point x="742" y="369" type="curve" smooth="yes"/>
			<point x="680" y="369"/>
			<point x="640" y="410"/>
			<point x="640" y="496" type="curve" smooth="yes"/>
			<point x="640" y="582"/>
			<point x="685" y="621"/>
			<point x="741" y="621" type="curve" smooth="yes"/>
			<point x="774" y="621"/>
			<point x="796" y="613"/>
			<point x="818" y="597" type="curve"/>
			<point x="785" y="630" type="line"/>
			<point x="801" y="557" type="line"/>
			<point x="845" y="557" type="line"/>
			<point x="842" y="641" type="line"/>
			<point x="823" y="653"/>
			<point x="782" y="665"/>
			<point x="726" y="665" type="curve" smooth="yes"/>
			<point x="619" y="665"/>
			<point x="528" y="611"/>
			<point x="528" y="494" type="curve" smooth="yes"/>
			<point x="528" y="377"/>
			<point x="616" y="324"/>
		</contour>
		<contour>
			<point x="28" y="332" type="line"/>
			<point x="156" y="332" type="line"/>
			<point x="156" y="378" type="line"/>
			<point x="102" y="378" type="line"/>
			<point x="78" y="378" type="line"/>
			<point x="28" y="378" type="line"/>
		</contour>
		<contour>
			<point x="69" y="332" type="line"/>
			<point x="112" y="332" type="line"/>
			<point x="105" y="639" type="line"/>
			<point x="69" y="639" type="line"/>
		</contour>
		<contour>
			<point x="196" y="332" type="line"/>
			<point x="258" y="332" type="line"/>
			<point x="335" y="597" type="line"/>
			<point x="367" y="597" type="line"/>
			<point x="367" y="657" type="line"/>
			<point x="321" y="657" type="line"/>
			<point x="260" y="453" type="line"/>
			<point x="248" y="453" type="line"/>
			<point x="189" y="657" type="line"/>
			<point x="28" y="657" type="line"/>
			<point x="28" y="613" type="line"/>
			<point x="97" y="613" type="line"/>
			<point x="97" y="597" type="line"/>
			<point x="119" y="597" type="line"/>
		</contour>
		<contour>
			<point x="300" y="332" type="line"/>
			<point x="487" y="332" type="line"/>
			<point x="487" y="378" type="line"/>
			<point x="431" y="378" type="line"/>
			<point x="352" y="378" type="line"/>
			<point x="300" y="378" type="line"/>
		</contour>
		<contour>
			<point x="343" y="332" type="line"/>
			<point x="446" y="332" type="line"/>
			<point x="446" y="657" type="line"/>
			<point x="349" y="657" type="line"/>
			<point x="349" y="604" type="line"/>
		</contour>
		<contour>
			<point x="421" y="613" type="line"/>
			<point x="431" y="613" type="line"/>
			<point x="487" y="613" type="line"/>
			<point x="487" y="657" type="line"/>
			<point x="421" y="657" type="line"/>
		</contour>
	</outline>
</glyph>
<glyph name="A.sups" format="2">
	<advance width="528"/>
	<outline>
		<contour>
			<point x="17" y="418" type="line"/>
			<point x="176" y="418" type="line"/>
			<point x="176" y="471" type="line"/>
			<point x="105" y="471" type="line"/>
			<point x="88" y="471" type="line"/>
			<point x="17" y="471" type="line"/>
		</contour>
		<contour>
			<point x="45" y="418" type="line"/>
			<point x="106" y="418" type="line"/>
			<point x="185" y="662" type="line"/>
			<point x="209" y="791" type="line"/>
			<point x="217" y="791" type="line"/>
			<point x="343" y="418" type="line"/>
			<point x="482" y="418" type="line"/>
			<point x="319" y="859" type="line"/>
			<point x="203" y="859" type="line"/>
		</contour>
		<contour>
			<point x="126" y="537" type="line"/>
			<point x="359" y="537" type="line"/>
			<point x="359" y="584" type="line"/>
			<point x="126" y="584" type="line"/>
		</contour>
		<contour>
			<point x="269" y="418" type="line"/>
			<point x="511" y="418" type="line"/>
			<point x="511" y="471" type="line"/>
			<point x="427" y="471" type="line"/>
			<point x="354" y="471" type="line"/>
			<point x="269" y="471" type="line"/>
		</contour>
	</outline>
</glyph>
<glyph name="B.sc" format="2">
	<advance width="668"/>
	<outline>
		<contour>
			<point x="33" y="0" type="line"/>
			<point x="148" y="0" type="line"/>
			<point x="148" y="70" type="line"/>
			<point x="133" y="70" type="line"/>
			<point x="33" y="70" type="line"/>
		</contour>
		<contour>
			<point x="108" y="0" type="curve"/>
			<point x="278" y="0" type="line"/>
			<point x="278" y="82"/>
			<point x="278" y="163"/>
			<point x="278" y="247" type="curve" smooth="yes"/>
			<point x="278" y="314" type="line" smooth="yes"/>
			<point x="278" y="397"/>
			<point x="278" y="478"/>
			<point x="278" y="560" type="curve"/>
			<point x="108" y="560" type="line"/>
			<point x="108" y="478"/>
			<point x="108" y="397"/>
			<point x="108" y="314" type="curve" smooth="yes"/>
			<point x="108" y="247" type="line" smooth="yes"/>
			<point x="108" y="163"/>
			<point x="108" y="82"/>
		</contour>
		<contour>
			<point x="133" y="490" type="line"/>
			<point x="148" y="490" type="line"/>
			<point x="148" y="560" type="line"/>
			<point x="33" y="560" type="line"/>
			<point x="33" y="490" type="line"/>
		</contour>
		<contour>
			<point x="239" y="0" type="line"/>
			<point x="322" y="0" type="line" smooth="yes"/>
			<point x="526" y="0"/>
			<point x="624" y="58"/>
			<point x="624" y="162" type="curve" smooth="yes"/>
			<point x="624" y="266"/>
			<point x="529" y="291"/>
			<point x="393" y="291" type="curve"/>
			<point x="393" y="312" type="line"/>
			<point x="505" y="312"/>
			<point x="592" y="347"/>
			<point x="592" y="432" type="curve" smooth="yes"/>
			<point x="592" y="516"/>
			<point x="497" y="560"/>
			<point x="327" y="560" type="curve" smooth="yes"/>
			<point x="239" y="560" type="line"/>
			<point x="239" y="493" type="line"/>
			<point x="319" y="493" type="line" smooth="yes"/>
			<point x="388" y="493"/>
			<point x="422" y="461"/>
			<point x="422" y="408" type="curve" smooth="yes"/>
			<point x="422" y="355"/>
			<point x="388" y="320"/>
			<point x="313" y="320" type="curve" smooth="yes"/>
			<point x="222" y="320" type="line"/>
			<point x="222" y="257" type="line"/>
			<point x="320" y="257" type="line" smooth="yes"/>
			<point x="411" y="257"/>
			<point x="451" y="223"/>
			<point x="451" y="162" type="curve" smooth="yes"/>
			<point x="451" y="101"/>
			<point x="411" y="67"/>
			<point x="313" y="67" type="curve" smooth="yes"/>
			<point x="239" y="67" type="line"/>
		</contour>
	</outline>
	<anchor name="aboveUC" x="315" y="580"/>
	<anchor name="belowLC" x="331" y="-20"/>
</glyph>
<glyph name="C.sups" format="2">
	<advance width="501"/>
	<outline>
		<contour>
			<point x="300" y="407" type="curve" smooth="yes"/>
			<point x="376" y="407"/>
			<point x="427" y="423"/>
			<point x="461" y="440" type="curve"/>
			<point x="465" y="546" type="line"/>
			<point x="409" y="546" type="line"/>
			<point x="376" y="449" type="line"/>
			<point x="430" y="449" type="line"/>
			<point x="430" y="493" type="line"/>
			<point x="397" y="472"/>
			<point x="366" y="460"/>
			<point x="322" y="460" type="curve" smooth="yes"/>
			<point x="236" y="460"/>
			<point x="177" y="520"/>
			<point x="177" y="639" type="curve" smooth="yes"/>
			<point x="177" y="759"/>
			<point x="241" y="817"/>
			<point x="320" y="817" type="curve" smooth="yes"/>
			<point x="365" y="817"/>
			<point x="395" y="805"/>
			<point x="426" y="784" type="curve"/>
			<point x="426" y="827" type="line"/>
			<point x="372" y="827" type="line"/>
			<point x="405" y="730" type="line"/>
			<point x="462" y="730" type="line"/>
			<point x="457" y="837" type="line"/>
			<point x="429" y="853"/>
			<point x="376" y="869"/>
			<point x="303" y="869" type="curve" smooth="yes"/>
			<point x="162" y="869"/>
			<point x="38" y="799"/>
			<point x="38" y="637" type="curve" smooth="yes"/>
			<point x="38" y="474"/>
			<point x="156" y="407"/>
		</contour>
	</outline>
</glyph>
<glyph name="Che.sc" format="2">
	<advance width="696"/>
	<outline>
		<contour>
			<point x="131" y="490" type="line"/>
			<point x="221" y="490" type="line"/>
			<point x="315" y="490" type="line"/>
			<point x="315" y="560" type="line"/>
			<point x="24" y="560" type="line"/>
			<point x="24" y="490" type="line"/>
		</contour>
		<contour>
			<point x="290" y="211" type="curve" smooth="yes"/>
			<point x="370" y="211"/>
			<point x="427" y="227"/>
			<point x="461" y="238" type="curve"/>
			<point x="461" y="300" type="line"/>
			<point x="434" y="287"/>
			<point x="400" y="279"/>
			<point x="359" y="279" type="curve" smooth="yes"/>
			<point x="288" y="279"/>
			<point x="261" y="306"/>
			<point x="261" y="360" type="curve" smooth="yes"/>
			<point x="261" y="426"/>
			<point x="261" y="493"/>
			<point x="261" y="560" type="curve"/>
			<point x="89" y="560" type="line"/>
			<point x="89" y="351" type="line" smooth="yes"/>
			<point x="89" y="251"/>
			<point x="154" y="211"/>
		</contour>
		<contour>
			<point x="325" y="0" type="line"/>
			<point x="659" y="0" type="line"/>
			<point x="659" y="70" type="line"/>
			<point x="544" y="70" type="line"/>
			<point x="454" y="70" type="line"/>
			<point x="325" y="70" type="line"/>
		</contour>
		<contour>
			<point x="414" y="0" type="curve"/>
			<point x="584" y="0" type="line"/>
			<point x="584" y="82"/>
			<point x="584" y="164"/>
			<point x="584" y="247" type="curve" smooth="yes"/>
			<point x="584" y="314" type="line" smooth="yes"/>
			<point x="584" y="397"/>
			<point x="584" y="478"/>
			<point x="584" y="560" type="curve"/>
			<point x="414" y="560" type="line"/>
			<point x="414" y="478"/>
			<point x="414" y="397"/>
			<point x="414" y="314" type="curve" smooth="yes"/>
			<point x="414" y="246" type="line" smooth="yes"/>
			<point x="414" y="164"/>
			<point x="414" y="82"/>
		</contour>
		<contour>
			<point x="454" y="490" type="line"/>
			<point x="544" y="490" type="line"/>
			<point x="659" y="490" type="line"/>
			<point x="659" y="560" type="line"/>
			<point x="360" y="560" type="line"/>
			<point x="360" y="490" type="line"/>
		</contour>
	</outline>
	<anchor name="aboveUC" x="338" y="580"/>
</glyph>
<glyph name="Chedescender.sc" format="2">
	<advance width="696"/>
	<outline>
		<contour>
			<point x="520" y="0" type="line"/>
			<point x="620" y="0" type="line"/>
			<point x="561" y="51" type="line"/>
			<point x="589" y="-163" type="line"/>
			<point x="659" y="-163" type="line"/>
			<point x="662" y="70" type="line"/>
			<point x="520" y="71" type="line"/>
		</contour>
		<component base="Che.sc"/>
	</outline>
</glyph>
